<?xml version="1.0" encoding="utf-8"?>
<!-- Generator: Adobe Illustrator 19.0.0, SVG Export Plug-In . SVG Version: 6.00 Build 0)  -->
<svg version="1.1" id="Capa_1" xmlns="http://www.w3.org/2000/svg" xmlns:xlink="http://www.w3.org/1999/xlink" x="0px" y="0px"
	 viewBox="-127 404.9 340 32" style="enable-background:new -127 404.9 340 32;" xml:space="preserve">
<style type="text/css">
	.st0{enable-background:new    ;}
	.st1{fill:#1E3D7A;}
	.st2{fill:#1E3E79;}
	.st3{fill:#00ADEF;}
</style>
<title>Group 2</title>
<desc>Created with Sketch.</desc>
<g id="Symbols">
	<g id="header" transform="translate(-292.000000, -20.000000)">
		<g id="Group-2" transform="translate(292.000000, 19.000000)">
			<g class="st0">
				<path class="st1" d="M-116,416.1l-0.9,2c-1.1-0.7-2.4-1.1-3.3-1.1c-0.8,0-1.3,0.3-1.3,0.9c0,1.9,5.6,0.9,5.6,4.6
					c0,2.1-1.8,3.2-4.1,3.2c-1.7,0-3.4-0.7-4.6-1.7l0.9-1.9c1.1,1,2.6,1.6,3.7,1.6c1,0,1.6-0.4,1.6-1c0-2-5.6-0.8-5.6-4.5
					c0-1.9,1.6-3.1,4.1-3.1C-118.5,415-117.1,415.4-116,416.1z"/>
				<path class="st1" d="M-111.9,415.2c0,0.8-0.5,1.3-1.2,1.3s-1.2-0.5-1.2-1.3s0.5-1.3,1.2-1.3S-111.9,414.5-111.9,415.2z
					 M-114.3,425.6v-8.1h2.3v8.1H-114.3z"/>
				<path class="st1" d="M-104.3,425.6l-3.1-8.1h2.4l1.9,5.9l1.9-5.9h2.3l-3,8.1H-104.3z"/>
				<path class="st1" d="M-95.5,415.2c0,0.8-0.5,1.3-1.2,1.3s-1.2-0.5-1.2-1.3s0.5-1.3,1.2-1.3S-95.5,414.5-95.5,415.2z
					 M-97.9,425.6v-8.1h2.3v8.1H-97.9z"/>
				<path class="st1" d="M-88.6,424.6c-0.5,0.7-1.4,1.1-2.5,1.1c-1.7,0-2.8-1.1-2.8-2.5c0-1.5,1.1-2.4,3.1-2.4h2.2v-0.2
					c0-0.9-0.6-1.3-1.7-1.3c-0.7,0-1.6,0.2-2.4,0.7l-0.7-1.6c1.2-0.6,2.2-0.9,3.6-0.9c2.2,0,3.4,1.1,3.4,2.9v5.3h-2.3v-1.1H-88.6z
					 M-88.7,422.8v-0.7h-1.8c-0.9,0-1.3,0.3-1.3,0.9s0.5,1,1.3,1C-89.6,424-88.8,423.5-88.7,422.8z"/>
				<path class="st1" d="M-82.1,425.8c0,1.8-1.3,2.8-2.8,2.8c-0.7,0-1.4-0.2-1.9-0.5l0.6-1.7c0.3,0.2,0.6,0.3,0.9,0.3
					c0.5,0,0.9-0.3,0.9-0.9v-8.2h2.3V425.8z M-81.9,415.2c0,0.8-0.5,1.3-1.3,1.3s-1.3-0.5-1.3-1.3s0.6-1.3,1.3-1.3
					C-82.4,413.9-81.9,414.5-81.9,415.2z"/>
				<path class="st1" d="M-75.1,424.6c-0.5,0.7-1.4,1.1-2.5,1.1c-1.7,0-2.8-1.1-2.8-2.5c0-1.5,1.1-2.4,3.1-2.4h2.2v-0.2
					c0-0.9-0.6-1.3-1.7-1.3c-0.7,0-1.6,0.2-2.4,0.7l-0.7-1.6c1.2-0.6,2.2-0.9,3.6-0.9c2.2,0,3.4,1.1,3.4,2.9v5.3h-2.3v-1.1H-75.1z
					 M-75.1,422.8v-0.7h-1.8c-0.9,0-1.3,0.3-1.3,0.9s0.5,1,1.3,1C-76,424-75.2,423.5-75.1,422.8z"/>
				<path class="st1" d="M-64.9,418.3l-0.8,1.6c-0.9-0.5-1.8-0.8-2.5-0.8c-0.5,0-0.9,0.2-0.9,0.6c0,1.2,4.3,0.6,4.2,3.5
					c0,1.6-1.5,2.5-3.3,2.5c-1.3,0-2.6-0.4-3.5-1.1l0.8-1.6c0.8,0.6,1.9,1,2.8,1c0.6,0,1-0.2,1-0.6c0-1.3-4.2-0.6-4.2-3.4
					c0-1.7,1.4-2.5,3.2-2.5C-67,417.4-65.8,417.7-64.9,418.3z"/>
				<path class="st1" d="M-61.6,424.5c0,0.4-0.1,0.7-0.3,0.9l-1,1.5H-64l0.6-1.5c-0.3-0.2-0.5-0.6-0.5-0.9c0-0.7,0.5-1.2,1.2-1.2
					C-62.1,423.4-61.6,423.8-61.6,424.5z"/>
				<path class="st1" d="M-47.5,421.6c0,2.4-1.5,4.1-3.7,4.1c-1.1,0-2-0.5-2.6-1.3v4.1h-2.3v-11h2.3v1.2c0.6-0.8,1.5-1.3,2.6-1.3
					C-49,417.4-47.5,419.1-47.5,421.6z M-49.9,421.5c0-1.3-0.8-2.2-2-2.2s-2,0.9-2,2.2c0,1.3,0.8,2.2,2,2.2S-49.9,422.8-49.9,421.5z
					"/>
				<path class="st1" d="M-43.6,415.2c0,0.8-0.5,1.3-1.2,1.3s-1.2-0.5-1.2-1.3s0.5-1.3,1.2-1.3S-43.6,414.5-43.6,415.2z M-46,425.6
					v-8.1h2.3v8.1H-46z"/>
				<path class="st1" d="M-34,422.3h-5.8c0.3,1,1,1.6,2.1,1.6c0.8,0,1.5-0.3,2-0.9l1.2,1.2c-0.8,0.9-2,1.4-3.4,1.4
					c-2.6,0-4.2-1.6-4.2-4.1s1.7-4.1,4.2-4.1C-35.2,417.4-33.8,419.3-34,422.3z M-36.2,420.9c0-1.1-0.7-1.8-1.8-1.8
					c-1,0-1.7,0.7-1.9,1.8H-36.2z"/>
				<path class="st1" d="M-24.4,420.5v5.1h-2.3v-4.4c0-1-0.6-1.7-1.6-1.7c-1.2,0-1.8,0.9-1.8,2.1v4h-2.3v-8.1h2.3v1.4
					c0.6-1,1.5-1.5,2.8-1.5C-25.6,417.4-24.4,418.6-24.4,420.5z"/>
				<path class="st1" d="M-16.6,418.3l-0.8,1.6c-0.9-0.5-1.8-0.8-2.5-0.8c-0.5,0-0.9,0.2-0.9,0.6c0,1.2,4.3,0.6,4.2,3.5
					c0,1.6-1.5,2.5-3.3,2.5c-1.3,0-2.6-0.4-3.5-1.1l0.8-1.6c0.8,0.6,1.9,1,2.8,1c0.6,0,1-0.2,1-0.6c0-1.3-4.2-0.6-4.2-3.4
					c0-1.7,1.4-2.5,3.2-2.5C-18.6,417.4-17.5,417.7-16.6,418.3z"/>
				<path class="st1" d="M-10.3,424.6c-0.5,0.7-1.4,1.1-2.5,1.1c-1.7,0-2.8-1.1-2.8-2.5c0-1.5,1.1-2.4,3.1-2.4h2.2v-0.2
					c0-0.9-0.6-1.3-1.7-1.3c-0.7,0-1.6,0.2-2.4,0.7l-0.7-1.6c1.2-0.6,2.2-0.9,3.6-0.9c2.2,0,3.4,1.1,3.4,2.9v5.3h-2.3v-1.1H-10.3z
					 M-10.3,422.8v-0.7h-1.8c-0.9,0-1.3,0.3-1.3,0.9s0.5,1,1.3,1C-11.2,424-10.4,423.5-10.3,422.8z"/>
				<path class="st1" d="M5,422.3h-5.8c0.3,1,1,1.6,2.1,1.6c0.8,0,1.5-0.3,2-0.9l1.2,1.2c-0.8,0.9-2,1.4-3.4,1.4
					c-2.6,0-4.2-1.6-4.2-4.1s1.7-4.1,4.2-4.1C3.9,417.4,5.2,419.3,5,422.3z M2.9,420.9c0-1.1-0.7-1.8-1.8-1.8c-1,0-1.7,0.7-1.9,1.8
					H2.9z"/>
				<path class="st1" d="M14.6,420.5v5.1h-2.3v-4.4c0-1-0.6-1.7-1.6-1.7c-1.2,0-1.8,0.9-1.8,2.1v4H6.5v-8.1h2.3v1.4
					c0.6-1,1.5-1.5,2.8-1.5C13.4,417.4,14.6,418.6,14.6,420.5z"/>
			</g>
		</g>
	</g>
</g>
<g>
	<path class="st2" d="M98.2,406.1c1.6-0.5,3.4,0.6,3.7,2.3c0.3,1.6-0.9,3.2-2.6,3.4c-1.5,0.2-3-1-3.2-2.5
		C95.9,407.9,96.8,406.5,98.2,406.1L98.2,406.1z"/>
	<path class="st2" d="M79.2,406.8c0.9,0,1.9,0,2.8,0c0.6,0,1.3,0.1,1.7,0.6c0.5,0.5,0.5,1.2,0.5,1.9c0,3.3,0,6.6,0,9.9
		c0.7,0,1.6,0.1,2-0.5c1.1-1.7,2.3-3.5,3.4-5.3c1.9,0,3.8,0,5.7,0c-1.5,2.3-3,4.5-4.5,6.7c-0.3,0.4-0.6,0.8-1,1.2
		c0.7,0.7,1.1,1.6,1.5,2.4c1.2,2.4,2.7,4.6,4,6.9c-1.5,0-3,0-4.5,0c-0.9,0-1.7-0.5-2.1-1.3c-1-1.8-1.9-3.6-2.9-5.4
		c-0.3-0.6-1-0.4-1.6-0.4c0,2.4,0,4.8,0,7.2c-1.7,0-3.4,0-5,0C79.2,422.7,79.2,414.7,79.2,406.8L79.2,406.8z"/>
	<path class="st2" d="M109.3,415.3c1.1-1.3,2.7-2.1,4.4-2.3c1.8-0.2,3.8,0.1,5.2,1.3c1.3,1.1,1.8,2.8,1.9,4.4
		c0.1,4-0.1,7.9,0.1,11.9c-1,0-2,0-2.9,0c-0.7,0-1.4-0.4-1.7-1c-0.4-0.8-0.3-1.6-0.3-2.5c0-2.4,0-4.7,0-7.1c0-0.9-0.2-2-1.2-2.3
		c-1.3-0.3-2.8,0.1-3.7,1c-1,0.9-1.4,2.3-1.4,3.6c0,2.8,0,5.5,0,8.3c-1.7,0-3.3,0-5,0c0-5.8,0-11.5,0-17.3c1.2,0.1,2.5-0.2,3.6,0.3
		C108.8,413.9,109.1,414.6,109.3,415.3L109.3,415.3z"/>
	<path class="st3" d="M150.4,415.7c2.4-2.4,6.2-3.2,9.5-2.3c1.3,0.4,2.6,0.9,3.3,2.1c0.7,1.2,0.3,2.6,0.4,3.9c-1,0-2,0-3,0
		c-0.7-0.1-1.2-0.7-1.4-1.3c-0.2-0.5-0.7-0.6-1.1-0.8c-1.8-0.4-3.8,0.3-4.7,1.9c-0.9,1.5-1,3.5-0.3,5.1c0.7,1.6,2.4,2.5,4.1,2.5
		c2,0.1,3.9-1,5.3-2.4c0.7,1.2,1.4,2.3,2.1,3.4c-3.4,4-10.1,4.4-14,0.9C147,425.4,146.9,419.1,150.4,415.7L150.4,415.7z"/>
	<path class="st3" d="M189.4,415.5c1-1.2,2.5-2.2,4.1-2.4c1.6-0.2,3.3,0.1,4.6,1.1c0.6,0.5,0.9,1.1,1.3,1.7c1.2-1.6,3-2.8,5-2.9
		c1.8-0.2,3.8,0.2,5,1.7c1.2,1.4,1.4,3.2,1.4,5c0,3.6,0,7.3,0,10.9c-1.2-0.1-2.6,0.2-3.7-0.3c-0.9-0.4-1.1-1.5-1-2.4
		c0-2.7,0-5.3,0-8c-0.1-0.8-0.2-1.9-1-2.3c-1.1-0.4-2.4,0-3.2,0.8c-1.1,1.1-1.5,2.7-1.6,4.1c0,2.7,0,5.4,0,8.1c-1.6,0-3.2,0-4.8,0
		c0-3.4,0-6.8,0-10.2c0-0.8-0.1-1.8-0.7-2.4c-0.6-0.7-1.6-0.7-2.4-0.4c-1.1,0.4-1.8,1.4-2.2,2.5c-0.5,1.2-0.6,2.6-0.6,3.9
		c0,2.2,0,4.5,0,6.7c-1.6,0-3.1,0-4.7,0c0-5.7,0-11.5,0-17.2c1.2,0.1,2.6-0.2,3.7,0.4C189.1,414.1,189.3,414.9,189.4,415.5
		L189.4,415.5z"/>
	<path class="st2" d="M96.7,413.4c1.2,0.1,2.5-0.2,3.7,0.2c0.9,0.3,1.3,1.3,1.3,2.2c0,5,0,9.9,0,14.9c-1.6,0-3.3,0-4.9,0
		C96.7,424.9,96.7,419.1,96.7,413.4L96.7,413.4z"/>
	<path class="st2" d="M47.1,413.2c2.8-0.5,6,0.1,8.2,2.1c3.6,3.2,3.8,9.3,0.6,12.8c-3.5,3.9-10.3,3.8-13.7-0.1
		c-3.3-3.7-2.8-10.2,1.2-13.2C44.5,414,45.8,413.5,47.1,413.2L47.1,413.2z M47.9,417.4c-1.1,0.3-1.9,1.1-2.4,2.1
		c-1.1,2.2-0.7,5.4,1.6,6.7c1.8,1,4.3,0.5,5.4-1.2c1.2-1.9,1.1-4.6-0.3-6.4C51.1,417.4,49.4,417,47.9,417.4L47.9,417.4z"/>
	<path class="st2" d="M66.3,413.2c2.5-0.5,5.2-0.1,7.4,1.3c1.8,1.2,3.1,3.1,3.5,5.2c0.6,2.8,0.1,6-1.9,8.2c-3.4,3.9-10.2,4-13.7,0.2
		c-3.1-3.4-3-9.3,0.2-12.5C63.1,414.4,64.6,413.6,66.3,413.2L66.3,413.2z M67.2,417.4c-1.4,0.4-2.5,1.7-2.8,3.1
		c-0.5,2,0,4.5,1.9,5.6c1.5,0.9,3.6,0.7,4.9-0.5c1.1-1,1.5-2.6,1.4-4c0-1.4-0.6-2.8-1.7-3.6C69.9,417.3,68.5,417.1,67.2,417.4
		L67.2,417.4z"/>
	<path class="st3" d="M172.1,413.2c2.8-0.5,6,0.2,8.1,2.2c3.5,3.2,3.7,9.3,0.5,12.8c-3.5,3.8-10.2,3.8-13.6,0
		c-3.1-3.5-3-9.4,0.4-12.6C168.8,414.2,170.4,413.5,172.1,413.2L172.1,413.2z M172.9,417.4c-1.1,0.3-2,1-2.5,2c-1,2-0.8,4.7,0.9,6.3
		c1.5,1.5,4.2,1.4,5.6-0.2c0.9-1,1.3-2.4,1.3-3.7c0-1.5-0.6-3-1.9-3.9C175.3,417.3,174.1,417.1,172.9,417.4L172.9,417.4z"/>
	<path class="st2" d="M127.1,413.5c2.5-1,5.7-0.8,7.9,1c0.3-0.6,0.8-1.1,1.5-1.2c1-0.2,2-0.1,3-0.1c0,5.3,0,10.6,0,15.9
		c0,1.9-0.6,3.9-1.9,5.4c-1.7,1.9-4.4,2.7-6.9,2.8c-2.3,0-4.7-0.5-6.7-1.7c0.4-1,0.7-2,1.2-2.9c0.2-0.5,0.8-0.7,1.3-0.6
		c0.8,0.2,1.6,0.5,2.5,0.6c1.5,0.2,3.1,0.2,4.4-0.7c0.9-0.7,1.2-2,1.2-3.1c-1.6,1.3-3.8,1.6-5.7,1.2c-2-0.4-3.8-1.6-4.8-3.3
		c-1.4-2.3-1.7-5.1-1.2-7.7C123.2,416.7,124.8,414.5,127.1,413.5L127.1,413.5z M129.6,417.6c-1.1,0.4-1.7,1.6-1.9,2.7
		c-0.3,1.5-0.1,3.2,0.9,4.4c1.2,1.6,4,1.7,5.2,0.1c0.8-1.2,0.9-2.7,0.8-4.1c-0.1-1.2-0.6-2.4-1.7-3
		C131.8,417.2,130.6,417.2,129.6,417.6L129.6,417.6z"/>
	<path class="st2" d="M22.1,409.3c-0.1-1.3,1.1-2.6,2.5-2.5c2,0,4.1,0,6.1,0c2,0,4.1,0.6,5.5,2.1c2.2,2.2,2,6.2-0.2,8.4
		c-0.3,0.2-0.5,0.5-0.8,0.7c1.2,0.6,2.2,1.4,2.8,2.6c1,2.1,0.9,4.8-0.4,6.8c-1.5,2.2-4.2,3.1-6.7,3.1c-2.9,0-5.8,0-8.8,0
		C22.1,423.5,22.1,416.4,22.1,409.3L22.1,409.3z M27.2,411.1c-0.4,0.4-0.4,0.9-0.5,1.4c0,1.3,0,2.6,0,3.9c1.3,0,2.5,0,3.8,0
		c0.7,0,1.5-0.3,2-0.9c0.9-1.2,0.9-3.3-0.4-4.2c-0.9-0.6-2-0.5-3-0.5C28.3,410.7,27.6,410.6,27.2,411.1L27.2,411.1z M27.3,420.3
		c-0.5,0.3-0.6,0.9-0.6,1.5c0,1.6,0,3.1,0,4.7c1.4,0,2.9,0,4.3,0c1,0,2-0.5,2.4-1.4c0.7-1.3,0.6-3.2-0.6-4.3c-1-0.8-2.3-0.7-3.5-0.7
		C28.7,420.1,27.9,419.9,27.3,420.3L27.3,420.3z"/>
	<path class="st3" d="M143.4,425.2c1.7-0.5,3.6,0.8,3.6,2.5c0.2,1.5-1.1,3-2.6,3.1c-1.5,0.2-3-1-3.2-2.5
		C141.1,426.9,142.1,425.5,143.4,425.2L143.4,425.2z"/>
</g>
</svg>
