<?xml version="1.0" encoding="UTF-8" standalone="no"?>
<svg width="186px" height="178px" viewBox="0 0 186 178" version="1.1" xmlns="http://www.w3.org/2000/svg" xmlns:xlink="http://www.w3.org/1999/xlink" xmlns:sketch="http://www.bohemiancoding.com/sketch/ns">
    <!-- Generator: Sketch 3.3.3 (12081) - http://www.bohemiancoding.com/sketch -->
    <title>Imported Layers Copy 9 + Imported Layers</title>
    <desc>Created with Sketch.</desc>
    <defs></defs>
    <g id="HOME" stroke="none" stroke-width="1" fill="none" fill-rule="evenodd" sketch:type="MSPage">
        <g id="Homepage-2" sketch:type="MSArtboardGroup" transform="translate(-838.000000, -3182.000000)">
            <g id="Imported-Layers-Copy-9-+-Imported-Layers" sketch:type="MSLayerGroup" transform="translate(931.000000, 3270.952381) scale(-1, 1) translate(-931.000000, -3270.952381) translate(838.000000, 3181.452381)">
                <path d="M179.889268,160.4366 C179.889268,170.0702 139.84322,177.8786 90.4450732,177.8786 C41.0469268,177.8786 1,170.0702 1,160.4366 C1,150.8048 41.0469268,143 90.4450732,143 C139.84322,143 179.889268,150.8048 179.889268,160.4366" id="Imported-Layers-Copy-9" fill="#F2F2E6" sketch:type="MSShapeGroup" transform="translate(91.000000, 161.000000) scale(-1, 1) translate(-91.000000, -161.000000) "></path>
                <g id="Imported-Layers" sketch:type="MSShapeGroup">
                    <path d="M50.935,118.139 C50.935,118.139 55.935,141.192 60.667,144.999 C65.399,148.806 46.949,149.192 45.841,144.999 C44.732,140.806 34.11,120.305 34.11,120.305 L50.935,118.139" id="Fill-1" fill="#D1C699"></path>
                    <path d="M27.168,62.218 C26.501,62.218 12.063,50.847 14.95,48.313 C17.838,45.78 20.281,43.337 24.502,53.99 C35.831,56.665 36.942,25.53 12.73,34.878 C-11.484,44.226 3.843,72.882 19.949,71.727 C25.835,69.77 27.168,62.218 27.168,62.218" id="Fill-2" fill="#A3825A"></path>
                    <path d="M15.363,82.141 C14.818,80.274 14.51,78.31 14.51,76.271 C14.51,64.61 24.069,55.157 35.861,55.157 C39.053,55.157 42.071,55.868 44.792,57.111 C47.465,53.03 52.33,50.288 57.904,50.288 C61.17,50.288 64.191,51.233 66.674,52.83 C69.012,48.55 73.471,45.651 78.594,45.651 C80.588,45.651 82.477,46.1 84.183,46.887 C84.437,46.292 84.66,45.685 84.81,45.05 C88.364,30.011 153.669,57.332 155.891,72.882 C158.113,88.429 150.808,116.418 148.019,120.639 C145.229,124.859 158.727,133.915 164,140 C169.273,146.085 146.579,147.803 145.334,143.334 C144.089,138.865 132.345,136.408 129.68,120.193 C128.347,123.525 111.743,125.08 111.743,125.08 C111.743,125.08 111.597,151.536 117.463,155.733 C123.33,159.931 103.195,161.536 102.262,155.733 C101.33,149.931 96.138,132.41 93.917,127.079 C89.252,122.638 39.052,116.195 38.163,123.748 C34.831,134.409 38.326,149.76 42.828,153.512 C47.33,157.264 26.34,159.816 25.501,153.957 C24.663,148.098 8.853,117.775 15.363,82.141" id="Fill-3" fill="#E9E1B8"></path>
                    <path d="M122.239,16.682 C103.247,16.682 95.376,10.35 86.65,16.682 C71.926,41.005 88.419,72.325 104.497,80.655 C120.573,88.984 144.896,90.317 159.223,74.324 C173.55,58.331 170.218,18.348 165.886,15.016 C161.555,11.685 141.231,16.682 122.239,16.682" id="Fill-4" fill="#E9E1B8"></path>
                    <path d="M102.368,8.47 L106.623,19.019 L97.249,19.019 L102.368,8.47" id="Fill-5" fill="#AA9883"></path>
                    <path d="M165.333,64.667 C154,89.334 119,93.334 104.497,80.655 C101.874,78.363 96.898,73.425 94,70.334 C94,70.334 121.156,51.833 126.821,51.833 C132.484,51.833 135.067,51.085 139.314,51.833 C143.563,52.583 165.333,64.667 165.333,64.667" id="Fill-6" fill="#A3825A"></path>
                    <path d="M101.701,8.466 C103.579,10.132 93.362,37.12 87.365,38.12 C81.367,39.118 70.039,23.458 70.039,21.127 C70.039,18.794 99.824,6.8 101.701,8.466" id="Fill-7" fill="#A3825A"></path>
                    <path d="M159.844,6.957 L152.186,15.371 L160.977,18.629 L159.844,6.957" id="Fill-8" fill="#AA9883"></path>
                    <path d="M159.844,6.957 C157.503,7.866 157.705,36.724 162.982,39.745 C168.258,42.766 184.323,32.018 185.133,29.833 C185.943,27.644 162.184,6.048 159.844,6.957" id="Fill-9" fill="#A3825A"></path>
                    <path d="M141.595,49.225 C137.398,47.726 122.738,48.077 122.572,50.288 C122.405,52.5 132.068,59.83 134.567,59.664 C137.067,59.498 144.451,49.785 141.595,49.225" id="Fill-10" fill="#53341F"></path>
                    <path d="M119.079,85.688 L119.739,85.278 C123.764,83.587 128.517,82.435 133.537,81.876 C133.278,76.7 133.292,57.524 133.292,57.524 L136.068,56.692 C136.068,56.692 136.114,76.44 135.822,81.664 C137.335,81.553 138.86,81.482 140.397,81.482 C142.899,81.482 145.393,81.629 147.809,81.92 L148.352,82.552 C148.352,82.552 148.133,82.725 147.681,82.993 C147.681,82.993 147.415,83.225 147.298,83.212 C145.582,84.155 141.651,85.96 134.629,86.549 C128.306,87.078 123.738,86.517 121.252,86.123 C120.216,85.997 119.079,85.688 119.079,85.688" id="Fill-11" fill="#53341F"></path>
                    <path d="M142.241,27.345 C131.345,36.229 110.021,27.345 110.021,27.345 L142.241,27.345" id="Fill-12" fill="#A3825A"></path>
                    <path d="M140.845,42.264 C140.845,47.886 147.022,52.442 154.643,52.442 C162.262,52.442 168.439,47.886 168.439,42.264 C168.439,36.643 162.262,32.086 154.643,32.086 C147.022,32.086 140.845,36.643 140.845,42.264" id="Fill-13" fill="#A3825A"></path>
                    <path d="M88.797,40.675 C88.797,46.296 94.976,50.852 102.595,50.852 C110.215,50.852 116.391,46.296 116.391,40.675 C116.391,35.054 110.215,30.497 102.595,30.497 C94.976,30.497 88.797,35.054 88.797,40.675" id="Fill-14" fill="#A3825A"></path>
                    <path d="M157.067,40.672 C157.067,43.089 159.342,45.05 162.148,45.05 C164.955,45.05 167.23,43.089 167.23,40.672 C167.23,38.255 164.955,36.294 162.148,36.294 C159.342,36.294 157.067,38.255 157.067,40.672" id="Fill-15" fill="#2D1306"></path>
                    <path d="M162.52,38.128 C162.52,39.14 163.472,39.96 164.646,39.96 C165.822,39.96 166.775,39.14 166.775,38.128 C166.775,37.114 165.822,36.294 164.646,36.294 C163.472,36.294 162.52,37.114 162.52,38.128" id="Fill-16" fill="#FFFFFF"></path>
                    <path d="M118.079,39.256 C118.079,41.673 115.803,43.634 112.998,43.634 C110.192,43.634 107.916,41.673 107.916,39.256 C107.916,36.838 110.192,34.878 112.998,34.878 C115.803,34.878 118.079,36.838 118.079,39.256" id="Fill-17" fill="#2D1306"></path>
                    <path d="M112.627,36.712 C112.627,37.724 111.673,38.544 110.499,38.544 C109.324,38.544 108.371,37.724 108.371,36.712 C108.371,35.698 109.324,34.878 110.499,34.878 C111.673,34.878 112.627,35.698 112.627,36.712" id="Fill-18" fill="#FFFFFF"></path>
                    <path d="M66.035,63.016 L67.314,62.644 C65.117,55.077 67.055,53.38 67.075,53.363 L66.296,52.281 C66.008,52.481 63.552,54.471 66.035,63.016" id="Fill-19" fill="#A3825A"></path>
                    <path d="M44.853,66.878 L46.133,66.506 C43.934,58.94 45.873,57.241 45.893,57.226 L45.115,56.144 C44.827,56.344 42.372,58.333 44.853,66.878" id="Fill-20" fill="#A3825A"></path>
                    <path d="M98.625,15.729 C95.532,14.544 89.749,12.75 86.672,14.458 C86.276,14.678 85.924,14.952 85.63,15.271 C84.413,16.595 84.37,17.921 84.546,18.802 C85.038,21.204 87.717,23.018 89.244,23.874 C89.163,25.625 89.283,28.855 91.061,30.546 C91.715,31.162 92.862,31.828 94.63,31.494 C95.056,31.415 95.474,31.261 95.873,31.042 C98.956,29.329 100.494,23.448 101.126,20.202 C100.331,19.81 99.636,19.179 99.173,18.342 C98.712,17.512 98.543,16.602 98.625,15.729" id="Fill-21" fill="#FF5C7F"></path>
                    <path d="M104.848,12.26 C104.842,12.284 104.836,12.313 104.832,12.34 C103.604,11.729 102.118,11.702 100.846,12.407 C99.577,13.111 98.817,14.385 98.682,15.752 C98.664,15.745 98.645,15.737 98.625,15.729 C98.543,16.602 98.712,17.512 99.173,18.342 C99.639,19.179 100.331,19.81 101.126,20.202 C101.128,20.189 101.127,20.176 101.133,20.167 C102.363,20.777 103.846,20.804 105.115,20.101 C106.387,19.396 107.146,18.124 107.282,16.755 C107.296,16.763 107.315,16.767 107.333,16.774 C107.429,15.889 107.26,14.96 106.791,14.114 C106.326,13.279 105.637,12.651 104.848,12.26 M103.694,17.541 C103.001,17.923 102.116,17.66 101.724,16.95 C101.33,16.242 101.572,15.353 102.266,14.967 C102.961,14.582 103.843,14.846 104.239,15.556 C104.632,16.265 104.387,17.153 103.694,17.541" id="Fill-22" fill="#FFC289"></path>
                    <path d="M116.717,8.634 C116.8,6.883 116.677,3.652 114.901,1.962 C114.248,1.343 113.1,0.678 111.329,1.011 C110.904,1.091 110.486,1.245 110.091,1.465 C107.021,3.169 105.484,9.001 104.848,12.26 C105.637,12.651 106.326,13.279 106.791,14.114 C107.26,14.96 107.429,15.889 107.333,16.774 C110.428,17.96 116.21,19.757 119.29,18.048 C119.688,17.828 120.038,17.554 120.333,17.236 C121.553,15.911 121.593,14.584 121.415,13.705 C120.926,11.302 118.244,9.489 116.717,8.634" id="Fill-23" fill="#FF305E"></path>
                    <path d="M102.987,17.717 C103.229,17.718 103.472,17.664 103.694,17.541 C104.387,17.153 104.632,16.265 104.239,15.556 C104.118,15.336 103.951,15.162 103.756,15.035 L102.987,17.717" id="Fill-24" fill="#FF305E"></path>
                    <path d="M104.832,12.34 C104.742,12.298 104.653,12.258 104.561,12.217 L103.756,15.035 C103.951,15.162 104.119,15.337 104.239,15.556 C104.632,16.265 104.387,17.153 103.694,17.541 C103.472,17.664 103.229,17.718 102.987,17.717 L102.182,20.528 C103.154,20.737 104.191,20.612 105.115,20.101 C106.387,19.396 107.146,18.124 107.281,16.753 C107.296,16.763 107.315,16.767 107.333,16.774 C107.429,15.889 107.26,14.96 106.791,14.114 C106.326,13.279 105.637,12.651 104.848,12.26 C104.842,12.284 104.836,12.313 104.832,12.34" id="Fill-25" fill="#FFB36B"></path>
                    <path d="M103.86,17.838 C103.007,18.31 101.915,17.986 101.431,17.112 C100.946,16.238 101.246,15.143 102.101,14.669 C102.956,14.193 104.044,14.519 104.531,15.392 C105.015,16.268 104.713,17.362 103.86,17.838" id="Fill-26" fill="#EBAA75"></path>
                    <path d="M154.341,101.795 C154.341,112.246 145.869,120.719 135.418,120.719 C124.967,120.719 116.495,112.246 116.495,101.795 C116.495,91.344 124.967,82.871 135.418,82.871 C145.869,82.871 154.341,91.344 154.341,101.795" id="Fill-27" fill="#FFFFFF"></path>
                    <path d="M117.849,108.764 C122.426,106.546 126.102,103.057 128.184,98.451 C130.266,93.846 130.458,88.781 129.101,83.879 C129.389,83.772 129.681,83.681 129.975,83.591 C124.915,85.114 120.514,88.728 118.165,93.922 C115.818,99.114 116.011,104.807 118.21,109.612 C118.084,109.331 117.96,109.051 117.849,108.764" id="Fill-28" fill="#F67E56"></path>
                    <path d="M152.033,92.619 C150.131,89.143 147.12,86.228 143.225,84.467 C139.01,82.561 134.465,82.328 130.334,83.484 C130.652,83.395 130.971,83.311 131.293,83.243 C132.805,88.659 132.586,94.283 130.274,99.395 C127.961,104.51 123.884,108.389 118.819,110.831 C118.659,110.544 118.51,110.249 118.367,109.951 C120.229,113.817 123.405,117.075 127.621,118.98 C131.514,120.741 135.692,121.077 139.56,120.208 C138.048,114.792 138.266,109.168 140.578,104.055 C142.89,98.941 146.968,95.062 152.033,92.619" id="Fill-29" fill="#FBBC96"></path>
                    <path d="M153.003,94.686 C148.426,96.905 144.75,100.394 142.668,105 C140.586,109.604 140.394,114.669 141.752,119.572 C146.444,117.917 150.475,114.42 152.686,109.529 C154.898,104.639 154.86,99.302 153.003,94.686" id="Fill-30" fill="#F67E56"></path>
                </g>
            </g>
        </g>
    </g>
</svg>