<?xml version="1.0" encoding="UTF-8" standalone="no"?>
<svg width="51px" height="38px" viewBox="0 0 51 38" version="1.1" xmlns="http://www.w3.org/2000/svg" xmlns:xlink="http://www.w3.org/1999/xlink" xmlns:sketch="http://www.bohemiancoding.com/sketch/ns">
    <!-- Generator: Sketch 3.3.3 (12081) - http://www.bohemiancoding.com/sketch -->
    <title>Imported Layers</title>
    <desc>Created with Sketch.</desc>
    <defs></defs>
    <g id="INTERNAS" stroke="none" stroke-width="1" fill="none" fill-rule="evenodd" sketch:type="MSPage">
        <g id="perfil-del-cuidador" sketch:type="MSArtboardGroup" transform="translate(-844.000000, -503.000000)" fill="#62D1B7">
            <g id="Transporte-a-domicil-+-Imported-Layers" sketch:type="MSLayerGroup" transform="translate(844.500000, 503.000000)">
                <path d="M50.0876369,29.7211697 L47.327033,29.7211697 C47.327033,31.0886172 47.3449464,32.4096441 47.3182846,33.7296923 C47.3075921,34.2596132 47.2781531,34.8127442 47.1204043,35.3112054 C46.6178577,36.8988706 45.0182905,37.8233658 43.3384602,37.5638584 C41.7177857,37.3135791 40.5087023,35.9408185 40.4807907,34.280027 C40.456073,32.8127475 40.4639883,31.3449087 40.4563508,29.8772097 C40.456073,29.8565163 40.4399649,29.8361024 40.4084429,29.7612983 L17.5572243,29.7612983 C17.5448655,29.9913035 17.5211198,30.2354306 17.5204255,30.4796976 C17.5163985,31.7147347 17.5337564,32.9499117 17.5145932,34.1846692 C17.4847376,36.1010531 16.0687478,37.5498763 14.1946476,37.6099992 C12.3469315,37.6692832 10.7868014,36.2800238 10.6807098,34.3826555 C10.6093341,33.1055322 10.6668235,31.8211384 10.6666846,30.5399603 L10.6666846,29.7157167 L7.86664348,29.7157167 C7.86664348,29.2800351 7.86747666,28.9142639 7.86650461,28.5486325 C7.85900599,25.5662547 7.82665082,22.5834576 7.86206098,19.6016391 C7.8699762,18.9247666 7.70972786,18.5022282 7.06706815,18.2773963 C6.83211131,18.1951817 6.62353852,18.0366249 6.35122743,17.8840804 C6.53286073,17.0725604 6.68852658,16.2543291 6.91334639,15.4559523 C6.97014151,15.2547502 7.22315058,15.0728433 7.4278352,14.9563726 C8.49166754,14.351368 9.56883076,13.7702727 10.714037,13.1410791 C9.41330378,12.3190726 8.19130605,11.5251701 6.94111906,10.7796456 C6.75032078,10.6658314 6.40913346,10.715328 6.17028845,10.7923693 C5.03133103,11.1592591 3.9037604,11.5618032 2.71772829,11.9703595 C2.47777237,11.4552597 2.25614642,10.9794495 2.02105072,10.4749761 C2.6805129,9.99972514 3.31248013,9.54446861 4.044429,9.01692472 C2.98267961,8.65353046 2.03382615,8.30467755 1.06872567,8.0092362 C0.624779456,7.8734702 0.436341852,7.63185985 0.412596214,7.17674314 C0.381351954,6.57551369 0.303171873,5.97666119 0.238461538,5.30705937 C1.24952579,5.18513563 2.23684441,5.10669616 3.20638851,4.92926356 C3.60131596,4.8569762 4.03901333,4.65102016 4.31646236,4.36662465 C5.27198126,3.38731975 6.16376187,2.34495566 7.0831763,1.32985663 C7.63876867,0.716602594 7.6416848,0.71939901 8.56943103,0.823425687 C8.61220095,1.31503563 8.72218075,1.82398335 8.68440991,2.32160559 C8.62705933,3.07635828 8.9718571,3.31964648 9.65367629,3.40521681 C10.7494472,3.54252084 11.8356365,3.75742541 13.039582,3.95876737 C12.0390714,5.4907839 11.0949393,6.93667082 10.1463635,8.38884968 C9.31082261,8.11060628 8.74023299,7.7276371 8.78897403,6.72204589 C8.82091261,6.06293063 8.6469168,5.39360844 8.55915514,4.68010289 C8.21963418,4.73896744 7.95371081,4.78482867 7.63460277,4.84005789 C7.74972051,5.89276871 7.84553624,6.90688899 7.98342758,7.9151368 C8.01008934,8.10892843 8.16061725,8.34186989 8.32378172,8.45093011 C8.99615819,8.90017435 9.6953353,9.30859092 10.4503355,9.77251634 C10.9065017,9.10207559 11.3687779,8.46868736 11.7788414,7.80272087 C12.0215746,7.40828639 12.2675016,7.24497569 12.7364433,7.41471815 C13.096516,7.54503113 13.4936653,7.57131744 13.9248361,7.65339226 C13.9913516,6.73057496 14.0643938,5.87529111 14.1125793,5.01846923 C14.2467214,2.62725386 16.0393087,0.905640319 18.4209545,0.904801394 C25.4561898,0.902424441 32.491564,0.902704082 39.5267993,0.904661574 C41.9151105,0.905220857 43.6631228,2.50337263 43.8535044,4.90689223 C44.0486075,7.36661979 44.209689,9.82928359 44.357023,12.2925067 C44.3822962,12.7144858 44.5215762,12.9503635 44.8908139,13.1522648 C46.4955191,14.0288014 48.0895318,14.9261713 49.6686861,15.8482895 C49.88323,15.9734291 50.1291571,16.2804756 50.1304068,16.5046083 C50.156652,20.7919336 50.1487368,25.0793987 50.145543,29.3670036 C50.1454041,29.4569084 50.117076,29.5465335 50.0876369,29.7211697 L50.0876369,29.7211697 Z M17.9661769,8.5920093 C19.8213917,9.00587888 21.5607943,9.37626419 23.2878382,9.79754426 C23.5525118,9.86214148 23.8420419,10.1159162 23.9800721,10.3617212 C24.4681769,11.2315464 24.8778239,12.1459745 25.3595409,13.0198545 C25.4684098,13.2172815 25.7433593,13.4358214 25.9504046,13.4446301 C26.9666068,13.4882542 27.9862806,13.4835003 29.0028994,13.4467274 C29.1830052,13.4401558 29.4439294,13.2381148 29.5162773,13.0630591 C30.0261836,11.831098 30.8004858,11.2617477 32.1137167,11.2534983 C33.7795218,11.2428719 35.4456046,11.2449692 37.1114097,11.256854 C37.3841374,11.2588115 37.665058,11.309147 37.9270932,11.3882855 C38.9388518,11.6940736 39.4283452,12.4830824 39.6984344,13.4161066 L41.3081387,13.4161066 C41.3081387,12.9514821 41.3288294,12.5342568 41.304806,12.1194085 C41.1738578,9.865637 41.0311063,7.61242476 40.8946036,5.3590727 C40.8276714,4.25504765 40.505925,3.92381217 39.4109873,3.85194427 C39.2035254,3.83824183 38.9948137,3.84061879 38.7866575,3.84061879 C32.2621617,3.8400595 25.737527,3.83991968 19.2130312,3.84131789 C18.9355822,3.84145771 18.6561891,3.8393604 18.3813784,3.87068026 C17.4805717,3.97330873 17.2102047,4.23798951 17.1485494,5.14836276 C16.9692768,7.79531037 16.8068066,10.4435164 16.6410037,13.0911631 C16.6343383,13.1991048 16.6601669,13.3092835 16.6712759,13.4216995 L17.638876,13.4216995 C17.7478837,11.8139001 17.8542531,10.2437124 17.9661769,8.5920093 L17.9661769,8.5920093 Z M21.0611639,24.763963 L37.3233152,24.763963 C37.3426172,24.5177385 37.371362,24.3154178 37.3719174,24.1128175 C37.3759445,22.7394976 37.3830265,21.3661777 37.371362,19.9927179 C37.360114,18.6722503 36.9203337,18.2410429 35.6073805,18.2427207 C31.3771854,18.2480339 27.1469903,18.2572621 22.9166564,18.2653717 C22.708639,18.2657912 22.4988165,18.2513896 22.2928821,18.2736211 C21.5835679,18.3501031 21.0787996,18.8417131 21.0688014,19.5563372 C21.0449169,21.2758534 21.0611639,22.9959289 21.0611639,24.763963 L21.0611639,24.763963 Z M43.9445988,23.6943338 C45.5195872,23.7111123 46.8235144,22.4390227 46.8630904,20.847023 C46.9028054,19.2476129 45.5886023,17.9009987 43.9820919,17.8951262 C42.4186292,17.8891139 41.0876237,19.2130771 41.0884569,20.7733375 C41.08929,22.3534523 42.384191,23.6776952 43.9445988,23.6943338 L43.9445988,23.6943338 Z M16.8923464,20.7572581 C16.8770715,19.1744866 15.5709225,17.88436 13.9942678,17.8948466 C12.4121973,17.9056128 11.1242395,19.2094418 11.1334044,20.7910947 C11.1428471,22.4144142 12.4598274,23.7202007 14.0614776,23.694194 C15.6242461,23.6690263 16.9074826,22.3376526 16.8923464,20.7572581 L16.8923464,20.7572581 Z M7.14483164,6.3094347 C7.14566482,6.19911609 7.146498,6.08879747 7.14719231,5.97847886 C6.86543852,5.7831492 6.59951515,5.46072243 6.2979039,5.42227171 C5.86381698,5.36704249 5.52318511,5.73155532 5.62191697,6.1629025 C5.68565526,6.44086625 6.04711663,6.82579292 6.29165504,6.83823698 C6.5663268,6.8524987 6.85960626,6.50154848 7.14483164,6.3094347 L7.14483164,6.3094347 Z" id="Imported-Layers" sketch:type="MSShapeGroup"></path>
            </g>
        </g>
    </g>
</svg>