<?xml version="1.0" encoding="UTF-8" standalone="no"?>
<svg width="23px" height="25px" viewBox="0 0 23 25" version="1.1" xmlns="http://www.w3.org/2000/svg" xmlns:xlink="http://www.w3.org/1999/xlink" xmlns:sketch="http://www.bohemiancoding.com/sketch/ns">
    <!-- Generator: Sketch 3.3.3 (12081) - http://www.bohemiancoding.com/sketch -->
    <title>Fill 1</title>
    <desc>Created with Sketch.</desc>
    <defs></defs>
    <g id="INTERNAS" stroke="none" stroke-width="1" fill="none" fill-rule="evenodd" sketch:type="MSPage">
        <g id="perfil-del-cuidador" sketch:type="MSArtboardGroup" transform="translate(-502.000000, -515.000000)" fill="#62D1B7">
            <g id="Fill-1-+-Fill-2-+-Fill-3" sketch:type="MSLayerGroup" transform="translate(502.539116, 511.370679)">
                <path d="M2.41168863,24.186197 L2.41168863,25.6963603 C2.41006241,26.3005342 2.60737746,26.5806364 3.19769639,26.6685755 C3.53053002,26.7174305 3.88450455,26.6870318 4.21842233,26.6273201 C4.34797809,26.6050639 4.49650646,26.4205005 4.54095655,26.2799066 C4.56806027,26.1925103 4.4428411,26.0177179 4.34255735,25.9346643 C4.03574329,25.6833323 3.63406622,25.511254 3.63406622,25.0292177 C3.63460829,24.3946451 3.73109752,23.7725577 4.23522664,23.3328624 C4.6222677,22.9957626 5.05104848,22.6999183 5.48796038,22.4295871 C6.13953371,22.025176 6.73744168,21.5729955 7.15212853,20.9150811 C7.29523615,20.6865481 7.47086823,20.6659204 7.71100715,20.7511453 C8.08720673,20.8873965 8.4677429,21.0182195 8.85641018,21.1121297 C9.25158236,21.2065828 9.38601679,21.0725028 9.36433382,20.6659204 C9.3627076,20.6322647 9.36379174,20.5964377 9.35511855,20.5638677 C9.19412248,19.9092102 9.30850016,19.8663263 9.97958817,19.8147571 C10.8572065,19.7479886 11.685496,19.9591509 12.502402,20.2430529 C12.8699284,20.3711617 13.2325761,20.5155555 13.603897,20.6322647 C13.8977013,20.7256321 14.0565291,20.9101956 14.1291671,21.2065828 C14.3785212,22.2238531 14.5021142,23.2541515 14.5541533,24.3023634 C14.6040242,25.3196337 14.7379165,26.3341899 14.8696406,27.3449463 C14.8896973,27.5018252 15.0637032,27.7108162 15.2143998,27.7667281 C15.8350749,27.9968896 16.4709281,28.0169744 17.0840142,27.714616 C17.403838,27.5566514 17.4450357,27.3867445 17.2048967,27.1267271 C17.0693782,26.980162 16.8926619,26.8601958 16.7154036,26.7641142 C16.4221414,26.6023498 16.2118166,26.3781595 16.1923019,26.0448596 C16.1310475,24.9912193 16.0914761,23.9375791 16.0448577,22.8839389 C16.0421473,22.8274842 16.0307638,22.7590872 16.0573254,22.7145748 C16.1023176,22.6358639 16.1733293,22.5728952 16.2334996,22.5028696 C16.2801179,22.5728952 16.3592608,22.6391209 16.3668498,22.7145748 C16.4058792,23.0907585 16.4085896,23.4718278 16.4568342,23.8469259 C16.5495289,24.5737802 16.623251,25.3071486 16.7826208,26.0198892 C16.951748,26.7787707 18.3145229,27.2276942 18.9482077,26.7608572 C19.0186774,26.7087452 19.0609592,26.4878119 19.0132567,26.4297287 C18.8511764,26.2283374 18.6647029,26.0269461 18.4462469,25.8939518 C18.1779201,25.7311017 17.9827734,25.5324245 17.9665111,25.2268092 C17.929108,24.5205825 17.8467127,23.8045849 17.9198928,23.1059579 C18.0402333,21.9459223 18.2603154,20.7956576 18.4608829,19.6443074 C18.5009964,19.4157744 18.6061588,19.1736705 18.7481823,18.9912784 C19.2246656,18.3800477 19.4512527,17.69662 19.5249748,16.9306817 C19.5715932,16.4551593 19.7260844,15.9921222 19.8301626,15.522571 C19.9689337,14.8955981 20.1212566,14.272425 20.2405129,13.6421951 C20.3418808,13.1091324 20.5196812,12.6265532 20.9349101,12.2563406 C21.1837222,12.0337788 21.2438925,11.8063315 21.1197574,11.4627178 C21.0368201,11.2303849 21.0926537,10.9160842 21.1734228,10.6658379 C21.3295402,10.1762019 21.4379551,9.70882206 21.3040627,9.18553037 C21.2493132,8.97056823 21.3588122,8.6899232 21.4525911,8.46356155 C21.7707887,7.69979452 22.1453621,6.94362717 22.1112114,6.0984351 C22.0911546,5.58111457 21.9567202,5.06270839 21.8179492,4.56167288 C21.7323014,4.25551467 21.5702212,4.23162999 21.3317085,4.43030712 C20.7148279,4.94002797 20.1938945,5.52303137 19.9006323,6.28896973 C19.6621196,6.91539982 19.424149,7.04947975 18.7579396,7.06359342 C18.4869025,7.07010743 18.2088184,7.11461979 17.9491648,7.19333068 C17.5209261,7.3208966 17.1528576,7.25032822 16.8384545,6.94199867 C16.4861062,6.5978421 16.1543567,6.23305785 15.8009243,5.88998695 C15.587889,5.68371014 15.3678069,5.47580484 15.1217051,5.31458323 C14.8251905,5.12024876 14.4988617,5.25704285 14.4750105,5.58979991 C14.4115878,6.48004719 14.2776954,7.3724658 14.5129557,8.26162741 C14.660942,8.82074612 14.9195114,9.27835494 15.4545388,9.54922895 C15.7326229,9.69145138 15.8903665,9.92704121 15.8686835,10.2462274 C15.8377853,10.7032934 15.8052608,11.1625307 15.740754,11.615254 C15.6317971,12.3779354 15.1872961,12.9158836 14.5265075,13.2719825 C13.3382806,13.9136119 12.0443492,14.1280313 10.7140989,14.1703723 C9.30578979,14.2143418 7.89693864,14.2664538 6.48808749,14.2773105 C5.86036544,14.2816532 5.22830678,14.2219415 4.60492132,14.1378023 C3.56576485,13.9966655 2.03386284,12.0516923 2.78897236,10.7380348 C3.27087643,9.89555686 3.67309557,9.00639525 4.11109162,8.13786132 C4.15174719,8.05589343 4.20920707,7.97392554 4.22004855,7.88598648 C4.23902116,7.73019321 4.22926382,7.57168577 4.23143211,7.41317833 C4.07368849,7.42512067 3.8834204,7.38549381 3.76091161,7.45769069 C2.69681972,8.09389179 1.75686286,8.87177249 1.05541869,9.91129904 C0.818532218,10.2614268 0.719874692,10.6305537 0.822326738,11.0512498 C1.00771615,11.820988 1.17792749,12.5939832 1.36331691,13.3631786 C1.39692551,13.5059438 1.44950672,13.6541374 1.53352824,13.7719323 C2.09240686,14.559584 2.224673,15.4840298 2.39000566,16.3987046 C2.40464167,16.47253 2.38892151,16.5604691 2.36290195,16.6332088 C2.01489023,17.6113951 2.06855559,18.6194373 2.11571606,19.6307365 C2.16992349,20.7940291 2.00892742,21.9041241 1.19364765,22.8166275 C1.01964179,23.0120477 0.816363921,23.1852116 0.610917755,23.3491474 C0.364816015,23.5434819 0.241765145,23.7845 0.267242638,24.0944581 C0.34530134,25.0509311 0.306814063,25.994376 0.0807690732,26.9329355 C-0.0319823847,27.404658 0.138771025,27.6798747 0.618506795,27.7547857 C1.04999795,27.8248113 1.49991963,27.8063549 1.9395419,27.7835559 C2.04958299,27.7775847 2.21545773,27.6185345 2.23659863,27.5056251 C2.25719745,27.3970583 2.12601547,27.2580929 2.05608788,27.1364981 C2.0409098,27.1088136 2.00350667,27.0925286 1.97531881,27.0740723 C1.30260458,26.6099495 1.30748325,26.6099495 1.46739517,25.8195836 C1.57960456,25.2604649 1.76065738,24.7339162 2.14336185,24.296935 C2.19594306,24.2377662 2.26316027,24.1899968 2.3238726,24.1357134 C2.35260253,24.1519984 2.38241662,24.1693691 2.41168863,24.186197" id="Fill-1" sketch:type="MSShapeGroup"></path>
            </g>
        </g>
    </g>
</svg>