<?xml version="1.0" encoding="UTF-8" standalone="no"?>
<svg width="33px" height="29px" viewBox="0 0 33 29" version="1.1" xmlns="http://www.w3.org/2000/svg" xmlns:xlink="http://www.w3.org/1999/xlink" xmlns:sketch="http://www.bohemiancoding.com/sketch/ns">
    <!-- Generator: Sketch 3.3.3 (12081) - http://www.bohemiancoding.com/sketch -->
    <title>Fill 2</title>
    <desc>Created with Sketch.</desc>
    <defs></defs>
    <g id="INTERNAS" stroke="none" stroke-width="1" fill="none" fill-rule="evenodd" sketch:type="MSPage">
        <g id="perfil-del-cuidador" sketch:type="MSArtboardGroup" transform="translate(-527.000000, -511.000000)" fill="#62D1B7">
            <g id="Fill-1-+-Fill-2-+-Fill-3" sketch:type="MSLayerGroup" transform="translate(502.539116, 511.370679)">
                <path d="M52.3937043,1.06202399 C52.4137611,0.889402867 52.4446593,0.792235634 52.4311074,0.701039572 C52.4148452,0.583787492 52.3828628,0.392710028 52.3221505,0.377510684 C52.2056045,0.348197664 52.0142523,0.375882183 51.9399881,0.458392906 C51.6483521,0.78137896 51.4103815,1.15376288 51.1144089,1.47186343 C50.7327886,1.88061721 50.3175597,2.2573438 49.9137143,2.64438423 C49.6811644,2.86694605 49.4090431,3.05585218 49.211186,3.30555569 C48.4869747,4.21860198 47.7296969,5.11102059 47.0916754,6.08160725 C45.7424524,8.13514715 43.8148362,9.20615805 41.4492239,9.53620095 C39.3210401,9.83258815 37.1847252,10.0687208 35.0478683,10.2912826 C34.5258507,10.345566 33.9875709,10.2380849 33.4563381,10.2093147 C32.7754927,10.1740305 32.5218019,10.4356764 32.6405162,11.1131329 C32.7283323,11.6125399 32.6562364,12.0489782 32.303346,12.4159337 C31.552031,13.1976143 31.1259606,14.1475733 30.8619704,15.1805858 C30.4104225,16.9485952 29.7328296,18.6259513 28.7359549,20.1518569 C28.3554187,20.7348603 27.8865245,21.3384913 27.3119257,21.7021899 C26.2109727,22.3964742 25.6515521,23.4300296 25.1506754,24.5428387 C25.0639435,24.734459 24.9864269,24.9298791 24.8964425,25.1193281 C24.5527674,25.8380399 24.6384152,26.2728497 25.2265658,26.8004841 C25.4536949,27.0056752 25.6781137,27.2141234 25.8981959,27.427457 C26.4229238,27.9360922 27.7336595,28.1277125 28.3559608,27.7205872 C28.5413502,27.6000781 28.6297083,27.2868631 28.692589,27.0436736 C28.7278238,26.9090508 28.5798375,26.7358869 28.583632,26.5822649 C28.5879686,26.370017 28.5960997,26.1034856 28.7196927,25.9677772 C28.8183502,25.8597533 29.1148649,25.8494394 29.2856183,25.9075226 C29.8439548,26.0958859 30.3887395,26.1436553 30.9421974,25.922722 C31.427896,25.7283875 31.617622,25.4358001 31.4924028,24.9385645 C31.3536318,24.3875883 31.522759,23.9723205 31.960755,23.6705049 C32.2621483,23.4620568 32.5890192,23.2546943 32.9354046,23.1558986 C33.6899721,22.9425649 34.2542715,22.5044981 34.7220816,21.8965244 C35.4723124,20.9215951 36.2957233,19.9971493 36.9744004,18.9760791 C37.7181263,17.856756 38.7253004,17.6483078 39.8885919,17.9463235 C41.4351299,18.3415065 42.9594429,18.823 44.491887,19.2735519 C44.9309672,19.4022035 45.0176991,19.7653593 45.0209515,20.157828 C45.0307089,21.3873464 45.01011,22.6179504 45.046429,23.8469259 C45.0637754,24.4261295 45.1364134,25.011847 45.264885,25.5753084 C45.5473057,26.8156834 46.1809906,27.368831 47.4456499,27.4670839 C47.97092,27.5083392 48.5173309,27.4790262 49.0333856,27.3764306 C50.14518,27.1549545 50.5056595,25.9862335 49.809636,25.1014146 C49.6312936,24.8745101 49.5526928,24.515697 49.5499824,24.21551 C49.5385989,23.2992067 49.64864,22.3791036 49.5949746,21.4671429 C49.5180001,20.1567424 49.6882114,18.8832545 49.977137,17.6195376 C50.4547045,15.535599 50.7712759,13.4348326 50.9821428,11.3036675 C51.0878473,10.2288568 51.6559412,9.19801555 52.0364773,8.15577483 C52.0614128,8.08846346 52.3579274,8.02929458 52.3964147,8.07597828 C52.559037,8.27411258 52.7769509,8.50861674 52.785082,8.7366069 C52.836037,10.1903156 53.5792208,11.3481799 54.3446298,12.4892163 C54.4644282,12.6650944 54.8834516,12.793746 55.0921503,12.725349 C55.5735123,12.5668415 56.0364437,12.3100812 56.4538409,12.0174938 C56.6300151,11.8931849 56.7102421,11.585941 56.7655337,11.3465513 C56.8403399,11.018137 56.7828801,10.6484672 56.9005102,10.3417662 C57.2973086,9.30169679 57.3320013,8.20788687 57.4691461,7.12656213 C57.5222694,6.71183718 57.3488056,6.41490714 57.015972,6.23848619 C56.3492206,5.88510145 55.987657,5.31838306 55.6434398,4.66861112 C55.4081796,4.22403031 54.9636786,3.86358873 54.550618,3.54711668 C54.0665457,3.1769041 53.5206768,2.8837739 52.9905281,2.57707285 C52.6164969,2.36048221 52.559037,2.06300934 52.7525575,1.7193956 C52.9726397,1.3280125 52.9948647,1.06310965 52.3937043,1.06202399" id="Fill-2" sketch:type="MSShapeGroup"></path>
            </g>
        </g>
    </g>
</svg>