<?xml version="1.0" encoding="UTF-8" standalone="no"?>
<svg width="32px" height="31px" viewBox="0 0 32 31" version="1.1" xmlns="http://www.w3.org/2000/svg" xmlns:xlink="http://www.w3.org/1999/xlink" xmlns:sketch="http://www.bohemiancoding.com/sketch/ns">
    <!-- Generator: Sketch 3.3.3 (12081) - http://www.bohemiancoding.com/sketch -->
    <title>Fill 1 + Fill 2</title>
    <desc>Created with Sketch.</desc>
    <defs></defs>
    <g id="INTERNAS" stroke="none" stroke-width="1" fill="none" fill-rule="evenodd" sketch:type="MSPage">
        <g id="Fill-1-+-Fill-2" sketch:type="MSLayerGroup" transform="translate(0.270805, -0.120843)">
            <path d="M30.8732034,15.7381768 C30.8732034,24.1737621 24.0826987,31.0121642 15.7072149,31.0121642 C7.33143765,31.0121642 0.540932928,24.1737621 0.540932928,15.7381768 C0.540932928,7.30259145 7.33143765,0.464189309 15.7072149,0.464189309 C24.0826987,0.464189309 30.8732034,7.30259145 30.8732034,15.7381768" id="Fill-1" fill="#62D1B7" sketch:type="MSShapeGroup"></path>
            <path d="M17.7117172,22.137002 C17.5234589,22.4107216 17.3624796,22.6189792 17.230463,22.8435175 C17.0792502,23.1023131 17.1344816,23.2301846 17.4089548,23.3495765 C17.4668804,23.374676 17.5436655,23.3940093 17.5719548,23.4411556 C17.6345953,23.544606 17.7177792,23.6690857 17.7056552,23.7745712 C17.6972358,23.8441034 17.5406345,23.9343257 17.4422957,23.9461971 C17.1910601,23.9746884 16.9344362,23.9774018 16.6811799,23.9675655 C16.2197956,23.9495889 16.0796964,23.8159513 16.0759919,23.3451672 C16.0722873,22.7444764 16.0537646,22.144464 16.2817625,21.5603932 C16.4733886,21.0702757 16.4073803,20.9990475 15.9025518,21.0638312 C15.2037397,21.1537143 14.5106529,21.2059483 13.8839111,20.9695387 C13.3918801,21.3948725 12.9234234,21.7951069 12.460692,22.2021249 C12.263004,22.3761251 12.2572788,22.667143 12.4684379,22.818418 C12.6836383,22.9724065 12.9348738,23.0734826 13.1574834,23.2176349 C13.2898367,23.3034478 13.4289255,23.4079158 13.5087417,23.5391791 C13.6535557,23.7776238 13.5511755,23.9567117 13.2716507,23.9533199 C12.8038676,23.9468755 12.3364213,23.9088871 11.8379915,23.8831093 C11.7881485,24.1785365 11.5257994,24.1720921 11.2375183,24.1449576 C10.2861236,24.0554136 9.82608641,23.6182084 9.6819459,22.6637512 C9.61223309,22.2014465 9.67217937,21.7723817 9.83686327,21.3256795 C10.0076092,20.8610006 10.0719335,20.3552807 10.1628633,19.8638064 C10.1800389,19.7705315 10.1227868,19.6497828 10.07126,19.5582037 C9.76950789,19.0243318 9.74290252,18.4877464 10.0237744,17.9375937 C10.1429935,17.70288 10.1076319,17.6313126 9.83922071,17.5997687 C8.90567518,17.4885171 8.00378668,17.2487157 7.12580933,16.9186919 C6.85638782,16.817955 6.59942706,16.6707501 6.35997869,16.5103172 C6.26601794,16.4472294 6.23570802,16.2891707 6.17643529,16.1745273 C6.28622455,16.1334863 6.40039192,16.0463167 6.5041192,16.0571705 C7.18979694,16.129077 7.87143336,16.2413461 8.55744788,16.3020596 C9.35325166,16.3722702 10.1517497,16.4421417 10.9489005,16.4384107 C11.4224089,16.4363756 11.8932229,16.269159 12.3697622,16.2155683 C13.5966404,16.0785389 14.8255393,15.9642347 16.0537646,15.839755 C16.4602543,15.7983748 16.8684279,15.7664918 17.2725601,15.7088309 C17.4486945,15.6844098 17.61843,15.6084331 17.7885023,15.5480588 C17.8652875,15.5212634 17.9336532,15.4724213 18.0087544,15.4405382 C18.6819714,15.1539297 19.2608909,14.8045725 19.6559302,14.110946 C20.0583785,13.4057873 20.9582464,13.1883718 21.7338436,13.4315651 C22.0022547,13.5150038 22.2703291,13.6011559 22.5330151,13.7015537 C23.0496309,13.8986183 23.4295152,14.2232151 23.4756536,14.82221 C23.4908086,15.021988 23.5901578,15.1254384 23.7733644,15.1932747 C23.985197,15.2712865 24.1859161,15.3808422 24.3906764,15.4781873 C24.6136227,15.5836728 24.6937756,15.7624216 24.6294512,15.9967961 C24.5836496,16.1623168 24.5274078,16.3271591 24.4566847,16.4835218 C24.1475235,17.1679905 23.7188065,17.4318738 22.7364284,17.3640375 C22.7185792,17.3623416 22.70073,17.3572538 22.682544,17.3555579 C22.4080709,17.3338503 22.0702837,17.1991952 21.8719221,17.312821 C21.453982,17.5519441 21.069046,17.8867164 20.8871865,18.3754772 C20.8046761,18.597302 20.7299117,18.823197 20.668955,19.0521447 C20.5635439,19.4479697 20.3362195,19.7518765 20.0314364,20.0164382 C19.7997339,20.2179121 19.5417628,20.4183685 19.3925706,20.6768249 C19.230581,20.9580065 19.139988,21.2992233 19.0918289,21.6244985 C19.0200954,22.1027447 19.002583,22.5891312 18.9837235,23.0728043 C18.9699157,23.4265708 19.0436698,23.4906761 19.3989694,23.5317171 C19.7414715,23.5710622 19.9031244,23.7793197 19.7825583,24.067285 C19.7424818,24.1619166 19.606424,24.274525 19.5117897,24.2772384 C19.1773702,24.2853788 18.8412669,24.2545132 18.5071842,24.2290746 C18.1138288,24.1992266 17.9410623,23.9309339 17.8848205,23.5815768 C17.8279052,23.2301846 17.8070251,22.8737046 17.7682957,22.5202773 C17.7568453,22.4158094 17.7379858,22.3120198 17.7117172,22.137002 L17.7117172,22.137002 Z M11.3247436,23.2125471 C11.2351609,22.9018567 11.1536609,22.6193184 11.0718241,22.3344058 C10.6922766,22.5596224 10.7734398,22.8597982 11.3247436,23.2125471 L11.3247436,23.2125471 Z" id="Fill-2" fill="#FFFFFF" sketch:type="MSShapeGroup"></path>
        </g>
    </g>
</svg>