<?xml version="1.0" encoding="UTF-8" standalone="no"?>
<svg width="36px" height="36px" viewBox="0 0 36 36" version="1.1" xmlns="http://www.w3.org/2000/svg" xmlns:xlink="http://www.w3.org/1999/xlink" xmlns:sketch="http://www.bohemiancoding.com/sketch/ns">
    <!-- Generator: Sketch 3.3.3 (12081) - http://www.bohemiancoding.com/sketch -->
    <title>Imported Layers Copy 7</title>
    <desc>Created with Sketch.</desc>
    <defs></defs>
    <g id="INTERNAS" stroke="none" stroke-width="1" fill="none" fill-rule="evenodd" sketch:type="MSPage">
        <g id="perfil-del-cuidador" sketch:type="MSArtboardGroup" transform="translate(-992.000000, -505.000000)" fill="#62D1B7">
            <g id="Imported-Layers-Copy-7" sketch:type="MSLayerGroup" transform="translate(992.207879, 505.000000)">
                <path d="M30.2212277,26.8565128 C30.2418785,26.4405223 30.0787896,26.2496373 29.7213707,26.0860215 C28.4870839,25.5197826 27.268153,24.9198581 26.0073907,24.3161908 C26.2287257,24.0226448 26.4071704,23.7847069 26.5946168,23.5360751 C26.4442361,23.4558713 26.3139768,23.3826185 26.1805403,23.3168513 C22.4363784,21.476976 18.696982,19.6269414 14.9411708,17.8121966 C14.4460794,17.5721198 14.2665756,17.3122595 14.2771658,16.7513675 C14.2798134,16.6321312 14.2798134,16.5134296 14.2819314,16.3941932 C13.9028026,16.8385223 13.6046887,17.3523614 13.7566579,17.9025595 C13.9028026,18.43137 14.0971326,18.9387927 14.2776953,19.4515624 C14.285638,19.379379 14.2914626,19.3061262 14.2930511,19.2291305 C14.2967577,19.0601678 14.3078774,18.8922745 14.3205856,18.6211857 C18.1304068,20.4808446 21.8819819,22.3116303 25.6340865,24.1429506 C23.2936543,24.2830399 21.0056436,24.2691379 18.7181624,24.2899909 C17.8132305,24.2974766 16.9421873,24.3022888 16.1563952,23.7194745 C15.7661467,23.4296714 15.3213586,23.5082711 15.0613694,23.9745226 C14.8109114,24.4220598 15.0168906,24.7680056 15.4007851,25.0134292 C15.7799139,25.2556447 16.1632788,25.4994643 16.5699421,25.6855372 C16.9972563,25.8806998 17.1343993,26.1539274 17.1296337,26.6335462 C17.1031582,29.2465863 17.1111009,31.8606957 17.1206321,34.4748052 C17.1238091,35.4003572 17.6549072,35.9644573 18.4602912,35.9484165 C19.2391997,35.9334452 19.7014616,35.3869899 19.7046386,34.4651808 C19.7088747,33.4850902 19.7056977,32.5055344 19.7056977,31.5254438 C19.9265031,31.6510965 20.0318755,31.802949 20.1250692,31.9606832 C20.7832496,33.072308 21.4218381,34.195696 22.1033169,35.2918147 C22.5025671,35.9339799 23.2407034,36.1066854 23.8364016,35.7692947 C24.4580458,35.418002 24.6656135,34.6678291 24.3261979,33.9705906 C24.2319452,33.7775668 24.1165121,33.5947021 24.0079627,33.4086293 C23.4037923,32.3772083 22.7990924,31.3452526 22.1716236,30.2747991 L27.0653508,30.2747991 C27.0653508,31.7280921 27.0584672,33.1305894 27.0685279,34.5336214 C27.0738229,35.3313819 27.521788,35.873025 28.1979717,35.9425349 C29.0547181,36.0302244 29.656241,35.4506182 29.6715968,34.4721318 C29.6906591,33.240736 29.6726558,32.0093401 29.6805984,30.778479 C29.682187,30.5934756 29.6800689,30.2929786 29.7774987,30.2443217 C30.3128328,29.9732328 30.2079899,29.5027038 30.210108,29.0599787 C30.213285,28.3253119 30.1846915,27.5895756 30.2212277,26.8565128" id="Fill-1" sketch:type="MSShapeGroup"></path>
                <path d="M28.3081097,23.9959102 C28.4388986,23.919984 28.5315627,23.8702576 28.6210498,23.8151843 C30.626832,22.5805804 30.6596616,22.5089316 30.3440739,20.0108503 L29.5905818,20.0108503 C29.5905818,20.4102653 29.5392194,20.8209088 29.601172,21.2139075 C29.7351379,22.0597903 29.3279451,22.4875439 28.5347398,22.7286901 C27.8638512,21.7341628 27.1823724,20.7257336 26.4468836,19.6360312 C28.4087165,19.2473101 30.2815918,18.8644706 32.1618801,18.5254758 C32.3223215,18.4966024 32.6130223,18.719569 32.7078045,18.8986908 C32.9519084,19.3579913 33.2786158,19.5173296 33.7853564,19.4745542 C34.3138069,19.4296401 34.8491411,19.464395 35.4707853,19.464395 C35.4707853,20.3952939 35.4824345,21.3149643 35.457018,22.2335652 C35.453841,22.3592179 35.2870455,22.5164173 35.1578451,22.5971558 C33.7054005,23.5039936 32.2476607,24.404415 30.7809193,25.2877263 C30.6458943,25.3689995 30.4028494,25.3903871 30.2641179,25.3240853 C29.072192,24.7546383 27.8935037,24.1589913 26.6475678,23.5387485 C26.8948487,23.2302312 27.1045345,22.9693015 27.3592286,22.6511597 C27.6944081,23.1259663 27.9994056,23.5585321 28.3081097,23.9959102 L28.3081097,23.9959102 Z M31.3977979,21.7101017 C31.4888735,21.7106364 31.5799492,21.7117058 31.6704953,21.7127752 C31.8261711,21.4759066 32.123226,21.2203238 32.09728,21.0059122 C32.0697455,20.7845497 31.7504512,20.4936773 31.515349,20.4439509 C31.3744995,20.4150775 31.0128444,20.7829457 31.0006657,20.987198 C30.987428,21.2197891 31.2532418,21.4678862 31.3977979,21.7101017 L31.3977979,21.7101017 Z" id="Fill-2" sketch:type="MSShapeGroup"></path>
                <path d="M7.16691167,5.98320415 C5.56143873,5.98320415 4.27367152,4.67802083 4.27949613,3.05843858 C4.28585024,1.45596648 5.61809625,0.12993017 7.20080028,0.150783161 C8.76550098,0.172170843 10.0485026,1.47949293 10.0559157,3.06004266 C10.0638584,4.67695144 8.7723846,5.98320415 7.16691167,5.98320415" id="Fill-3" sketch:type="MSShapeGroup"></path>
                <path d="M31.3977979,21.7101017 C31.2532418,21.4678862 30.987428,21.2197891 31.0006657,20.987198 C31.0128444,20.7829457 31.3744995,20.4150775 31.515349,20.4439509 C31.7504512,20.4936773 32.0697455,20.7845497 32.09728,21.0059122 C32.123226,21.2203238 31.8261711,21.4759066 31.6704953,21.7127752 C31.5799492,21.7117058 31.4888735,21.7106364 31.3977979,21.7101017" id="Fill-4" sketch:type="MSShapeGroup"></path>
                <path d="M14.4084842,10.5954579 C14.4053071,8.21821695 12.8257802,6.62109177 10.4652266,6.61146732 C9.37973205,6.60665509 8.29423749,6.618953 7.20874292,6.61734893 C6.12324836,6.618953 5.03775379,6.60665509 3.95225923,6.61146732 C1.59117618,6.62109177 0.0121787195,8.21821695 0.00900166224,10.5954579 C0.00582460498,12.6470713 -0.0153557768,14.7002888 0.0232984199,16.7513675 C0.0338886108,17.3122595 0.0037065668,19.0601678 0.00741313361,19.2291305 C0.0291230249,20.1343642 0.449553602,20.6583624 1.15062424,20.6498073 C1.85698997,20.641787 2.25094507,20.1370377 2.25306311,19.1986531 C2.25941722,17.0598849 2.25518114,14.9216513 2.25518114,12.7828831 L2.25518114,10.6745923 L3.3459708,10.6745923 L3.3459708,11.3996347 C3.3459708,18.9387927 3.34438228,26.4779508 3.34702982,34.0171088 C3.34755933,35.4404591 4.4330539,36.2954317 5.59956342,35.7848008 C6.33875874,35.4613121 6.58498068,34.8464162 6.58233313,34.056676 C6.57015441,29.844372 6.57650853,25.6326026 6.57650853,21.4202986 L6.57650853,20.6134483 L7.84044781,20.6134483 L7.84044781,21.4202986 C7.84044781,25.6326026 7.84733143,29.844372 7.8346232,34.056676 C7.83250516,34.8464162 8.0787271,35.4613121 8.81739291,35.7848008 C9.98443195,36.2954317 11.0699265,35.4404591 11.070456,34.0171088 C11.0725741,26.4779508 11.071515,18.9387927 11.071515,11.3996347 L11.071515,10.6745923 L12.1617752,10.6745923 L12.1617752,12.7828831 C12.1617752,14.9216513 12.1575391,17.0598849 12.1638932,19.1986531 C12.1665408,20.1370377 12.5599664,20.641787 13.2663321,20.6498073 C13.9674027,20.6583624 14.3883628,20.1343642 14.4095432,19.2291305 C14.4137793,19.0601678 14.3835972,17.3122595 14.3936579,16.7513675" id="Fill-5" sketch:type="MSShapeGroup"></path>
            </g>
        </g>
    </g>
</svg>