<?xml version="1.0" encoding="UTF-8" standalone="no"?>
<svg width="34px" height="37px" viewBox="0 0 34 37" version="1.1" xmlns="http://www.w3.org/2000/svg" xmlns:xlink="http://www.w3.org/1999/xlink" xmlns:sketch="http://www.bohemiancoding.com/sketch/ns">
    <!-- Generator: Sketch 3.4.2 (15857) - http://www.bohemiancoding.com/sketch -->
    <title>Page 1</title>
    <desc>Created with Sketch.</desc>
    <defs>
        <path id="path-1" d="M0,0.453802817 L33.6980282,0.453802817 L33.6980282,36 L0,36"></path>
    </defs>
    <g id="INTERNAS" stroke="none" stroke-width="1" fill="none" fill-rule="evenodd" sketch:type="MSPage">
        <g id="perfil-del-cuidador" sketch:type="MSArtboardGroup" transform="translate(-578.000000, -503.000000)">
            <g id="Page-1" sketch:type="MSLayerGroup" transform="translate(578.262142, 503.128539)">
                <path d="M11.0873408,33.8344225 L11.0873408,34.7055211 C11.0868338,35.0538592 11.2004113,35.2156056 11.5416507,35.2663099 C11.7338197,35.2941972 11.9386648,35.2764507 12.1313408,35.2419718 C12.2058761,35.2292958 12.2915662,35.1233239 12.3174254,35.0421972 C12.3331437,34.991493 12.2606366,34.8905915 12.2028338,34.8429296 C12.0258761,34.6979155 11.7936507,34.5985352 11.7936507,34.320169 C11.7936507,33.9545915 11.8494254,33.5956056 12.1409746,33.3420845 C12.3645803,33.1478873 12.6120169,32.9775211 12.8640169,32.8213521 C13.2407493,32.5881127 13.5860451,32.3269859 13.825369,31.9477183 C13.9080169,31.8158873 14.0099324,31.8042254 14.1483549,31.8529014 C14.3658761,31.932 14.5854254,32.0070423 14.8100451,32.0612958 C15.0382141,32.1160563 15.1157915,32.0384789 15.1036225,31.8042254 C15.1021014,31.7844507 15.1031155,31.763662 15.0980451,31.7449014 C15.0052563,31.367662 15.0711718,31.3423099 15.4590592,31.3129014 C15.9655944,31.2748732 16.4437352,31.3960563 16.9157915,31.559831 C17.1282423,31.6338592 17.3376507,31.7175211 17.5521296,31.7849577 C17.7214817,31.8381972 17.8132563,31.9446761 17.8558479,32.1160563 C17.9993408,32.7027042 18.0708338,33.2964507 18.1007493,33.9013521 C18.1296507,34.488 18.2072282,35.0731268 18.2832845,35.6562254 C18.2944394,35.7464789 18.3953408,35.8671549 18.4825521,35.8996056 C18.841031,36.0324507 19.2081296,36.0441127 19.561538,35.8691831 C19.7471155,35.7784225 19.7704394,35.6805634 19.6320169,35.5304789 C19.5539324,35.4458028 19.4515099,35.3768451 19.3490873,35.3210704 C19.1797352,35.2282817 19.0580451,35.0989859 19.0468901,34.9063099 C19.0113972,34.2988732 18.9885803,33.6909296 18.961707,33.083493 C18.9601859,33.0505352 18.9541014,33.0109859 18.9688056,32.9851268 C18.9951718,32.94 19.0362423,32.904 19.0707211,32.8634366 C19.0975944,32.904 19.1432282,32.9420282 19.1477915,32.9851268 C19.1701014,33.2021408 19.1721296,33.4227042 19.2000169,33.6381972 C19.2537634,34.0575211 19.2958479,34.4809014 19.3881296,34.8921127 C19.4854817,35.3296901 20.2729183,35.5882817 20.6384958,35.3195493 C20.6795662,35.2891268 20.7039042,35.1618592 20.6760169,35.1283944 C20.5827211,35.0122817 20.4752282,34.896169 20.3489746,34.8196056 C20.1938197,34.7258028 20.0812563,34.6107042 20.0721296,34.4347606 C20.0503268,34.0270986 20.0026648,33.6138592 20.0447493,33.2112676 C20.1147211,32.5424789 20.2414817,31.8787606 20.3575944,31.2145352 C20.3804113,31.0827042 20.4412563,30.9432676 20.5233972,30.8378028 C20.7982141,30.4859155 20.929538,30.0909296 20.9721296,29.6492958 C20.9990028,29.375493 21.0882423,29.1082817 21.1480732,28.8375211 C21.2281859,28.476 21.3164113,28.116507 21.385369,27.7529577 C21.4436789,27.4451831 21.5466085,27.1673239 21.7864394,26.9533521 C21.9299324,26.8250704 21.9649183,26.6937465 21.8934254,26.495493 C21.8452563,26.3616338 21.8772,26.1801127 21.9243549,26.0361127 C22.0141014,25.7536901 22.0769746,25.4839437 21.9993972,25.1822535 C21.9674535,25.0580282 22.0308338,24.8967887 22.0850873,24.7659718 C22.2691437,24.3253521 22.4851437,23.8892958 22.4658761,23.4015211 C22.453707,23.1033803 22.3766366,22.8047324 22.2965239,22.5152113 C22.2468338,22.3387606 22.153031,22.3250704 22.0156225,22.4391549 C21.6591718,22.7332394 21.3584958,23.0699155 21.1886366,23.5115493 C21.0512282,23.8730704 20.9138197,23.9501408 20.5289746,23.9582535 C20.3722986,23.9623099 20.2120732,23.988169 20.0619887,24.0332958 C19.8145521,24.1068169 19.6015944,24.0657465 19.4205803,23.8882817 C19.2167493,23.6895211 19.0250873,23.4796056 18.8212563,23.2818592 C18.6980451,23.1627042 18.5707775,23.0425352 18.4288056,22.9497465 C18.2574254,22.8376901 18.0688056,22.9162817 18.0551155,23.1084507 C18.0186085,23.6220845 17.941538,24.1367324 18.0774254,24.6493521 C18.1626085,24.971831 18.3121859,25.236 18.6204676,25.3926761 C18.781707,25.4738028 18.8729746,25.6096901 18.8602986,25.7942535 C18.8425521,26.0579155 18.8232845,26.3225915 18.7862704,26.5837183 C18.7233972,27.0233239 18.4668338,27.3341408 18.085031,27.5389859 C17.3984958,27.9091268 16.6511155,28.0328451 15.8829465,28.0571831 C15.0696507,28.0830423 14.2558479,28.1124507 13.4420451,28.1190423 C13.0795099,28.1215775 12.7139324,28.0870986 12.3544394,28.0384225 C11.7541014,27.9572958 10.8693127,26.8352113 11.305369,26.0776901 C11.5837352,25.5919437 11.8159606,25.0793239 12.0689746,24.5778592 C12.0928056,24.5307042 12.1257634,24.4835493 12.1318479,24.4328451 C12.1430028,24.3425915 12.1369183,24.2513239 12.1384394,24.1600563 C12.0476789,24.1671549 11.9376507,24.143831 11.8671718,24.1859155 C11.2521296,24.5530141 10.7090873,25.0012394 10.3039606,25.6010704 C10.1675662,25.8028732 10.1102704,26.015831 10.1695944,26.2587042 C10.2765803,26.7023662 10.3749465,27.1480563 10.4819324,27.5917183 C10.501707,27.6743662 10.5316225,27.7595493 10.5802986,27.827493 C10.9027775,28.2818028 10.9798479,28.8152113 11.0751718,29.3425352 C11.0832845,29.3851268 11.0746648,29.435831 11.0594535,29.4779155 C10.8586648,30.0422535 10.8890873,30.6233239 10.9169746,31.2064225 C10.9479042,31.8777465 10.8551155,32.5181408 10.3835662,33.0444507 C10.2836789,33.1575211 10.1665521,33.2569014 10.0473972,33.3512113 C9.90491831,33.4637746 9.83443944,33.6027042 9.84914366,33.7816901 C9.89376338,34.3328451 9.87196056,34.8774085 9.7416507,35.4189296 C9.67624225,35.6907042 9.77511549,35.8494085 10.0519606,35.8930141 C10.3014254,35.9330704 10.5605239,35.9224225 10.8145521,35.9092394 C10.8779324,35.9056901 10.9742704,35.8139155 10.9864394,35.7490141 C10.9981014,35.6861408 10.9225521,35.6065352 10.8824958,35.5355493 C10.8738761,35.519831 10.8520732,35.5107042 10.8353408,35.5000563 C10.4469465,35.232338 10.4494817,35.232338 10.5422704,34.776 C10.6071718,34.4540282 10.7116225,34.1503099 10.932693,33.8978028 C10.9626085,33.864338 11.0016507,33.8364507 11.0366366,33.8050141 C11.053369,33.8146479 11.0706085,33.8242817 11.0873408,33.8344225" id="Fill-1" fill="#62D1B7" sketch:type="MSShapeGroup"></path>
                <g id="Group-5">
                    <mask id="mask-2" sketch:name="Clip 4" fill="white">
                        <use xlink:href="#path-1"></use>
                    </mask>
                    <g id="Clip-4"></g>
                    <path d="M27.6181859,2.91574648 C27.5461859,2.57907042 27.499538,2.23529577 27.3966085,1.90926761 C27.259707,1.47726761 27.0959324,1.05084507 26.9047775,0.640647887 C26.8586366,0.541267606 26.658862,0.513887324 26.5300732,0.453549296 C26.4920451,0.57371831 26.4459042,0.691859155 26.4180169,0.813549296 C26.3368901,1.17557746 26.3034254,1.55383099 26.1776789,1.89811268 C25.8318761,2.84780282 25.5099042,3.79242254 25.6260169,4.82983099 C25.6452845,4.9991831 25.5646648,5.19997183 25.4789746,5.35766197 C24.7625239,6.67647887 24.3741296,8.10025352 24.1256789,9.56560563 C24.0166648,10.2044789 23.7803831,10.7784507 23.2201014,11.0968732 C21.9672,11.8092676 20.706693,12.521662 19.3929465,13.1072958 C18.847369,13.350169 18.1582986,13.2832394 17.5321014,13.3314085 C15.2747493,13.505831 13.0128338,13.626 10.7620732,13.8592394 C9.98224225,13.9403662 9.22472113,14.273493 8.47125634,14.5325915 C8.24562254,14.610169 7.97131268,14.7876338 7.89069296,14.9879155 C7.71829859,15.4173803 7.43334085,15.5537746 7.01148169,15.6323662 C6.11959437,15.798169 5.61711549,16.4314648 5.29818592,17.2305634 C4.84336901,18.3749577 4.73841127,19.5746197 4.76731268,20.7925352 C4.82004507,23.0559718 4.05136901,24.9578873 2.29497465,26.4267887 C1.67029859,26.9495493 1.03243944,27.4570986 0.425002817,27.9996338 C0.293678873,28.1157465 0.180101408,28.3647042 0.207988732,28.5274648 C0.447819718,29.933493 0.185678873,31.3146761 0.0284957746,32.6978873 C-0.16164507,34.3655493 0.598411268,34.9947887 2.2067493,34.4623944 C2.74928451,34.2829014 2.85221408,33.954338 2.49880563,33.5030704 C2.4156507,33.3976056 2.30055211,33.317493 2.19863662,33.2272394 C1.64139718,32.7333803 1.4076507,32.1315211 1.59880563,31.3937746 C1.91469296,30.1789014 2.30105915,29.0040845 3.38258028,28.2146197 C3.8855662,27.8470141 4.09091831,27.8860563 4.22325634,28.5051549 C4.38449577,29.2515211 4.44736901,30.018169 4.58072113,30.7711268 C4.66742535,31.254338 4.77289014,31.7385634 4.93058028,32.202507 C5.07153803,32.6203099 5.39858028,32.9072958 5.86353803,32.837831 C6.09373521,32.8033521 6.44511549,32.6248732 6.48111549,32.4555211 C6.55058028,32.1355775 6.88776338,31.7299437 6.35181972,31.4226761 C6.14900282,31.3060563 5.9700169,31.0048732 5.9340169,30.7650423 C5.72055211,29.3448169 5.97204507,28.0290423 7.08398873,27.0286479 C7.77762254,26.4044789 8.50877746,25.8026197 9.2952,25.3072394 C10.4659606,24.569493 10.7757634,23.1223944 11.0617352,21.7432394 C11.1945803,21.1038592 12.1696225,20.9522535 12.9256225,20.6997465 C13.1066366,20.6394085 13.2967775,20.2996901 13.4691718,20.3174366 C14.1237634,20.3853803 15.3016225,20.9760845 15.9212282,21.1880282 C17.9605521,21.8852113 20.5302423,21.4146761 22.6998761,21.4841408 C23.4117634,21.5069577 23.5684394,21.6712394 23.7347493,22.3699437 C24.3213972,24.8367042 23.8224676,28.3469577 23.5648901,30.8502254 C23.4999887,31.4799718 23.5922704,32.0108451 24.0166648,32.5077465 C24.1850028,32.7044789 24.1814535,33.042169 24.2742423,33.3088732 C24.4451155,33.7991831 24.5490592,34.3366479 24.8253972,34.7600282 C25.4095099,35.657493 26.2760451,35.5276901 27.0355944,35.1337183 C27.1293972,35.0845352 27.175538,34.950169 27.2581859,34.8695493 C27.4280451,34.7032394 27.5979042,34.5349014 27.7844958,34.3883662 C27.9984676,34.2195211 28.4416225,33.9883099 28.4188056,33.930507 C28.2803831,33.5867324 28.1029183,33.1126479 27.8164394,33.0026197 C27.0756507,32.7191831 26.8809465,32.1680282 26.8966648,31.5164789 C26.9316507,30.0191831 27.0102423,28.5223944 27.1081014,27.0281408 C27.2384113,25.0430704 27.2668056,23.0417746 27.9011155,21.1231268 C28.1460169,20.3798028 28.3584676,19.6238028 28.6459606,18.8972113 C29.0490592,17.8760282 29.1489465,16.8289859 29.1241014,15.7429014 C29.0881014,14.1959155 29.1139606,12.6474085 29.1139606,11.0999155 C29.1144676,10.5715775 29.1281577,10.0427324 29.1139606,9.51439437 C29.1028056,9.06312676 29.3152563,8.94042254 29.7219042,9.03980282 C30.0854535,9.12853521 30.4484958,9.22233803 30.8155944,9.29484507 C32.2662423,9.5808169 33.2899606,8.88566197 33.5551437,7.44211268 C33.8319887,5.93467606 33.835031,5.92504225 32.3641014,5.53969014 C31.7272563,5.37287324 31.2410028,5.06256338 30.8536225,4.50228169 C30.618862,4.16357746 30.2167775,3.88673239 29.8309183,3.71839437 C29.3472,3.50746479 29.0881014,3.20070423 29.0323268,2.70177465 C28.9861859,2.2956338 28.9765521,1.88492958 28.9177352,1.48132394 C28.8862986,1.26887324 28.8006085,1.05895775 28.7052845,0.865267606 C28.6758761,0.80543662 28.5212282,0.761323944 28.447707,0.78515493 C28.3919324,0.802901408 28.3255099,0.956028169 28.3468056,1.01991549 C28.6069183,1.78757746 28.0370028,2.2895493 27.8123831,2.90053521 C27.7474817,2.90560563 27.6830873,2.91016901 27.6181859,2.91574648" id="Fill-3" fill="#62D1B7" sketch:type="MSShapeGroup" mask="url(#mask-2)"></path>
                </g>
            </g>
        </g>
    </g>
</svg>