<?xml version="1.0" encoding="UTF-8" standalone="no"?>
<svg width="40px" height="37px" viewBox="0 0 40 37" version="1.1" xmlns="http://www.w3.org/2000/svg" xmlns:xlink="http://www.w3.org/1999/xlink" xmlns:sketch="http://www.bohemiancoding.com/sketch/ns">
    <!-- Generator: Sketch 3.3.3 (12081) - http://www.bohemiancoding.com/sketch -->
    <title>Imported Layers Copy 11</title>
    <desc>Created with Sketch.</desc>
    <defs></defs>
    <g id="INTERNAS" stroke="none" stroke-width="1" fill="none" fill-rule="evenodd" sketch:type="MSPage">
        <g id="perfil-del-cuidador" sketch:type="MSArtboardGroup" transform="translate(-363.000000, -503.000000)" fill="#62D1B7">
            <g id="Imported-Layers-Copy-11" sketch:type="MSLayerGroup" transform="translate(363.316083, 503.547852)">
                <path d="M35.120463,14.1657366 L39.7473963,14.1657366 L32.1267021,8.74466341 L32.1267021,1.94066341 L27.5904508,1.94066341 L27.5904508,5.51678049 L19.8788953,0.0316097561 L0.0116488753,14.1657366 L4.63822373,14.1657366 L4.63822373,32.4010537 L1.64392513,32.4010537 L1.64392513,35.9344976 L38.1140448,35.9344976 L38.1140448,32.4010537 L35.120463,32.4010537 L35.120463,14.1657366 L35.120463,14.1657366 Z M11.714109,18.5217366 L17.1573596,18.5217366 L17.1573596,23.8553561 L11.714109,23.8553561 L11.714109,18.5217366 Z M22.6004311,21.8997659 L28.0436817,21.8997659 L28.0436817,32.5671805 L22.6004311,32.5671805 L22.6004311,21.8997659 Z" id="Fill-1" sketch:type="MSShapeGroup"></path>
            </g>
        </g>
    </g>
</svg>