<?xml version="1.0" encoding="UTF-8" standalone="no"?>
<svg width="44px" height="45px" viewBox="0 0 44 45" version="1.1" xmlns="http://www.w3.org/2000/svg" xmlns:xlink="http://www.w3.org/1999/xlink" xmlns:sketch="http://www.bohemiancoding.com/sketch/ns">
    <!-- Generator: Sketch 3.3.3 (12081) - http://www.bohemiancoding.com/sketch -->
    <title>Fill 3 Copy 2</title>
    <desc>Created with Sketch.</desc>
    <defs></defs>
    <g id="INTERNAS" stroke="none" stroke-width="1" fill="none" fill-rule="evenodd" sketch:type="MSPage">
        <path d="M35.1549971,2.2739041 C34.9813568,1.72618981 34.7728595,1.18554696 34.529505,0.665475528 C34.4707643,0.539475528 34.2164362,0.504761242 34.051833,0.428261242 C34.0040658,0.580618385 33.9453251,0.730404099 33.9098225,0.88533267 C33.806542,1.34368981 33.7639389,1.82326124 33.6038542,2.25976124 C33.1636214,3.46383267 32.7537272,4.66147553 32.9015473,5.97676124 C32.9260764,6.19147553 32.8234415,6.44604696 32.7143516,6.64597553 C31.8022563,8.31804696 31.3071558,10.1231898 30.991505,11.981047 C30.8527219,12.791047 30.5512722,13.5187612 29.8386373,13.9224755 C28.2436002,14.8256898 26.6388807,15.7289041 24.9663833,16.4714041 C24.2718225,16.7793327 23.3945844,16.6944755 22.5973886,16.7561898 C19.7236108,16.9766898 16.8440235,17.129047 13.9786373,17.4247612 C12.9858542,17.5276184 12.0208277,17.9499755 11.0622563,18.2784755 C10.7750076,18.3768327 10.4257907,18.6018327 10.3231558,18.8557612 C10.1036849,19.4002612 9.7409124,19.5731898 9.2038542,19.6728327 C8.06776954,19.883047 7.42872192,20.6859755 7.02270076,21.6991184 C6.44303938,23.150047 6.31006584,24.671047 6.34621399,26.2151898 C6.41399176,29.0849041 5.43476425,31.4962612 3.19938859,33.3586184 C2.40412933,34.0214041 1.592087,34.6649041 0.818774833,35.3527612 C0.651589648,35.4999755 0.506997055,35.8162612 0.542499701,36.0219755 C0.847822452,37.8046184 0.514097584,39.5557612 0.313991764,41.3094755 C0.0719282722,43.4238327 1.03953674,44.2216184 3.08707113,43.5466184 C3.77711346,43.319047 3.908796,42.9024755 3.45888065,42.3303327 C3.35301822,42.1966184 3.20648912,42.0956898 3.07674309,41.9806184 C2.36733568,41.3544755 2.06911346,40.5914041 2.31311346,39.656047 C2.71526161,38.1157612 3.20713462,36.6262612 4.58334626,35.6253327 C5.22433039,35.1592612 5.48511346,35.2087612 5.65423515,35.9936898 C5.85885949,36.9399755 5.93954732,37.9119755 6.10931452,38.8666184 C6.21969547,39.4792612 6.35396002,40.0931898 6.55471134,40.6814041 C6.73416108,41.2117612 7.15051028,41.5749755 7.74179071,41.4869041 C8.03549441,41.4431898 8.48282774,41.2169041 8.52865843,41.0021898 C8.61709229,40.596547 9.04635155,40.0822612 8.36340975,39.6926898 C8.1052087,39.5448327 7.87734626,39.1636184 7.83216108,38.8589041 C7.56040446,37.0582612 7.88057377,35.390047 9.29616108,34.1216898 C10.1785632,33.3303327 11.109378,32.5672612 12.1111981,31.9391898 C13.6016637,31.0038327 14.6415685,29.8119755 15.005632,28.0634041 C15.1747537,27.2534041 15.3251558,27.1981184 16.1391346,27.4012612 C17.0686584,27.632047 17.0396108,27.6172612 17.3784997,26.7404041 C17.4656426,26.5147612 17.8516531,26.2331898 18.071124,26.2556898 C18.9038225,26.3418327 19.7578225,26.4479041 20.5459812,26.7166184 C23.1428383,27.600547 25.7687431,28.2909755 28.5308489,28.3784041 C29.4364891,28.4073327 29.6359494,28.6156184 29.8476743,29.5014755 C30.5945209,32.6289755 30.6054944,35.7931184 30.2775791,38.9669041 C30.1949547,39.7659755 30.3117907,40.4384041 30.8527219,41.0684041 C31.0670288,41.3178327 31.0618648,41.7459755 31.1806373,42.0841184 C31.3981717,42.7057612 31.5304997,43.3871898 31.8816531,43.9239755 C32.6252722,45.0618327 33.7290817,44.8972612 34.6953992,44.3977612 C34.8154627,44.3354041 34.8742034,44.165047 34.9787748,44.0628327 C35.1950182,43.8519755 35.4119071,43.638547 35.6488066,43.4527612 C35.9218542,43.2386898 36.485378,42.945547 36.4563304,42.8729041 C36.2801082,42.4364041 36.0548277,41.8353327 35.6894732,41.6958327 C34.7463939,41.3364755 34.4991664,40.6376898 34.5185314,39.8116184 C34.5637166,37.9132612 34.6637695,36.015547 34.7883516,34.121047 C34.9542457,31.6042612 34.9903939,29.0669041 35.7972722,26.6343327 C36.1096955,25.6919041 36.3801611,24.7334041 36.7461611,23.8121898 C37.2593357,22.5174755 37.3864997,21.1899755 37.3548701,19.8129755 C37.3090394,17.8516184 37.34196,15.8883327 37.34196,13.9263327 C37.3426055,13.2564755 37.3593886,12.5859755 37.34196,11.9161184 C37.3271135,11.3439755 37.5982246,11.1884041 38.1159177,11.3144041 C38.5787431,11.4269041 39.040923,11.5458327 39.5076214,11.6377612 C41.35505,12.0003327 42.6583198,11.1189755 42.9959177,9.28876124 C43.3483621,7.37754696 43.3515896,7.36533267 41.479632,6.87676124 C40.6688807,6.66526124 40.0498436,6.27247553 39.5566796,5.56147553 C39.2578119,5.13204696 38.7459283,4.78104696 38.2547008,4.56826124 C37.6388912,4.30083267 37.3090394,3.91126124 37.2373886,3.27868981 C37.1792934,2.7644041 37.1663833,2.24304696 37.091505,1.73133267 C37.0521293,1.46197553 36.9430394,1.19583267 36.8216849,0.950261242 C36.7842457,0.874404099 36.5873674,0.819118385 36.4937695,0.848689813 C36.4227643,0.87183267 36.3375579,1.06533267 36.3653145,1.14633267 C36.6964574,2.11961838 35.9702669,2.75604696 35.6849547,3.53068981 C35.6023304,3.53711838 35.5203516,3.5429041 35.4377272,3.54997553" id="Fill-3-Copy-2" fill="#62D1B7" sketch:type="MSShapeGroup"></path>
    </g>
</svg>