<?xml version="1.0" encoding="UTF-8" standalone="no"?>
<svg width="107px" height="143px" viewBox="0 0 107 143" version="1.1" xmlns="http://www.w3.org/2000/svg" xmlns:xlink="http://www.w3.org/1999/xlink" xmlns:sketch="http://www.bohemiancoding.com/sketch/ns">
    <!-- Generator: Sketch 3.5.1 (25234) - http://www.bohemiancoding.com/sketch -->
    <title>Group 2</title>
    <desc>Created with Sketch.</desc>
    <defs></defs>
    <g id="HOME" stroke="none" stroke-width="1" fill="none" fill-rule="evenodd" sketch:type="MSPage">
        <g id="Homepage-2" sketch:type="MSArtboardGroup" transform="translate(-1209.000000, -375.000000)">
            <g id="Group-2" sketch:type="MSLayerGroup" transform="translate(1209.000000, 375.000000)">
                <path d="M106.681605,133.601536 C106.681605,138.685936 89.5157048,142.807036 68.3409906,142.807036 C47.1662764,142.807036 30,138.685936 30,133.601536 C30,128.518086 47.1662764,124.398886 68.3409906,124.398886 C89.5157048,124.398886 106.681605,128.518086 106.681605,133.601536" id="Imported-Layers-Copy-2" fill="#3F9580" sketch:type="MSShapeGroup"></path>
                <path d="M76.6816048,115.313131 C76.6816048,119.509287 59.5157048,122.910432 38.3409906,122.910432 C17.1662764,122.910432 0,119.509287 0,115.313131 C0,111.117759 17.1662764,107.718182 38.3409906,107.718182 C59.5157048,107.718182 76.6816048,111.117759 76.6816048,115.313131" id="Imported-Layers-Copy-2" fill="#3F9580" sketch:type="MSShapeGroup"></path>
                <g id="Group-Copy-6" transform="translate(15.000000, 0.000000)" sketch:type="MSShapeGroup">
                    <path d="M22.761,48.4531463 C22.6411875,48.6736098 22.59225,48.7813171 22.5230625,48.921 L22.3543125,49.2929268 L22.0640625,49.9829268 C21.880125,50.4322683 21.711375,50.8664634 21.55275,51.2989756 C21.2355,52.1589512 20.955375,53.0037805 20.692125,53.8452439 C20.1706875,55.5281707 19.733625,57.1909024 19.355625,58.8536341 C18.603,62.1757317 18.086625,65.4843659 17.7643125,68.7778537 C17.1163125,75.3648293 17.634375,84.7219024 17.634375,84.7219024 L16.054875,84.9120732 L15.2938125,85.0046341 C13.8391875,85.1813415 12.760875,86.3913659 12.7153125,87.8083902 L12.7153125,87.8083902 C12.585375,89.7050488 12.4993125,91.5428049 12.42675,93.4091707 C12.35925,95.2688049 12.3170625,97.1334878 12.312,99.0065854 C12.30525,100.876317 12.3339375,102.754463 12.45375,104.662902 C12.5094375,105.618805 12.5955,106.583122 12.733875,107.574366 C12.8098125,108.070829 12.895875,108.57739 13.0224375,109.105829 C13.159125,109.644366 13.2924375,110.187951 13.6670625,110.891415 L13.6670625,110.891415 C13.881375,111.332341 14.2576875,111.640317 14.6896875,111.781683 L14.715,111.79178 L18.8578125,113.126341 C19.794375,113.429268 20.8018125,112.915976 21.1055625,111.978585 C21.4093125,111.044561 20.894625,110.039854 19.9546875,109.736927 L15.811875,108.402366 L16.8615,109.299366 C16.8328125,109.178195 16.76025,108.816366 16.7349375,108.457902 C16.7011875,108.089341 16.69275,107.682073 16.69275,107.268073 C16.696125,106.433341 16.7450625,105.564951 16.817625,104.691512 C16.96275,102.939585 17.1939375,101.160732 17.4571875,99.3869268 C17.722125,97.6080732 18.0241875,95.8241707 18.35325,94.0453171 C18.67725,92.2731951 18.3043125,94.0066098 18.67725,92.2731951 L18.67725,92.2731951 L22.0843125,92.3758537 C24.0181875,92.6097805 25.77825,91.2550244 26.0499375,89.3381707 L26.193375,88.32 C27.0489375,82.5139024 28.4731875,76.8727317 30.466125,71.5883415 C31.46175,68.9461463 32.6041875,66.3914634 33.8799375,63.9798293 C34.5195,62.7765366 35.1945,61.6069024 35.8965,60.5045854 C36.2491875,59.9542683 36.608625,59.4190976 36.9680625,58.9192683 C37.14525,58.6701951 37.3291875,58.4278537 37.503,58.2073902 C37.59075,58.098 37.6785,57.9902927 37.7578125,57.8960488 L37.8725625,57.7715122 C37.8995625,57.7445854 37.9485,57.6907317 37.924875,57.7496341 C40.4983125,53.5726098 39.1905,48.1064634 35.0038125,45.5383171 C30.817125,42.9701707 25.336125,44.274439 22.761,48.4531463 L22.761,48.4531463 Z" id="Shape" fill="#CDC3AD"></path>
                    <path d="M3.871125,110.623829 L4.8195,110.933488 C4.8515625,111.19939 4.8988125,111.433317 4.9190625,111.525878 L3.871125,110.623829 L3.871125,110.623829 Z" id="Shape" fill="#DFDCD5"></path>
                    <path d="M0.3695625,101.229732 C0.3628125,103.102829 0.3931875,104.980976 0.5079375,106.889415 C0.570375,107.841951 0.6530625,108.806268 0.7965,109.799195 C0.867375,110.295659 0.9534375,110.80222 1.08,111.334024 C1.2166875,111.869195 1.3516875,112.41278 1.724625,113.11961 L1.724625,113.11961 C1.9389375,113.560537 2.31525,113.868512 2.74725,114.009878 L2.7725625,114.01661 L6.912,115.351171 C7.853625,115.654098 8.859375,115.140805 9.163125,114.203415 C9.466875,113.26939 8.9521875,112.268049 8.01225,111.965122 L4.8178125,110.933488 C4.849875,111.19939 4.897125,111.433317 4.917375,111.525878 L3.871125,110.625512 L4.8195,110.935171 C4.809375,110.852707 4.802625,110.770244 4.795875,110.686098 C4.762125,110.317537 4.7503125,109.910268 4.7503125,109.492902 C4.7536875,108.664902 4.806,107.793146 4.876875,106.919707 C5.0236875,105.16778 5.2531875,103.388927 5.5164375,101.615122 C5.7796875,99.8362683 6.0834375,98.0557317 6.4074375,96.276878 C6.7365,94.5013902 6.36525,96.2348049 6.7365,94.5013902 L10.1435625,94.6057317 C12.0774375,94.8362927 13.8375,93.4815366 14.1091875,91.5680488 L14.252625,90.5465122 C15.082875,84.9188049 16.4480625,79.4543415 18.3465,74.3113171 C18.977625,74.7084878 19.639125,75.2638537 20.331,76.0329512 C23.601375,79.6680732 27.2986875,86.8979268 33.64875,92.5677073 C33.6504375,93.378878 33.6605625,94.185 33.6841875,94.9843902 C33.8023125,99.015 34.13475,102.948 34.563375,106.847341 C35.434125,114.634244 36.709875,122.273049 38.1729375,129.849585 L38.259,130.293878 C38.275875,130.386439 38.3045625,130.477317 38.3416875,130.55978 L40.4881875,135.428488 C41.185125,137.008756 43.034625,137.725683 44.620875,137.032317 C46.051875,136.40122 46.7758125,134.836098 46.3910625,133.377 L45.1996875,128.848244 C44.6985,121.31378 44.391375,113.784366 44.4875625,106.355927 C44.523,103.897171 44.6090625,101.455244 44.7575625,99.0419268 C47.25,99.8413171 50.004,100.356293 53.0668125,100.490927 C53.1106875,100.494293 53.152875,100.497659 53.193375,100.497659 C53.54775,100.514488 53.9038125,100.52122 54.26325,100.524585 C56.1195,100.524585 57.9200625,100.287293 59.643,99.8413171 C59.805,102.194049 60.0193125,104.531634 60.2724375,106.849024 C61.1431875,114.635927 62.420625,122.274732 63.882,129.851268 L63.9680625,130.295561 C63.9849375,130.388122 64.013625,130.479 64.0524375,130.561463 L66.19725,135.430171 C66.895875,137.010439 68.7470625,137.727366 70.331625,137.034 C71.762625,136.402902 72.4865625,134.83778 72.1018125,133.378683 L70.90875,128.849927 C70.4075625,121.315463 70.1004375,113.786049 70.196625,106.35761 C70.250625,102.629927 70.405875,98.9258049 70.750125,95.3260244 C70.8429375,94.370122 70.9509375,93.4159024 71.0724375,92.4801951 C71.816625,91.5798293 72.4933125,90.6171951 73.092375,89.6040732 C72.5776875,89.5704146 72.073125,89.4862683 71.580375,89.355 C71.6934375,88.7727073 71.8149375,88.2005122 71.9465625,87.6687073 C72.0444375,87.2934146 72.1456875,86.9349512 72.248625,86.6269756 C72.29925,86.4721463 72.35325,86.3274146 72.3954375,86.2163415 C72.4224375,86.1641707 72.4426875,86.1170488 72.457875,86.0918049 C72.4663125,86.0783415 72.471375,86.0716098 72.47475,86.0850732 C72.47475,86.088439 72.471375,86.0985366 72.4663125,86.1187317 L72.451125,86.1641707 L72.424125,86.2365366 C72.40725,86.271878 72.4005,86.2920732 72.40725,86.2786098 L72.410625,86.2651463 C73.949625,83.0928293 72.6148125,79.2725854 69.433875,77.741122 C67.4780625,76.797 65.2809375,76.9383659 63.5191875,77.924561 C63.4516875,77.2867317 63.4145625,76.6421707 63.4145625,75.9858293 C63.4145625,68.4547317 67.962375,62.3473902 73.5733125,62.3473902 C74.0120625,62.3473902 74.442375,62.3877805 74.8659375,62.4601463 C73.4619375,52.2498293 70.878375,39.8416098 66.3204375,35.2960244 C66.3204375,35.2960244 42.6465,44.6514146 30.108375,40.7503902 C28.57275,40.2455122 26.9409375,39.972878 25.2433125,39.972878 C18.295875,39.972878 12.366,44.5470732 10.0220625,50.9893171 C10.2178125,51.0246585 10.4101875,51.0717805 10.5991875,51.129 C13.122,51.8863171 14.9731875,54.326561 14.9731875,57.2262439 C14.9731875,60.3144146 12.875625,62.8842439 10.101375,63.4530732 C9.7250625,63.5288049 9.3403125,63.570878 8.9454375,63.570878 C8.251875,63.570878 7.5886875,63.4412927 6.97275,63.2140976 C6.456375,65.8226341 6.0800625,68.4210732 5.8235625,71.0110976 C5.1789375,77.5947073 5.693625,86.9517805 5.693625,86.9517805 L4.1175,87.1419512 L3.35475,87.237878 C1.8984375,87.4129024 0.8218125,88.6246098 0.772875,90.0416341 L0.772875,90.0416341 C0.648,91.9382927 0.5585625,93.7726829 0.489375,95.6390488 C0.4185,97.497 0.374625,99.36 0.3695625,101.229732 L0.3695625,101.229732 Z M10.7274375,77.5896585 C10.7274375,77.5896585 10.776375,77.4937317 10.86075,77.3372195 L10.7274375,77.5896585 L10.7274375,77.5896585 Z" id="Shape" fill="#DFDCD5"></path>
                    <path id="Shape" fill="#DFDCD5" d="M10.8624375,77.3355366 L10.729125,77.5879756 C10.7274375,77.5896585 10.7780625,77.4937317 10.8624375,77.3355366 L10.8624375,77.3355366 Z"></path>
                    <path d="M63.412875,75.9774146 C63.412875,68.4463171 67.9606875,62.3389756 73.571625,62.3389756 C74.010375,62.3389756 74.4406875,62.3793659 74.86425,62.4517317 C75.5274375,67.2649024 75.9256875,71.5917073 76.143375,74.3752683 C76.285125,75.4270976 76.3644375,76.499122 76.3644375,77.5862927 C76.3644375,81.9905122 75.168,86.1019024 73.092375,89.5956585 C67.705875,89.2590732 63.412875,83.2930976 63.412875,75.9774146 L63.412875,75.9774146 Z" id="Shape" fill="#3E3E3D"></path>
                    <path d="M7.4165625,61.0784634 C7.792875,59.4157317 8.231625,57.7513171 8.751375,56.0700732 C8.8475625,55.7604146 8.9505,55.4490732 9.055125,55.1394146 C9.2120625,53.6887317 9.5394375,52.2952683 10.020375,50.9792195 C10.216125,51.014561 10.4085,51.0616829 10.5975,51.1189024 C13.1203125,51.8762195 14.9715,54.3164634 14.9715,57.2161463 C14.9715,60.3043171 12.8739375,62.8741463 10.0996875,63.4429756 C9.723375,63.5187073 9.338625,63.5607805 8.94375,63.5607805 C8.2501875,63.5607805 7.587,63.4311951 6.9710625,63.204 C7.1094375,62.4988537 7.2545625,61.7886585 7.4165625,61.0784634 L7.4165625,61.0784634 Z" id="Shape" fill="#3E3E3D"></path>
                    <path d="M27.6226875,35.4171951 L27.6226875,35.4171951 C28.4563125,31.0769268 30.817125,27.2028293 34.1938125,24.2358293 C27.2311875,17.0615122 28.7415,3.92626829 29.39625,1.932 C30.07125,-0.131268293 31.46175,1.29753659 31.46175,1.29753659 L44.755875,18.9211463 C46.598625,18.5020976 48.52575,18.2765854 50.517,18.2765854 C53.5528125,18.2765854 56.45025,18.7999756 59.1080625,19.7390488 L59.106375,19.7390488 L75.3384375,1.45573171 C75.3384375,1.45573171 76.92975,-0.605853659 78.0451875,1.45573171 C79.1218125,3.45168293 83.9210625,29.4360732 72.856125,33.2445366 C73.4315625,35.0435854 73.747125,36.9419268 73.747125,38.9042195 C73.747125,48.5810488 66.247875,56.696122 56.1279375,58.9226341 C49.32225,68.0592439 38.48175,73.1803902 35.980875,73.1803902 C33.334875,73.1803902 21.8784375,66.9922683 22.197375,63.8165854 C22.5129375,60.6459512 27.6226875,35.4171951 27.6226875,35.4171951 L27.6226875,35.4171951 Z" id="Shape" fill="#FFFFFF"></path>
                    <path d="M60.7030075,23.3942118 C56.8957664,17.8233952 49.4482953,18.3227288 44.0686152,24.5095045 C38.6889352,30.6962802 37.4142215,40.227692 41.2214626,45.7985085 C45.0287037,51.3693251 52.4761748,50.8699916 57.8558549,44.6832159 C63.235535,38.4964402 64.5102486,28.9650284 60.7030075,23.3942118 L60.7030075,23.3942118 Z" id="Oval" fill="#3E3E3D"></path>
                    <ellipse id="Oval" fill="#DEC6A5" cx="50.3566875" cy="36.2081707" rx="4.3756875" ry="4.36382927"></ellipse>
                    <ellipse id="Oval" fill="#3E3E3D" cx="50.3566875" cy="36.2081707" rx="2.54475" ry="2.53785366"></ellipse>
                    <path d="M27.570375,35.7958537 C27.273375,37.1657561 27.0050625,38.271439 28.3786875,38.5659512 C29.7523125,38.8604634 31.107375,37.9887073 31.404375,36.6188049 C31.701375,35.2472195 30.823875,33.8975122 29.4519375,33.6013171 C28.0749375,33.3084878 27.864,34.4242683 27.570375,35.7958537 L27.570375,35.7958537 Z" id="Shape" fill="#3E3E3D"></path>
                    <ellipse id="Oval" fill="#3E3E3D" cx="27.286875" cy="64.2945366" rx="5.0979375" ry="3.174"></ellipse>
                    <path d="M34.5211875,72.2480488 C36.0500625,72.2480488 41.6086875,71.3863902 52.23825,60.858 C52.4863125,60.6106098 52.4863125,60.2083902 52.241625,59.961 C51.9935625,59.7119268 51.5885625,59.7119268 51.3405,59.9559512 C40.4139375,70.7822195 35.150625,71.0060488 34.4199375,70.979122 L26.3469375,65.9757805 C26.04825,65.7923415 25.65675,65.8832195 25.471125,66.1810976 C25.2871875,66.4806585 25.376625,66.8710976 25.6753125,67.0562195 L33.9710625,72.1925122 L34.0858125,72.219439 C34.1195625,72.2244878 34.263,72.2480488 34.5211875,72.2480488 L34.5211875,72.2480488 Z" id="Shape" fill="#3E3E3D"></path>
                    <ellipse id="Oval" fill="#FFFFFF" cx="49.032" cy="35.3599756" rx="0.7965" ry="0.794341463"></ellipse>
                    <ellipse id="Oval" fill="#FFFFFF" cx="28.59975" cy="35.3616585" rx="0.7965" ry="0.794341463"></ellipse>
                    <path d="M19.52775,41.4723659 C19.5631875,41.5009756 19.51425,41.4790976 19.4889375,41.4706829 L19.37925,41.421878 C19.29825,41.3814878 19.2088125,41.3343659 19.119375,41.2821951 C18.9405,41.1795366 18.7531875,41.0617317 18.56925,40.9338293 C18.194625,40.6780244 17.82675,40.386878 17.472375,40.0721707 C16.7585625,39.4377073 16.102125,38.7022683 15.5233125,37.8927805 C14.3623125,36.272122 13.5135,34.340122 13.003875,32.244878 C12.490875,30.1496341 12.3204375,27.899561 12.4081875,25.6175122 C12.4959375,23.3354634 12.8469375,21.0180732 13.3734375,18.7175122 L13.375125,18.7124634 C13.5118125,18.1116585 13.1355,17.5108537 12.5330625,17.3745366 C11.9964375,17.2516829 11.4615,17.5360976 11.25225,18.0241463 C10.2785625,20.2927317 9.4584375,22.6622927 8.899875,25.1462927 C8.346375,27.6286098 8.0510625,30.2304146 8.20125,32.9045854 C8.34975,35.5703415 8.95725,38.3118293 10.1570625,40.8900732 C10.7544375,42.1775122 11.4969375,43.4178293 12.3879375,44.5824146 C12.8334375,45.1647073 13.3194375,45.7268049 13.847625,46.2653415 C14.1159375,46.5346098 14.3926875,46.8005122 14.691375,47.0647317 C14.8449375,47.196 14.9968125,47.3255854 15.163875,47.4568537 L15.4254375,47.6588049 C15.525,47.7311707 15.6043125,47.7917561 15.7696875,47.8960976 C17.546625,48.9310976 19.8315,48.3319756 20.867625,46.5598537 C21.907125,44.7826829 21.306375,42.5056829 19.52775,41.4723659 L19.52775,41.4723659 Z" id="Shape" fill="#DFDCD5"></path>
                </g>
            </g>
        </g>
    </g>
</svg>