<?xml version="1.0" encoding="UTF-8" standalone="no"?>
<svg width="104px" height="101px" viewBox="0 0 104 101" version="1.1" xmlns="http://www.w3.org/2000/svg" xmlns:xlink="http://www.w3.org/1999/xlink" xmlns:sketch="http://www.bohemiancoding.com/sketch/ns">
    <!-- Generator: Sketch 3.3.3 (12081) - http://www.bohemiancoding.com/sketch -->
    <title>Imported Layers Copy 2 + Imported Layers Copy</title>
    <desc>Created with Sketch.</desc>
    <defs></defs>
    <g id="HOME" stroke="none" stroke-width="1" fill="none" fill-rule="evenodd" sketch:type="MSPage">
        <g id="Homepage-2" sketch:type="MSArtboardGroup" transform="translate(-1082.000000, -375.000000)">
            <g id="Imported-Layers-Copy-2-+-Imported-Layers-Copy" sketch:type="MSLayerGroup" transform="translate(1134.000000, 425.500000) scale(-1, 1) translate(-1134.000000, -425.500000) translate(1082.000000, 375.000000)">
                <path d="M96.1340069,91.0573305 C96.1340069,96.217145 75.0259141,100.399371 48.9883726,100.399371 C22.9508312,100.399371 1.84227559,96.217145 1.84227559,91.0573305 C1.84227559,85.89848 22.9508312,81.7181818 48.9883726,81.7181818 C75.0259141,81.7181818 96.1340069,85.89848 96.1340069,91.0573305" id="Imported-Layers-Copy-2" fill="#3F9580" sketch:type="MSShapeGroup"></path>
                <g id="Imported-Layers" sketch:type="MSShapeGroup">
                    <path d="M29.3622857,66.7217434 C29.3622857,66.7217434 32.4651429,85.0229434 35.1691429,87.1988264 C37.8731429,89.3752811 27.3302857,89.5965283 26.6971429,87.1988264 C26.0634286,84.8016962 19.748,67.9600415 19.748,67.9600415 L29.3622857,66.7217434" id="Fill-1" fill="#D1C699"></path>
                    <path d="M15.7805714,34.7523849 C15.3994286,34.7523849 7.14971429,28.251034 8.79885714,26.8029226 C10.4497143,25.3548113 11.8457143,23.9581528 14.2571429,30.0484528 C20.7308571,31.5771736 21.3662857,13.7779245 7.53085714,19.1221585 C-6.30571429,24.4663925 2.45257143,40.8484019 11.656,40.1886623 C15.0194286,39.0698491 15.7805714,34.7523849 15.7805714,34.7523849" id="Fill-2" fill="#A3825A"></path>
                    <path d="M9.03542857,46.1417547 C8.724,45.074966 8.548,43.9521509 8.548,42.7864585 C8.548,36.1198868 14.0102857,30.7150528 20.7485714,30.7150528 C22.5725714,30.7150528 24.2971429,31.1221019 25.8514286,31.8327226 C27.3794286,29.4990509 30.1588571,27.9314547 33.3445714,27.9314547 C35.2108571,27.9314547 36.9371429,28.4717094 38.356,29.3847113 C39.692,26.9378434 42.24,25.2804906 45.1674286,25.2804906 C46.3068571,25.2804906 47.3862857,25.537183 48.3611429,25.9871094 C48.5062857,25.6475208 48.6331429,25.2993566 48.7194286,24.9369 C50.7502857,16.3391321 88.0674286,31.9584962 89.3371429,40.8484019 C90.6068571,49.7371642 86.4325714,65.7378509 84.8388571,68.1509887 C83.2445714,70.5641264 88.0371429,84.228283 91.0502857,87.707066 C94.0634286,91.1858491 82.0582857,90.7696528 81.3462857,88.214734 C80.6348571,85.6598151 75.8822857,77.1660962 74.3594286,67.896583 C73.5977143,69.8014811 64.1091429,70.6899 64.1091429,70.6899 C64.1091429,70.6899 64.0262857,85.8147453 67.3782857,88.214734 C70.7302857,90.6141509 59.2251429,91.5317264 58.692,88.214734 C58.1588571,84.8971698 55.1925714,74.8804472 53.9234286,71.8327245 C51.2577143,69.2938132 22.572,65.610934 22.0634286,69.9283981 C20.16,76.0232717 22.1565714,84.7994094 24.7291429,86.9444208 C27.3017143,89.0894321 15.308,90.5489774 14.8285714,87.1988264 C14.3491429,83.8492472 5.31542857,66.514217 9.03542857,46.1417547" id="Fill-3" fill="#E9E1B8"></path>
                    <path d="M70.1074286,8.71896792 C59.2542857,8.71896792 54.7571429,5.09954717 49.7708571,8.71896792 C41.3571429,22.6243811 50.7817143,40.5305377 59.9685714,45.292783 C69.1554286,50.0544566 83.0542857,50.8165302 91.2411429,41.6733623 C99.428,32.5296226 97.524,9.67141698 95.0485714,7.76651887 C92.5737143,5.86162075 80.96,8.71896792 70.1074286,8.71896792" id="Fill-4" fill="#E9E1B8"></path>
                    <path d="M58.752,1.73510377 L61.184,7.76651887 L55.8268571,7.76651887 L58.752,1.73510377" id="Fill-5" fill="#AA9883"></path>
                    <path d="M91.2411429,41.6733623 C83.0542857,50.8165302 69.1554286,50.0544566 59.9685714,45.292783 C58.2017143,44.3769226 56.4251429,42.9739755 54.7691429,41.2074283 C54.7691429,41.2074283 69.4885714,28.8153 72.7257143,28.8153 C75.9617143,28.8153 77.4377143,28.3870981 79.8645714,28.8153 C82.2925714,29.2440736 91.2411429,41.6733623 91.2411429,41.6733623" id="Fill-6" fill="#A3825A"></path>
                    <path d="M58.752,1.73510377 C59.8251429,2.68755283 53.9874286,18.1171132 50.5605714,18.6882396 C47.1325714,19.259366 40.6594286,10.3065736 40.6594286,8.97337358 C40.6594286,7.64017358 57.6794286,0.782654717 58.752,1.73510377" id="Fill-7" fill="#A3825A"></path>
                    <path d="M85.6982857,1.73510377 L83.2662857,7.76651887 L88.6228571,7.76651887 L85.6982857,1.73510377" id="Fill-8" fill="#AA9883"></path>
                    <path d="M85.6982857,1.73510377 C84.6245714,2.68755283 90.4634286,18.1171132 93.8908571,18.6882396 C97.3177143,19.259366 103.790857,10.3065736 103.790857,8.97337358 C103.790857,7.64017358 86.7714286,0.782654717 85.6982857,1.73510377" id="Fill-9" fill="#A3825A"></path>
                    <path d="M81.168,27.3237396 C78.7697143,26.4661925 70.3925714,26.6674302 70.2977143,27.9314547 C70.2022857,29.1960509 75.724,33.3865981 77.152,33.2916962 C78.5805714,33.1967943 82.7994286,27.6438906 81.168,27.3237396" id="Fill-10" fill="#53341F"></path>
                    <path d="M68.3011429,48.1701396 L68.6788571,47.9357434 C70.9788571,46.9684302 73.6948571,46.3104057 76.5628571,45.9908264 C76.4154286,43.0311453 76.4228571,32.068834 76.4228571,32.068834 L78.0097143,31.5931811 C78.0097143,31.5931811 78.036,42.8825038 77.8691429,45.8690547 C78.7331429,45.8055962 79.6051429,45.7655774 80.4834286,45.7655774 C81.9131429,45.7655774 83.3382857,45.8490453 84.7188571,46.0154094 L85.0291429,46.3772943 C85.0291429,46.3772943 84.904,46.4756264 84.6457143,46.6294132 C84.6457143,46.6294132 84.4931429,46.7614755 84.4268571,46.7540434 C83.4462857,47.2931547 81.2,48.3250698 77.1874286,48.6618 C73.5742857,48.9648 70.964,48.6435057 69.5428571,48.4182566 C68.9514286,48.3462226 68.3011429,48.1701396 68.3011429,48.1701396" id="Fill-11" fill="#53341F"></path>
                    <path d="M81.5365714,14.8149849 C75.3108571,19.8945226 63.1257143,14.8149849 63.1257143,14.8149849 L81.5365714,14.8149849" id="Fill-12" fill="#A3825A"></path>
                    <path d="M80.7394286,23.3441491 C80.7394286,26.5582358 84.2691429,29.1628925 88.624,29.1628925 C92.9777143,29.1628925 96.5074286,26.5582358 96.5074286,23.3441491 C96.5074286,20.130634 92.9777143,17.5254057 88.624,17.5254057 C84.2691429,17.5254057 80.7394286,20.130634 80.7394286,23.3441491" id="Fill-13" fill="#A3825A"></path>
                    <path d="M50.9977143,22.4357208 C50.9977143,25.6498075 54.5285714,28.2544642 58.8822857,28.2544642 C63.2365714,28.2544642 66.7657143,25.6498075 66.7657143,22.4357208 C66.7657143,19.2222057 63.2365714,16.6169774 58.8822857,16.6169774 C54.5285714,16.6169774 50.9977143,19.2222057 50.9977143,22.4357208" id="Fill-14" fill="#A3825A"></path>
                    <path d="M83.7205714,22.4340057 C83.7205714,23.8163717 85.02,24.9369 86.624,24.9369 C88.228,24.9369 89.528,23.8163717 89.528,22.4340057 C89.528,21.0522113 88.228,19.931683 86.624,19.931683 C85.02,19.931683 83.7205714,21.0522113 83.7205714,22.4340057" id="Fill-15" fill="#2D1306"></path>
                    <path d="M86.836,20.9796057 C86.836,21.5581642 87.38,22.0275283 88.0514286,22.0275283 C88.7234286,22.0275283 89.268,21.5581642 89.268,20.9796057 C89.268,20.4004755 88.7234286,19.931683 88.0514286,19.931683 C87.38,19.931683 86.836,20.4004755 86.836,20.9796057" id="Fill-16" fill="#FFFFFF"></path>
                    <path d="M64.2994286,21.6244811 C64.2994286,23.0062755 62.9994286,24.1273755 61.396,24.1273755 C59.7931429,24.1273755 58.4925714,23.0062755 58.4925714,21.6244811 C58.4925714,20.2421151 59.7931429,19.1221585 61.396,19.1221585 C62.9994286,19.1221585 64.2994286,20.2421151 64.2994286,21.6244811" id="Fill-17" fill="#2D1306"></path>
                    <path d="M61.184,20.1700811 C61.184,20.7486396 60.6394286,21.2180038 59.9685714,21.2180038 C59.2971429,21.2180038 58.752,20.7486396 58.752,20.1700811 C58.752,19.5909509 59.2971429,19.1221585 59.9685714,19.1221585 C60.6394286,19.1221585 61.184,19.5909509 61.184,20.1700811" id="Fill-18" fill="#FFFFFF"></path>
                    <path d="M37.9902857,35.2080283 L38.7217143,34.9947849 C37.4657143,30.6698887 38.5737143,29.6991453 38.5845714,29.6899981 L38.14,29.0714208 C37.9754286,29.1851887 36.572,30.3228679 37.9902857,35.2080283" id="Fill-19" fill="#A3825A"></path>
                    <path d="M25.8868571,37.4159264 L26.6182857,37.2032547 C25.3617143,32.8777868 26.4691429,31.9064717 26.4811429,31.8978962 L26.0365714,31.2787472 C25.8714286,31.3936585 24.4685714,32.5313377 25.8868571,37.4159264" id="Fill-20" fill="#A3825A"></path>
                    <path d="M57.396,5.90163962 C55.9217143,4.71365094 53.0902857,2.72471321 51.1177143,3.11461132 C50.864,3.16492075 50.6245714,3.25239057 50.4085714,3.37416226 C49.5142857,3.88183019 49.2588571,4.59588113 49.2011429,5.10640755 C49.0474286,6.49963585 50.1868571,7.95632264 50.868,8.68981132 C50.5165714,9.62853962 50.0165714,11.4070925 50.6874286,12.6385302 C50.9354286,13.0884566 51.4422857,13.6521509 52.4634286,13.7802113 C52.708,13.8116547 52.9628571,13.8013642 53.2182857,13.7516264 C55.1954286,13.3605849 57.0611429,10.428917 57.9737143,8.77270755 C57.6102857,8.42054151 57.3428571,7.95517925 57.2371429,7.41835472 C57.132,6.88553208 57.1994286,6.36128491 57.396,5.90163962" id="Fill-21" fill="#FF5C7F"></path>
                    <path d="M61.3891429,5.10297736 C61.3817143,5.11498302 61.3731429,5.13041887 61.3668571,5.14471132 C60.8051429,4.59588113 60.0017143,4.32146604 59.1862857,4.48154151 C58.3725714,4.64276038 57.7365714,5.20302453 57.4234286,5.92279245 C57.4154286,5.91650377 57.4062857,5.9090717 57.396,5.90163962 C57.1994286,6.36128491 57.132,6.88553208 57.2371429,7.41835472 C57.3445714,7.95575094 57.6102857,8.42054151 57.9737143,8.77270755 C57.9771429,8.76699057 57.9788571,8.75898679 57.984,8.75498491 C58.5457143,9.3032434 59.3474286,9.57708679 60.1611429,9.41701132 C60.9765714,9.25579245 61.612,8.6972434 61.9257143,7.97576038 C61.9325714,7.98262075 61.9417143,7.98776604 61.9502857,7.99519811 C62.1571429,7.52983585 62.228,6.99472642 62.1217143,6.4527566 C62.0142857,5.91650377 61.7497143,5.454 61.3891429,5.10297736 M59.8365714,7.77509434 C59.3931429,7.86142075 58.9577143,7.56299434 58.8685714,7.10849434 C58.7777143,6.65342264 59.0657143,6.2120717 59.5108571,6.12403019 C59.956,6.03598868 60.3897143,6.33441509 60.4805714,6.78948679 C60.5702857,7.24513019 60.2811429,7.68590943 59.8365714,7.77509434" id="Fill-22" fill="#FFC289"></path>
                    <path d="M68.48,5.20931321 C68.832,4.27058491 69.3308571,2.49146038 68.6605714,1.26059434 C68.4142857,0.809524528 67.9057143,0.246401887 66.884,0.117769811 C66.6394286,0.0863264151 66.3845714,0.0971886792 66.132,0.146926415 C64.1628571,0.536824528 62.3057143,3.44105094 61.3891429,5.10297736 C61.7497143,5.454 62.0142857,5.91650377 62.1217143,6.4527566 C62.228,6.99472642 62.1571429,7.52983585 61.9502857,7.99519811 C63.4257143,9.18261509 66.2565714,11.1732679 68.2308571,10.7833698 C68.4862857,10.7330604 68.7245714,10.6455906 68.9405714,10.5243906 C69.836,10.0172943 70.0902857,9.3021 70.1474286,8.79214528 C70.3022857,7.39891698 69.1605714,5.94280189 68.48,5.20931321" id="Fill-23" fill="#FF305E"></path>
                    <path d="M59.4211429,7.74650943 C59.5525714,7.78995849 59.6942857,7.80253585 59.8365714,7.77509434 C60.2811429,7.68590943 60.5702857,7.24513019 60.4805714,6.78948679 C60.4531429,6.64884906 60.3931429,6.52536226 60.3091429,6.42188491 L59.4211429,7.74650943" id="Fill-24" fill="#FF305E"></path>
                    <path d="M61.3668571,5.14471132 C61.3245714,5.10469245 61.2834286,5.06810377 61.2405714,5.0298 L60.3091429,6.42188491 C60.3931429,6.52536226 60.4537143,6.64999245 60.4805714,6.78948679 C60.5702857,7.24513019 60.2811429,7.68590943 59.8365714,7.77509434 C59.6942857,7.80253585 59.5525714,7.78995849 59.4211429,7.74650943 L58.4908571,9.13630755 C58.9834286,9.41929811 59.5691429,9.53363774 60.1611429,9.41701132 C60.9765714,9.25579245 61.612,8.6972434 61.9257143,7.97518868 C61.9325714,7.98262075 61.9417143,7.98776604 61.9502857,7.99519811 C62.1571429,7.52983585 62.228,6.99472642 62.1217143,6.4527566 C62.0142857,5.91650377 61.7497143,5.454 61.3891429,5.10297736 C61.3817143,5.11498302 61.3731429,5.13041887 61.3668571,5.14471132" id="Fill-25" fill="#FFB36B"></path>
                    <path d="M59.8748571,7.96604151 C59.328,8.07294906 58.7914286,7.70534717 58.6805714,7.14508302 C58.5697143,6.58481887 58.9245714,6.04113396 59.4725714,5.93308302 C60.0217143,5.82446038 60.556,6.19206226 60.668,6.75232642 C60.7777143,7.31373396 60.4222857,7.85627547 59.8748571,7.96604151" id="Fill-26" fill="#EBAA75"></path>
                </g>
            </g>
        </g>
    </g>
</svg>