<?xml version="1.0" encoding="UTF-8" standalone="no"?>
<svg width="1443px" height="672px" viewBox="0 0 1443 672" version="1.1" xmlns="http://www.w3.org/2000/svg" xmlns:xlink="http://www.w3.org/1999/xlink" xmlns:sketch="http://www.bohemiancoding.com/sketch/ns">
    <!-- Generator: Sketch 3.3.3 (12081) - http://www.bohemiancoding.com/sketch -->
    <title>Group</title>
    <desc>Created with Sketch.</desc>
    <defs></defs>
    <g id="HOME" stroke="none" stroke-width="1" fill="none" fill-rule="evenodd" sketch:type="MSPage">
        <g id="Group" sketch:type="MSLayerGroup">
            <path d="M1.54668452,263.165169 C1.54668452,263.165169 62.8892438,255.343789 103.832206,257.094275 C162.612676,259.60739 236.231476,270.464383 327.807204,292.098246 C327.807204,292.098246 936.428861,68.4657289 1150.67969,89.9275232 C1270.09469,101.889485 1442.43892,170.175419 1442.43892,170.175419 L1441.67857,672 L0.664062559,670.276042 L1.54668452,263.165169 Z" id="Rectangle-path-Copy-12" fill="#3CC6CA" sketch:type="MSShapeGroup"></path>
            <path d="M2.15053115,372.50914 C2.15053115,372.50914 -17.8861883,350.846567 404.37533,333.266034 C492.648077,329.590866 555.439289,335.291928 640.692022,333.266034 C963.254269,325.600863 1130.55982,372.509141 1294.78632,372.50914 C1380.97046,374.376549 1442,372.50914 1442,372.50914 L1442,672 L2.15053115,672 L2.15053115,372.50914 Z" id="Rectangle-path-Copy-13" fill="#4DB69E" sketch:type="MSShapeGroup"></path>
            <path d="M2,0 L1442,0 L1442,395.112457 L1442,672 L2,672 L2,0 Z" id="Rectangle-path-Copy-14" opacity="0.34217584" fill="#8CE071" sketch:type="MSShapeGroup"></path>
            <path d="M671.697977,123.969827 C670.029671,98.4048969 634.389015,91.5151747 618.544807,106.122189 C619.334315,94.9824663 614.423386,83.9005913 602.862731,79.771008 C594.446009,76.764133 585.054151,81.0212163 579.061173,86.8637858 C577.802895,88.0868413 576.740818,89.4137858 575.839698,90.810383 C573.512294,78.7226747 564.377731,68.6903136 549.98213,68.0268413 C532.416747,67.2181608 523.332703,84.8332302 524.889397,100.483855 C520.149998,93.5669802 513.170135,88.866008 503.764179,90.2838552 C498.174179,91.1255913 492.908441,94.1903136 489.030217,98.4096191 C485.445709,102.142536 483.020791,107.146911 482.279452,112.30948 C471.979425,109.055869 458.621228,111.997814 458.024397,124.854064 C457.244288,141.665175 475.33131,149.494619 489.447294,149.946772 C491.359971,150.008161 493.26325,149.8783 495.15243,149.618577 C502.715026,150.293855 510.836856,148.056702 518.659097,144.634272 C519.579015,144.922327 520.480135,145.184411 521.334261,145.389827 C527.933468,146.978855 534.652512,146.127675 540.829944,143.662675 C545.877157,145.903369 551.18519,147.517189 555.699015,148.740244 C576.132239,154.275869 600.064206,152.638439 616.578086,139.049064 C633.148359,154.019689 673.327512,148.914966 671.697977,123.969827" id="Imported-Layers-Copy-17" opacity="0.68" fill="#FFFFFF" sketch:type="MSShapeGroup"></path>
            <path d="M433.333849,78.314148 C432.480297,65.3813008 414.245542,61.8959119 406.139204,69.2853424 C406.543138,63.6499536 404.03057,58.0438286 398.115816,55.9547452 C393.809586,54.4336202 389.00445,56.5872036 385.938275,59.5428563 C385.294504,60.1615786 384.751116,60.8328563 384.290078,61.5393702 C383.099313,55.4244119 378.425816,50.3492174 371.060624,50.0135786 C362.073685,49.6044813 357.426034,58.5156341 358.222482,66.4330091 C355.797674,62.9338841 352.226581,60.5557452 347.414231,61.2730091 C344.554231,61.6988286 341.860133,63.2492174 339.875925,65.3836897 C338.041991,67.2721063 336.801335,69.8037313 336.422045,72.4153841 C331.152264,70.7694397 324.317838,72.2577174 324.012482,78.7614674 C323.613357,87.2659119 332.867182,91.2266897 340.089313,91.4554258 C341.067892,91.4864813 342.041663,91.4207869 343.00822,91.289398 C346.877455,91.6310091 351.03281,90.499273 355.034887,88.7679258 C355.505542,88.913648 355.966581,89.0462313 356.403575,89.150148 C359.779914,89.9540091 363.217564,89.5234119 366.378111,88.2764119 C368.960406,89.4099397 371.676144,90.2263424 373.985542,90.8450647 C384.43975,93.6454397 396.684012,92.8170924 405.132974,85.9424674 C413.610788,93.5158424 434.167564,90.9334536 433.333849,78.314148" id="Imported-Layers-Copy-18" opacity="0.5" fill="#FFFFFF" sketch:type="MSShapeGroup"></path>
            <text id="*-copy" sketch:type="MSTextLayer" font-family="Montserrat" font-size="24" font-weight="260" fill="#2BB08E">
                <tspan x="747" y="598">*</tspan>
            </text>
        </g>
    </g>
</svg>