<?xml version="1.0" encoding="UTF-8" standalone="no"?>
<svg width="1441px" height="743px" viewBox="0 0 1441 743" version="1.1" xmlns="http://www.w3.org/2000/svg" xmlns:xlink="http://www.w3.org/1999/xlink" xmlns:sketch="http://www.bohemiancoding.com/sketch/ns">
    <!-- Generator: Sketch 3.3.3 (12081) - http://www.bohemiancoding.com/sketch -->
    <title>Group</title>
    <desc>Created with Sketch.</desc>
    <defs>
        <linearGradient x1="50%" y1="66.1815694%" x2="50%" y2="-14.5571634%" id="linearGradient-1">
            <stop stop-color="#97F4EC" offset="0%"></stop>
            <stop stop-color="#53CFDC" offset="100%"></stop>
        </linearGradient>
    </defs>
    <g id="HOME" stroke="none" stroke-width="1" fill="none" fill-rule="evenodd" sketch:type="MSPage">
        <g id="Group" sketch:type="MSLayerGroup">
            <g id="Rectangle-path-Copy-4" fill="url(#linearGradient-1)" sketch:type="MSShapeGroup">
                <rect id="Rectangle-path-Copy" x="-3.26468526e-14" y="2.81022693e-15" width="1440.73716" height="505.905872"></rect>
            </g>
            <g id="Rectangle-path-Copy-11-+-Rectangle-path-Copy-12" transform="translate(0.000000, 385.000000)" sketch:type="MSShapeGroup">
                <path d="M1,43.8636081 C1,43.8636081 -7.90725475,20.4072079 408.609375,1.37087147 C495.681167,-2.60862851 557.618102,3.56452513 641.710967,1.37087182 C959.884739,-6.92903501 1124.91409,43.8636093 1286.90628,43.8636081 C1371.91788,45.8856526 1441,43.8636081 1441,43.8636081 L1441,357 L1,357 L1,43.8636081 Z" id="Rectangle-path-Copy-11" fill="#4DB69E"></path>
                <path d="M0.999999946,238.023436 C0.999999946,238.023436 115.371057,209.40485 307.859375,185.703125 C500.347692,162.0014 623.528905,154.065323 701.206506,151.804687 C995.107484,143.251348 1337.375,238.023434 1337.375,238.023434 L1440.00751,185.703124 L1440.00749,358 L0.999999946,358.000011 L0.999999946,238.023436 Z" id="Rectangle-path-Copy-12" opacity="0.325314832" fill="#37BC9E"></path>
            </g>
            <path d="M1297.10978,263.191176 C1295.96912,245.746871 1271.60086,241.045649 1260.76784,251.012787 C1261.30765,243.411565 1257.94994,235.849815 1250.04568,233.031982 C1244.29099,230.980232 1237.86958,233.885065 1233.77206,237.87176 C1232.91175,238.706315 1232.18558,239.61176 1231.56947,240.564732 C1229.97817,232.316649 1223.73268,225.471037 1213.89011,225.018315 C1201.88029,224.46651 1195.66934,236.486204 1196.73368,247.165454 C1193.49325,242.445704 1188.72098,239.237982 1182.28993,240.205454 C1178.46793,240.779815 1174.86763,242.871037 1172.21601,245.750093 C1169.76521,248.29726 1168.10724,251.71201 1167.60037,255.234704 C1160.55803,253.014593 1151.42475,255.022037 1151.01668,263.794537 C1150.4833,275.265649 1162.84978,280.608093 1172.50117,280.916621 C1173.80891,280.95851 1175.11022,280.869899 1176.40189,280.692676 C1181.5726,281.153454 1187.12566,279.626926 1192.47389,277.291621 C1193.10286,277.488176 1193.71898,277.66701 1194.30296,277.807176 C1198.81498,278.891454 1203.40893,278.310649 1207.63257,276.628649 C1211.08345,278.157593 1214.71266,279.258787 1217.79886,280.093343 C1231.76948,283.870593 1248.13227,282.753287 1259.42316,273.480537 C1270.7526,283.695787 1298.22393,280.212565 1297.10978,263.191176" id="Imported-Layers-Copy-10" fill="#FFFFFF" sketch:type="MSShapeGroup"></path>
            <path d="M1151.33385,202.314148 C1150.4803,189.381301 1132.24554,185.895912 1124.1392,193.285342 C1124.54314,187.649954 1122.03057,182.043829 1116.11582,179.954745 C1111.80959,178.43362 1107.00445,180.587204 1103.93827,183.542856 C1103.2945,184.161579 1102.75112,184.832856 1102.29008,185.53937 C1101.09931,179.424412 1096.42582,174.349217 1089.06062,174.013579 C1080.07368,173.604481 1075.42603,182.515634 1076.22248,190.433009 C1073.79767,186.933884 1070.22658,184.555745 1065.41423,185.273009 C1062.55423,185.698829 1059.86013,187.249217 1057.87593,189.38369 C1056.04199,191.272106 1054.80133,193.803731 1054.42205,196.415384 C1049.15226,194.76944 1042.31784,196.257717 1042.01248,202.761467 C1041.61336,211.265912 1050.86718,215.22669 1058.08931,215.455426 C1059.06789,215.486481 1060.04166,215.420787 1061.00822,215.289398 C1064.87746,215.631009 1069.03281,214.499273 1073.03489,212.767926 C1073.50554,212.913648 1073.96658,213.046231 1074.40358,213.150148 C1077.77991,213.954009 1081.21756,213.523412 1084.37811,212.276412 C1086.96041,213.40994 1089.67614,214.226342 1091.98554,214.845065 C1102.43975,217.64544 1114.68401,216.817092 1123.13297,209.942467 C1131.61079,217.515842 1152.16756,214.933454 1151.33385,202.314148" id="Imported-Layers-Copy-17" fill="#B8F0E4" sketch:type="MSShapeGroup"></path>
            <path d="M318.382296,140.680274 C317.59082,128.950482 300.68223,125.789315 293.165443,132.491357 C293.540001,127.38019 291.210165,122.295565 285.725575,120.400815 C281.732525,119.02119 277.276853,120.97444 274.433673,123.655149 C273.836722,124.216315 273.332853,124.825149 272.905345,125.46594 C271.801181,119.919815 267.467575,115.316732 260.638034,115.012315 C252.304689,114.641274 247.99505,122.723482 248.733575,129.904357 C246.485116,126.730732 243.173739,124.573815 238.711378,125.224357 C236.059378,125.610565 233.561214,127.016732 231.721312,128.952649 C230.020755,130.665399 228.870329,132.961524 228.518624,135.330232 C223.632099,133.837399 217.294722,135.187232 217.011575,141.085982 C216.641476,148.799315 225.222296,152.391649 231.919181,152.599107 C232.826591,152.627274 233.729542,152.56769 234.625804,152.448524 C238.21364,152.758357 242.066788,151.731899 245.777804,150.161607 C246.21423,150.293774 246.641739,150.414024 247.046952,150.508274 C250.177739,151.237357 253.365378,150.846815 256.296066,149.715815 C258.690558,150.743899 261.208788,151.484357 263.35023,152.045524 C273.044132,154.585399 284.397902,153.834107 292.232394,147.598982 C300.09364,154.467857 319.155378,152.12569 318.382296,140.680274" id="Imported-Layers-Copy-18" opacity="0.651702425" fill="#FFFFFF" sketch:type="MSShapeGroup"></path>
        </g>
    </g>
</svg>