<?xml version="1.0" encoding="UTF-8" standalone="no"?>
<svg width="125px" height="231px" viewBox="0 0 125 231" version="1.1" xmlns="http://www.w3.org/2000/svg" xmlns:xlink="http://www.w3.org/1999/xlink" xmlns:sketch="http://www.bohemiancoding.com/sketch/ns">
    <!-- Generator: Sketch 3.3.3 (12081) - http://www.bohemiancoding.com/sketch -->
    <title>Imported Layers + Imported Layers Copy 16</title>
    <desc>Created with Sketch.</desc>
    <defs>
        <path id="path-1" d="M6.48586452,11.0027021 C20.9877677,28.271691 50.0540903,27.0778859 50.0540903,27.0778859 C54.3721161,25.9133677 51.4614387,23.7439445 51.4614387,23.7439445 C19.6124129,22.4124913 4.95164516,1.83811569 4.95164516,1.83811569 C4.14665806,1.19636767 2.43445161,0.333503962 1.32460645,0.333503962 C-0.42363871,0.333870048 -0.673335484,2.47656894 6.48586452,11.0027021"></path>
        <path id="path-3" d="M1.05027097,1.92524406 C-0.291251613,4.14811569 0.0316258065,10.8811616 0.346412903,11.5694025 C0.660464516,12.2576434 2.06487097,12.9129366 2.41422581,13.012878 C2.76468387,13.1128193 4.79756129,11.54158 4.79756129,11.54158 C4.79756129,11.54158 5.80554194,13.8464548 11.637929,14.6295119 C17.4706839,15.4125689 22.5569226,12.2151775 22.5885484,9.68882092 C22.6201742,7.16283043 15.8724774,6.33987005 14.2272,5.74900792 C12.5819226,5.15777971 4.51145806,0.617220285 4.51145806,0.617220285 C4.16835484,0.425025357 3.74729032,0.235759113 3.27731613,0.235759113 C2.60729032,0.235759113 1.83797419,0.619416799 1.05027097,1.92524406"></path>
        <path id="path-5" d="M2.23182581,12.7123217 C11.0631484,33.2068906 7.93035484,75.2152108 7.93035484,75.2152108 C8.25470323,77.3092203 17.0613871,79.9410095 18.1995484,79.1590507 C19.3373419,78.3781902 11.7578129,73.7212155 11.7578129,73.7212155 C19.6046903,42.5973518 18.0804,10.2262345 18.0804,10.2262345 C18.2227161,5.31849128 10.6387742,0.32288748 5.34181935,0.323985737 C1.07454194,0.324717908 -1.70926452,3.56823613 2.23182581,12.7123217"></path>
        <path id="path-7" d="M20.7939677,1.0484691 C20.7939677,1.0484691 12.9651097,4.8180523 8.50770968,7.95760222 C4.04957419,11.0967861 -0.509690323,16.5097274 0.155554839,18.7574929 C0.821167742,21.0052583 7.3118129,20.6691918 10.6681935,18.8072805 C14.0245742,16.9457353 19.5517355,13.239851 20.3026645,12.0251791 C20.3026645,12.0251791 21.4948839,13.3950713 21.9814065,13.4170365 C22.4675613,13.4382694 25.2443806,12.0749667 25.4892968,11.2692124 C25.7342129,10.4638241 24.1345355,2.07424089 23.1225097,0.850782884 C22.8180194,0.482866878 22.4863161,0.354004754 22.1704258,0.354004754 C21.4371484,0.354004754 20.7939677,1.0484691 20.7939677,1.0484691"></path>
        <path id="path-9" d="M7.61593548,2.90818384 C7.61593548,2.90818384 9.64991613,50.8298843 7.09631613,70.5424945 C7.09631613,70.5424945 -1.46581935,75.1540745 0.272864516,76.756065 C2.01191613,78.3580555 11.3922774,71.0099857 11.3922774,71.0099857 C11.3922774,71.0099857 17.0084323,42.8261553 19.6620581,29.3684834 C22.7246129,13.8376688 23.8407097,4.45965452 24.6534194,1.86154517 C25.0145419,0.706911252 22.1329161,0.120442155 18.6228194,0.120442155 C14.2330839,0.120442155 8.86037419,1.03748653 7.61593548,2.90818384"></path>
        <path id="path-11" d="M4.58905161,3.43937401 C4.58905161,3.43937401 -2.97576774,10.84858 2.12187097,55.8584358 C2.12187097,55.8584358 22.9059097,67.1620602 42.7496323,50.157019 C42.7496323,50.157019 46.9518194,14.8323233 35.6753806,0.0622345483 C35.6753806,0.0622345483 9.03946452,0.308610143 4.58905161,3.43937401"></path>
        <path id="path-13" d="M20.9671742,0.713500792 C8.52205161,3.25742948 -1.56547742,18.7432155 0.460045161,31.830775 C2.48593548,44.9176022 7.56555484,50.4462266 9.56496774,50.11858 C11.5640129,49.7916656 11.8074581,46.6828669 11.8074581,46.6828669 C11.8074581,46.6828669 16.0695871,49.9498146 19.1019871,49.3981236 C24.9233419,48.339038 30.5093419,41.8973962 30.5093419,41.8973962 L35.0009419,41.8886101 C35.0009419,41.8886101 38.1160839,49.30587 40.9546839,48.9108637 C43.7918129,48.5169556 44.3088581,44.9003962 44.3088581,44.9003962 C44.3088581,44.9003962 47.8002,47.859832 48.8309806,45.6212187 C62.1972968,16.5796498 45.5503548,0.0801727417 27.1856903,0.0823692552 C25.1222903,0.0823692552 23.0335161,0.291038035 20.9671742,0.713500792"></path>
        <path id="path-15" d="M12.6484839,0.726313788 C12.6484839,0.726313788 5.14213548,1.43359113 3.00739355,3.10587005 C0.873387097,4.77924723 -0.0724451613,7.23311886 0.110690323,10.1530174 C0.293090323,13.0725499 4.34413548,22.9217163 6.85949032,27.4015055 C9.37484516,31.8794643 11.1271355,37.468859 11.1271355,37.468859 C11.1271355,37.468859 6.03207097,47.5369445 5.2395871,50.4129128 C5.2395871,50.4129128 15.8173161,55.9770475 26.4366,52.0807987 C37.0558839,48.1845499 38.5275871,45.6497734 38.5275871,45.6497734 C38.5275871,45.6497734 33.6608903,40.027065 29.2299677,34.0078859 C29.2299677,34.0078859 29.9110258,28.1109794 29.0733097,23.4986672 C29.0733097,23.4986672 33.3655935,20.4656482 32.7099097,16.6935024 C32.0534903,12.9209905 28.5878903,10.9997734 27.4486258,8.45328209 C26.4788903,6.28751981 26.0666516,0.0999413629 17.784,0.0992091918 C16.3299484,0.0992091918 14.6335548,0.289939778 12.6484839,0.726313788"></path>
        <path id="path-17" d="M30.0599613,8.316 C30.0599613,8.316 26.161529,32.0013708 14.8148516,46.5580317 C14.8148516,46.5580317 0.387232258,50.922504 0.344941935,52.7002155 C0.303019355,54.477561 8.19696774,53.8079905 8.19696774,53.8079905 C8.19696774,53.8079905 2.27043871,59.1619921 3.1280129,60.5417686 C3.9855871,61.9215452 10.7248258,57.5219287 10.7248258,57.5219287 C10.7248258,57.5219287 9.48884516,63.2226133 10.4214387,64.0880396 C11.352929,64.9545642 15.6238839,57.1631648 15.6238839,57.1631648 C15.6238839,57.1631648 17.7961355,60.4081474 18.7250516,59.8044723 C19.6547032,59.2011632 19.0420452,52.4000254 18.6838645,48.9921347 C18.6838645,48.9921347 33.9514065,30.5824231 35.7890129,11.0125864 C36.5609032,2.79103645 35.8662387,0.0691901743 34.7199871,0.0691901743 C33.1375935,0.0688240887 30.6950516,5.25406022 30.0599613,8.316"></path>
        <path id="path-19" d="M7.83474194,0.35766561 C1.00945161,1.99736292 0.233516129,25.6959128 0.233516129,25.6959128 L8.48969032,27.9341601 C8.48969032,27.9341601 10.6553226,22.958691 11.1381677,13.9101537 C11.6011548,5.23648811 9.84371613,0.329477021 8.06531613,0.329477021 C7.98845806,0.329477021 7.9116,0.33862916 7.83474194,0.35766561"></path>
        <path id="path-21" d="M4.55816129,0.297993661 C3.12212903,0.298725832 0.728496774,0.768779715 0.783290323,1.83555309 C0.838451613,2.90269255 2.30647742,3.32735182 2.30647742,3.32735182 C2.30647742,3.32735182 0.0923032258,3.29037718 0.3534,4.42743899 C0.614864516,5.56413471 1.91299355,5.82698415 1.91299355,5.82698415 C-0.386864516,6.03784945 -0.804251613,9.02144691 2.77387742,8.68538035 C6.14129032,8.36835024 5.57827742,6.95452773 4.83911613,6.45665135 C7.3257871,5.9653645 6.83963226,3.98593978 5.85150968,3.44523138 C7.68249677,2.1448954 5.99529677,0.29726149 4.55926452,0.297993661 L4.55816129,0.297993661"></path>
    </defs>
    <g id="HOME" stroke="none" stroke-width="1" fill="none" fill-rule="evenodd" sketch:type="MSPage">
        <g id="Homepage-2" sketch:type="MSArtboardGroup" transform="translate(-289.000000, -245.000000)">
            <g id="Imported-Layers-+-Imported-Layers-Copy-16" sketch:type="MSLayerGroup" transform="translate(289.000000, 245.000000)">
                <g id="Imported-Layers">
                    <path d="M48.6518903,14.4105927 C48.6518903,14.4105927 52.3278387,13.1867686 54.7895032,15.7918336 C54.7895032,15.7918336 52.1340387,10.2672361 48.6518903,14.4105927" id="Fill-1" fill="#9E4204" sketch:type="MSShapeGroup"></path>
                    <path d="M0.0923032258,223.045693 C-1.18927742,214.626823 16.7870516,209.295884 45.9978968,206.50375 C75.2083742,203.711981 97.6729935,208.484639 97.753529,217.992979 C97.8870194,233.778956 1.84385806,234.555789 0.0923032258,223.045693" id="Fill-2" fill="#3F9580" sketch:type="MSShapeGroup"></path>
                    <path d="M108.157316,86.017664 C108.157316,86.017664 79.0906258,87.2114691 64.5894581,69.9424802 C52.8871742,56.0067005 60.980071,59.1239192 63.054871,60.7778938 C63.054871,60.7778938 77.7156387,81.3522694 109.564665,82.6837227 C109.564665,82.6837227 112.475342,84.8531458 108.157316,86.017664" id="Fill-3" fill="#FFE2D2" sketch:type="MSShapeGroup"></path>
                    <g id="Group-6" transform="translate(58.103226, 58.939778)">
                        <mask id="mask-2" sketch:name="Clip 5" fill="white">
                            <use xlink:href="#path-1"></use>
                        </mask>
                        <g id="Clip-5"></g>
                        <path d="M5.12338065,6.36293344 C5.12338065,6.36293344 21.0513871,27.095458 51.882871,24.7686181 C51.882871,24.7686181 48.2201613,29.8209651 49.8643355,33.0549651 C49.8643355,33.0549651 46.0501161,33.169916 46.6528452,28.674019 C46.6528452,28.674019 9.9566129,23.1790745 3.33137419,15.0786989 C-3.29386452,6.9783233 1.65704516,4.06757686 5.12338065,6.36293344" id="Fill-4" fill="#F8BDA4" sketch:type="MSShapeGroup" mask="url(#mask-2)"></path>
                    </g>
                    <path d="M49.1921032,50.5048003 C49.1921032,50.5048003 53.2600645,49.4072758 57.0139742,51.9061759 C60.7682516,54.4050761 70.3898516,65.3023455 70.3898516,65.3023455 C70.3898516,65.3023455 66.3524129,72.3571807 65.5470581,72.6588352 C65.5470581,72.6588352 60.4600839,68.1376783 56.5748903,64.5035468 C52.6904323,60.8697813 45.0241161,52.5548796 49.1921032,50.5048003" id="Fill-7" fill="#FEFE80" sketch:type="MSShapeGroup"></path>
                    <path d="M68.1308129,200.499946 C68.1308129,200.499946 76.2012774,205.040872 77.8465548,205.631734 C79.4918323,206.222596 86.2398968,207.045556 86.2079032,209.571913 C86.1759097,212.097903 81.0900387,215.295661 75.2572839,214.512604 C69.4248968,213.729181 68.4172839,211.424306 68.4172839,211.424306 C68.4172839,211.424306 66.3840387,212.995179 66.0343161,212.895604 C65.6842258,212.795662 64.2798194,212.140369 63.9657677,211.452128 C63.6513484,210.763887 63.3281032,204.030475 64.6696258,201.80797 C66.0104129,199.585098 67.2997161,200.034651 68.1308129,200.499946" id="Fill-8" fill="#CE9921" sketch:type="MSShapeGroup"></path>
                    <g id="Group-11" transform="translate(63.619355, 199.882726)">
                        <mask id="mask-4" sketch:name="Clip 10" fill="white">
                            <use xlink:href="#path-3"></use>
                        </mask>
                        <g id="Clip-10"></g>
                        <path d="M6.91575484,6.04553724 C6.91575484,6.04553724 7.83400645,9.28026941 9.54437419,11.3720824 C11.2540065,13.4638954 19.8499742,17.0244437 25.0439613,10.7299683 C25.0439613,10.7299683 25.2763742,13.3028177 24.7082129,14.2359699 C24.1400516,15.1683899 8.22675484,22.5373265 5.15132903,15.2265975 C5.15132903,15.2265975 0.463722581,15.7691363 -0.916780645,13.1212393 C-2.29691613,10.4729762 -0.963116129,2.28693661 0.793954839,2.44618384 C2.55029032,2.60506498 6.14607097,2.25508716 6.91575484,6.04553724" id="Fill-9" fill="#B28028" sketch:type="MSShapeGroup" mask="url(#mask-4)"></path>
                    </g>
                    <path d="M75.4481419,137.624382 C75.4481419,137.624382 76.9724323,169.995133 69.1255548,201.118997 C69.1255548,201.118997 76.7050839,205.775971 75.5672903,206.557198 C74.429129,207.338425 65.6224452,204.707368 65.2980968,202.612992 C65.2980968,202.612992 68.4308903,160.604672 59.5995677,140.110469 C50.7671419,119.615534 75.7051935,128.762548 75.4481419,137.624382" id="Fill-12" fill="#FFE2D2" sketch:type="MSShapeGroup"></path>
                    <g id="Group-15" transform="translate(57.367742, 127.397781)">
                        <mask id="mask-6" sketch:name="Clip 14" fill="white">
                            <use xlink:href="#path-5"></use>
                        </mask>
                        <g id="Clip-14"></g>
                        <path d="M18.1796903,20.1925483 C18.1796903,20.1925483 13.6777935,24.4263281 10.0364129,26.2845784 C10.0364129,26.2845784 12.894871,58.9148843 9.26856774,73.7647797 C9.26856774,73.7647797 15.2469484,79.0785119 18.1999161,79.1590507 C21.1514129,79.2403217 9.09536129,82.0269651 7.6335871,80.0134945 C6.17144516,78.0003899 4.30883226,73.3306022 4.30883226,73.3306022 C4.30883226,73.3306022 6.46637419,32.4355483 3.17140645,23.9606672 C-0.124664516,15.4857861 16.2994258,8.35956418 18.1796903,20.1925483" id="Fill-13" fill="#FCCAB1" sketch:type="MSShapeGroup" mask="url(#mask-6)"></path>
                    </g>
                    <path d="M36.9746129,207.520369 C36.9746129,207.520369 29.1457548,211.290685 24.6883548,214.429502 C20.2302194,217.569052 15.6709548,222.981994 16.3365677,225.229393 C17.0018129,227.477525 23.4924581,227.141458 26.8488387,225.279913 C30.2052194,223.418368 35.7323806,219.712117 36.4833097,218.497811 C36.4833097,218.497811 37.675529,219.867704 38.1620516,219.888937 C38.6482065,219.910902 41.4253935,218.547233 41.6699419,217.741113 C41.9148581,216.93609 40.3151806,208.546873 39.3031548,207.323049 C38.2914968,206.099591 36.9746129,207.520369 36.9746129,207.520369" id="Fill-16" fill="#CE9921" sketch:type="MSShapeGroup"></path>
                    <g id="Group-19" transform="translate(16.180645, 206.472266)">
                        <mask id="mask-8" sketch:name="Clip 18" fill="white">
                            <use xlink:href="#path-7"></use>
                        </mask>
                        <g id="Clip-18"></g>
                        <path d="M14.8365484,6.65726624 C14.8365484,6.65726624 6.92862581,12.6563106 4.04552903,16.8633661 C1.94976774,19.9198146 7.42176774,22.7994437 7.42176774,22.7994437 C7.42176774,22.7994437 -3.28798065,19.7433613 -2.05236774,16.8633661 C-0.816387097,13.9830048 16.4274,0.128129952 19.2318,1.71803962 C22.0358323,3.30868146 14.8365484,6.65726624 14.8365484,6.65726624" id="Fill-17" fill="#B28028" sketch:type="MSShapeGroup" mask="url(#mask-8)"></path>
                    </g>
                    <path d="M35.9320645,140.556361 C35.9320645,140.556361 37.9660452,188.478428 35.4124452,208.190672 C35.4124452,208.190672 26.8499419,212.801886 28.5886258,214.404242 C30.3276774,216.006233 39.7091419,208.658529 39.7091419,208.658529 C39.7091419,208.658529 45.3245613,180.474333 47.9785548,167.017027 C51.0407419,151.485846 52.1572065,142.107832 52.9699161,139.509357 C53.7822581,136.911247 38.1712452,137.189472 35.9320645,140.556361" id="Fill-20" fill="#FFE2D2" sketch:type="MSShapeGroup"></path>
                    <g id="Group-23" transform="translate(28.316129, 137.648177)">
                        <mask id="mask-10" sketch:name="Clip 22" fill="white">
                            <use xlink:href="#path-9"></use>
                        </mask>
                        <g id="Clip-22"></g>
                        <path d="M21.7445806,18.1724881 C21.7445806,18.1724881 15.2940194,19.3146751 12.3620129,19.1781252 C12.3620129,19.1781252 9.94705161,67.1214247 8.65848387,69.8721918 C7.36991613,72.623691 4.69974194,73.6450697 6.2402129,74.6378938 C7.7817871,75.631084 2.91692903,79.6671775 0.039716129,77.9542631 C-2.83749677,76.2417147 -1.79789032,71.413412 0.039716129,69.7630983 C1.87695484,68.1131506 6.2402129,56.4939604 6.2402129,56.4939604 C6.2402129,56.4939604 2.79336774,14.972168 5.17302581,12.6167734 C7.55268387,10.2610127 18.5444903,11.6993629 21.7445806,18.1724881" id="Fill-21" fill="#FCCAB1" sketch:type="MSShapeGroup" mask="url(#mask-10)"></path>
                    </g>
                    <path d="M38.7890516,99.7195151 C38.7890516,99.7195151 31.2242323,107.129087 36.321871,152.138577 C36.321871,152.138577 57.1059097,163.442567 76.9496323,146.437526 C76.9496323,146.437526 81.1510839,111.11283 69.8753806,96.3427417 C69.8753806,96.3427417 43.2394645,96.5894834 38.7890516,99.7195151" id="Fill-24" fill="#0D9EB5" sketch:type="MSShapeGroup"></path>
                    <g id="Group-29" transform="translate(34.200000, 96.280507)">
                        <mask id="mask-12" sketch:name="Clip 26" fill="white">
                            <use xlink:href="#path-11"></use>
                        </mask>
                        <g id="Clip-26"></g>
                        <path d="M35.4076645,1.09349762 C35.4076645,1.09349762 25.3775032,6.48667036 16.1938839,14.6913803 C10.1294516,20.1090808 11.1826645,49.3369873 12.3072194,53.0278621 C13.4317742,56.7183708 14.3011161,75.7866704 22.7687419,70.4553661 C22.7687419,70.4553661 26.3391484,62.8689746 17.0018129,62.8689746 C7.66484516,62.8689746 2.06376774,59.6082504 0.356709677,58.0853344 C-1.34998065,56.5620523 -7.82187097,14.938122 -1.75008387,8.56603645 C4.32096774,2.19431696 8.91296129,-6.27909984 35.4076645,1.09349762" id="Fill-25" fill="#0B7189" sketch:type="MSShapeGroup" mask="url(#mask-12)"></path>
                        <path d="M15.0976452,17.7273281 C15.0976452,17.7273281 15.2031871,17.6017607 15.3966194,17.3714929 C15.494071,17.256542 15.6139548,17.115599 15.7540645,16.9508605 C15.9055742,16.7967385 16.0780452,16.6202853 16.2707419,16.4247956 C17.0510903,15.6519889 18.2488258,14.6661204 19.7470065,13.7307718 C22.7304968,11.8315198 26.8845097,10.2050016 30.3692323,9.49662599 C30.3692323,9.49662599 29.9875161,9.67783835 29.2557097,9.99596672 C28.5272129,10.313729 27.452671,10.7823185 26.0688581,11.3856276 C24.6946065,11.9969905 23.0132903,12.7375816 21.1230968,13.7142979 C20.1746903,14.197897 19.1850968,14.7576418 18.1609355,15.3993899 C17.1411871,16.0469952 16.0879742,16.7868542 15.0976452,17.7273281" id="Fill-27" fill="#1A526B" sketch:type="MSShapeGroup" mask="url(#mask-12)"></path>
                        <path d="M16.9466516,24.558851 C16.9466516,24.558851 17.2934323,24.0144818 17.8722581,23.1051252 C18.1539484,22.6438574 18.5511097,22.1317036 18.9791613,21.5401094 C19.3976516,20.9389968 19.9330839,20.3261696 20.4924194,19.6613582 C20.7656516,19.3219968 21.080071,19.0013059 21.4011097,18.6729271 C21.7228839,18.3449144 22.0453935,18.0026244 22.3896,17.6720491 C23.1103742,17.0460428 23.8204839,16.3614628 24.6291484,15.7954945 C26.1817548,14.5789921 27.9358839,13.6403487 29.5337226,12.918794 C29.5337226,12.918794 29.205329,13.1812773 28.5665613,13.6421791 C27.9163935,14.0844105 27.0010839,14.7957147 25.8283548,15.6962853 C25.5429871,15.9316783 25.2421742,16.1798843 24.9255484,16.4412694 C24.7659484,16.5701315 24.602671,16.7019223 24.4357161,16.8362758 C24.2706,16.9739239 24.1121032,17.1269477 23.9436774,17.2755784 C23.6068258,17.573206 23.2563677,17.8836466 22.8904645,18.2058019 C22.539271,18.544065 22.174471,18.8955071 21.7964323,19.2593962 C20.2967806,20.7288637 18.6629032,22.4911997 16.9466516,24.558851" id="Fill-28" fill="#1A526B" sketch:type="MSShapeGroup" mask="url(#mask-12)"></path>
                    </g>
                    <path d="M63.5406581,45.6212187 C62.5102452,47.859832 59.0185355,44.9003962 59.0185355,44.9003962 C59.0185355,44.9003962 58.5018581,48.5169556 55.6639935,48.9108637 C52.826129,49.305504 49.7106194,41.8886101 49.7106194,41.8886101 L45.2193871,41.8973962 C45.2193871,41.8973962 39.6333871,48.339038 33.8116645,49.3981236 C30.7788968,49.9498146 26.5171355,46.6828669 26.5171355,46.6828669 C26.5171355,46.6828669 26.2736903,49.7916656 24.2739097,50.11858 C22.2752323,50.4462266 17.1956129,44.9176022 15.1693548,31.8300428 C13.1442,18.7432155 23.231729,3.25742948 35.6768516,0.713500792 C56.1361742,-3.46939303 78.4088323,13.3163629 63.5406581,45.6212187" id="Fill-30" fill="#845D25" sketch:type="MSShapeGroup"></path>
                    <g id="Group-34" transform="translate(14.709677, 0.000000)">
                        <mask id="mask-14" sketch:name="Clip 32" fill="white">
                            <use xlink:href="#path-13"></use>
                        </mask>
                        <g id="Clip-32"></g>
                        <path d="M6.93634839,10.0439239 C6.93634839,10.0439239 3.64469032,17.376252 5.78789032,19.3029604 C7.93182581,21.2293027 17.9597806,23.0886513 25.9901613,13.2058051 C25.9901613,13.2058051 25.788271,17.7672314 28.1885226,17.9268447 C30.587671,18.0853597 37.4089161,11.4244326 37.4089161,11.4244326 C37.4089161,11.4244326 43.3148516,15.6966513 46.214129,15.4868843 C49.1141419,15.2763851 47.0614065,8.24388114 47.0614065,8.24388114 C47.0614065,8.24388114 68.8012065,17.9268447 51.9567871,46.65358 C43.3689097,61.2995658 31.4077355,50.1324913 31.4077355,50.1324913 C31.4077355,50.1324913 6.8856,67.4757956 0.200419355,56.5862139 C-6.48549677,45.6966323 -3.39609677,14.4406117 6.93634839,10.0439239" id="Fill-31" fill="#684B19" sketch:type="MSShapeGroup" mask="url(#mask-14)"></path>
                        <path d="M23.9377935,1.27287956 C13.065871,2.22067512 8.06899355,9.49442948 8.34406452,12.69658 C8.6184,15.8983645 24.5184581,10.2939604 26.9352581,8.24388114 C26.9352581,8.24388114 27.3144,11.4617734 30.1184323,11.4244326 C32.921729,11.3878241 36.2292,7.46777971 36.2292,7.46777971 C36.2292,7.46777971 39.3586839,11.3878241 41.4264968,10.4308764 C43.4950452,9.47392868 41.1801097,-0.231 23.9377935,1.27287956" id="Fill-33" fill="#936A3A" sketch:type="MSShapeGroup" mask="url(#mask-14)"></path>
                    </g>
                    <path d="M59.4730645,17.4699699 C59.4730645,17.4699699 65.1248903,42.345851 49.1226,45.7094453 C35.2789548,48.6198257 30.4633742,35.5238463 30.4633742,35.5238463 C30.4633742,35.5238463 23.9458839,39.9113819 21.0558,33.3390475 C18.230071,26.9124152 27.0146903,26.2208796 27.7935677,27.5029113 C27.7935677,27.5029113 29.6767742,25.0911395 30.2467742,21.6847132 C30.2467742,21.6847132 35.0344065,21.7930745 40.6998387,13.2058051 C40.6998387,13.2058051 39.8404258,19.9674057 42.1958129,21.0078209 C44.5515677,22.0482361 52.1185935,11.4244326 52.1185935,11.4244326 C52.1185935,11.4244326 57.2445484,15.9155705 59.4730645,17.4699699" id="Fill-35" fill="#FCCAB1" sketch:type="MSShapeGroup"></path>
                    <path d="M31.6353677,23.5883582 C31.6353677,23.5883582 36.8749548,22.2213946 38.271271,19.4874675 C38.271271,19.4874675 39.1751806,21.8560412 42.1961806,22.8129889 C45.2168129,23.7699366 51.8049097,14.6350032 51.8049097,14.6350032 C51.8049097,14.6350032 56.0225419,18.0575372 58.3418903,18.9108827 C58.3418903,18.9108827 64.2794516,41.7198447 47.9403097,44.352 C37.1132516,46.0963978 31.1764258,35.373019 30.2618516,28.2006704 C31.0859613,26.4958098 31.4838581,24.8180396 31.6353677,23.5883582" id="Fill-36" fill="#FFE2D2" sketch:type="MSShapeGroup"></path>
                    <path d="M27.6534581,30.1826577 C27.6534581,30.1826577 26.5546452,28.4635198 23.9462516,29.4940507 C21.3371226,30.5242155 23.0537419,33.3946926 23.0537419,33.3946926 C23.0537419,33.3946926 22.3778323,31.2084295 24.4261548,30.1826577 C26.4752129,29.1568859 27.6534581,30.1826577 27.6534581,30.1826577" id="Fill-37" fill="#EDA68E" sketch:type="MSShapeGroup"></path>
                    <path d="M46.1174129,26.4958098 C46.1174129,26.4958098 48.9538065,27.2975372 49.7264323,27.5395198 C50.4986903,27.7818685 50.8296581,29.7202916 50.217,30.5765658 C49.6043419,31.4335721 48.1102065,32.1470729 46.3023871,31.7030111 C46.3023871,31.7030111 48.782071,31.1374089 49.2336581,30.3774152 C49.6856129,29.6174216 49.5778645,28.5209952 49.0707484,28.186393 C48.5636323,27.8521569 46.4498516,27.2385975 46.1174129,26.4958098" id="Fill-38" fill="#C66D52" sketch:type="MSShapeGroup"></path>
                    <path d="M55.6434,21.9417052 C55.8897871,23.7534628 55.2234387,25.3393455 54.1540452,25.4832171 C53.0850194,25.6274548 52.0185677,24.2758669 51.7721806,22.4633772 C51.5250581,20.6512536 52.1921419,19.0653708 53.2611677,18.9218653 C54.3305613,18.7776276 55.3970129,20.1292155 55.6434,21.9417052" id="Fill-39" fill="#1E120D" sketch:type="MSShapeGroup"></path>
                    <path d="M41.8192452,25.097729 C42.0656323,26.9094865 41.3989161,28.4953693 40.3298903,28.6392409 C39.2608645,28.7834786 38.1940452,27.4315246 37.9476581,25.619401 C37.701271,23.8072773 38.3679871,22.2213946 39.4370129,22.077523 C40.5060387,21.9332853 41.5728581,23.2852393 41.8192452,25.097729" id="Fill-40" fill="#1E120D" sketch:type="MSShapeGroup"></path>
                    <path d="M38.4830903,36.0356339 C38.4830903,36.0356339 52.155,32.7946783 53.1523161,32.68229 C53.1523161,32.68229 54.2787097,40.976691 47.4490065,42.2561601 C42.2877484,43.2229921 38.4830903,36.0356339 38.4830903,36.0356339" id="Fill-41" fill="#382F16" sketch:type="MSShapeGroup"></path>
                    <path d="M38.2374387,32.4893629 C38.4823548,33.6692567 37.3761871,34.8934469 35.7680516,35.2243883 C34.1591806,35.5553296 32.6573226,34.8667227 32.4124065,33.6868288 C32.1674903,32.506935 33.2732903,31.2823788 34.8817935,30.9518035 C36.4902968,30.6212282 37.9925226,31.309103 38.2374387,32.4893629" id="Fill-42" fill="#F9A787" sketch:type="MSShapeGroup"></path>
                    <path d="M58.9604323,28.5587021 C59.2053484,29.7385959 58.1760387,30.9470444 56.6616774,31.2585832 C55.1476839,31.5697559 53.7219484,30.8657734 53.4770323,29.6858796 C53.2321161,28.5059857 54.2614258,27.2968051 55.7754194,26.9859984 C57.2897806,26.6748257 58.7151484,27.3788082 58.9604323,28.5587021" id="Fill-43" fill="#F9A787" sketch:type="MSShapeGroup"></path>
                    <path d="M41.4309097,15.9247227 C41.4309097,15.9247227 35.4801097,16.1963582 34.5603871,20.7068986 C34.5603871,20.7068986 34.5530323,14.0485341 41.4309097,15.9247227" id="Fill-44" fill="#684B19" sketch:type="MSShapeGroup"></path>
                    <path d="M45.0097742,51.2461236 C45.0097742,51.2461236 37.5034258,51.953401 35.3686839,53.626046 C33.2346774,55.2994231 32.2888452,57.7529287 32.4716129,60.6724612 C32.6543806,63.5923597 36.7054258,73.4418922 39.2207806,77.9209493 C41.7361355,82.3992742 43.4884258,87.9883027 43.4884258,87.9883027 C43.4884258,87.9883027 38.3933613,98.0567544 37.6008774,100.933089 C37.6008774,100.933089 48.1782387,106.496857 58.7975226,102.600609 C69.4171742,98.7043597 70.8885097,96.1695832 70.8885097,96.1695832 C70.8885097,96.1695832 66.0221806,90.5468748 61.5912581,84.5276957 C61.5912581,84.5276957 62.2723161,78.6311553 61.4342323,74.018477 C61.4342323,74.018477 65.7268839,70.985458 65.0712,67.2133122 C64.4147806,63.4408003 60.9491806,61.5195832 59.8095484,58.973458 C58.6699161,56.4273328 58.3014387,48.3225642 45.0097742,51.2461236" id="Fill-45" fill="#FEFE80" sketch:type="MSShapeGroup"></path>
                    <g id="Group-49" transform="translate(32.361290, 50.519810)">
                        <mask id="mask-16" sketch:name="Clip 47" fill="white">
                            <use xlink:href="#path-15"></use>
                        </mask>
                        <g id="Clip-47"></g>
                        <path d="M4.28603226,9.96155468 C4.28603226,9.96155468 5.72758065,23.198477 11.5978452,23.8819588 C17.4673742,24.5654406 23.4163355,21.5884326 27.0323419,21.8318796 C30.6483484,22.0753265 31.6338968,20.7738922 32.6518065,18.5689588 C32.6518065,18.5689588 33.4016323,21.0649303 29.0729419,23.4986672 C29.0729419,23.4986672 27.0790452,23.4031189 24.6074516,23.9844628 C22.1358581,24.5654406 17.0492516,26.1348494 14.7865355,28.7670048 C12.5241871,31.3998922 16.9867355,38.6443597 16.9867355,38.6443597 C16.9867355,38.6443597 10.8932516,52.0624945 15.9655161,53.5550254 C21.0377806,55.0475563 2.60250968,53.6714406 2.96363226,51.2841965 C3.32401935,48.8965864 8.10834194,36.8878811 8.10834194,36.8878811 C8.10834194,36.8878811 -6.87456774,21.8003962 4.28603226,9.96155468" id="Fill-46" fill="#EBE775" sketch:type="MSShapeGroup" mask="url(#mask-16)"></path>
                        <path d="M6.28618065,22.7203693 C6.28618065,22.7203693 8.00868387,26.6199128 14.7865355,26.0890887 C14.7865355,26.0890887 7.26032903,28.1355071 6.28618065,22.7203693" id="Fill-48" fill="#D6CE72" sketch:type="MSShapeGroup" mask="url(#mask-16)"></path>
                    </g>
                    <path d="M59.0593548,56.5660792 C59.0593548,56.5660792 59.3388387,57.292393 59.9544387,58.4294548 C60.5759226,59.5668827 61.5213871,61.0982187 62.9897806,62.5658558 C63.704671,63.3298764 64.4732516,64.1773645 65.0719355,65.2141189 C65.3676,65.7317639 65.6184,66.2988304 65.7654968,66.9079968 C65.9140645,67.5156989 65.9523097,68.1647686 65.8511806,68.7926054 C65.6518645,70.0618241 64.9380774,71.1487322 64.1319871,71.9995151 C63.3200129,72.8631109 62.3848452,73.5246276 61.4728452,74.0730238 C61.4728452,74.0730238 61.5655161,73.9869937 61.7471806,73.8200586 C61.9303161,73.6575166 62.2006065,73.4129715 62.5385613,73.0783693 C62.8794581,72.7481601 63.2825032,72.3205721 63.7142323,71.7904802 C64.1397097,71.25929 64.5894581,70.6054612 64.8880645,69.8037338 C65.1966,69.0093281 65.3080258,68.0545769 65.0491355,67.0639493 C64.7968645,66.0707591 64.1967097,65.0724437 63.4218774,64.0843788 C63.0331742,63.5879667 62.6018129,63.0919208 62.1553742,62.5640254 C61.6997419,62.0434517 61.2852968,61.4357496 60.8914452,60.8156006 C60.1280129,59.5526054 59.4899806,58.1204786 59.0593548,56.5660792" id="Fill-50" fill="#EBE775" sketch:type="MSShapeGroup"></path>
                    <path d="M47.0746452,44.7869097 C47.0746452,44.7869097 47.912729,49.3992219 48.1837548,50.3470174 C48.1837548,50.3470174 52.5238452,50.8745468 52.4716258,51.3694945 C52.4716258,51.3694945 54.1933935,64.171141 52.5304645,67.8407829 C52.5304645,67.8407829 44.7674323,58.3064501 39.7602581,52.6771521 C39.7602581,52.6771521 42.4966258,51.3877987 42.6201871,50.9547195 C42.7444839,50.5220063 41.8990452,45.0863677 42.0490839,44.9586038 C42.1998581,44.8301078 47.0746452,44.7869097 47.0746452,44.7869097" id="Fill-51" fill="#FCCAB1" sketch:type="MSShapeGroup"></path>
                    <path d="M49.3480258,62.2122171 C49.3480258,62.2122171 52.5300968,64.6283819 52.5300968,67.8407829 C52.5300968,67.8407829 50.1261677,63.494981 49.3480258,62.2122171" id="Fill-52" fill="#EDA68E" sketch:type="MSShapeGroup"></path>
                    <path d="M41.109871,53.3514818 C41.109871,53.3514818 45.2973484,54.5998336 46.8076645,54.4197195 C46.8076645,54.4197195 42.8978323,55.1288273 41.109871,53.3514818" id="Fill-53" fill="#EDA68E" sketch:type="MSShapeGroup"></path>
                    <path d="M48.3264387,53.9668716 C48.3264387,53.9668716 51.2110065,53.1464739 52.5304645,52.3264422 C52.5304645,52.3264422 50.3254839,54.2403376 48.3264387,53.9668716" id="Fill-54" fill="#EDA68E" sketch:type="MSShapeGroup"></path>
                    <path d="M33.9043355,56.3138463 C33.9043355,56.3138463 35.0943484,64.7488241 33.1592903,72.6559065 C31.2253355,80.5629889 23.8241613,94.4039525 23.0313097,99.3915024 C22.2395613,104.379052 24.5772968,115.689632 24.5772968,115.689632 C24.5772968,115.689632 22.5811935,117.58559 22.1432129,116.357739 C21.7044968,115.129521 18.9946065,105.636556 21.6346258,96.5477496 C24.2739097,87.4604073 29.6749355,79.2611886 30.8105226,73.4839921 C32.6422452,64.166748 32.237729,57.1247258 33.9043355,56.3138463 C36.6932903,54.956401 33.9043355,56.3138463 33.9043355,56.3138463" id="Fill-55" fill="#DBB100" sketch:type="MSShapeGroup"></path>
                    <path d="M22.2149226,119.703029 C22.2149226,119.703029 17.8148903,130.039455 19.8396774,133.716418 C21.8652,137.393016 36.6134903,142.223515 41.3459613,137.678929 C46.0788,133.133976 43.2607935,121.45365 42.1943419,119.95819 C41.1267871,118.462731 26.0508387,116.633767 22.2149226,119.703029" id="Fill-56" fill="#BF9A00" sketch:type="MSShapeGroup"></path>
                    <path d="M42.7551484,120.003219 C43.2225484,118.87055 34.2956129,114.898155 29.1678194,114.350857 C24.0396581,113.803193 20.028329,114.536829 19.5686516,115.871577 C19.1082387,117.205593 18.5783226,120.538802 20.7270387,122.678206 C22.8753871,124.81761 27.9730258,127.614504 29.7025161,127.470632 C31.431271,127.327493 42.0538645,121.704784 42.7551484,120.003219" id="Fill-57" fill="#EFC100" sketch:type="MSShapeGroup"></path>
                    <path d="M27.6670645,125.832765 C28.3256903,125.88475 28.9030452,125.395659 28.956,124.739268 C29.0082194,124.083242 28.5165484,123.50922 27.8579226,123.456504 C27.1985613,123.404154 26.6219419,123.89361 26.5693548,124.549635 C26.5164,125.206027 27.0077032,125.780415 27.6670645,125.832765" id="Fill-58" fill="#BF9A00" sketch:type="MSShapeGroup"></path>
                    <path d="M35.783129,53.3514818 C35.783129,53.3514818 42.4061613,57.5541442 43.9308194,64.9457781 C45.4558452,72.3377781 44.6471806,78.9752758 41.0322774,84.6411823 C37.4173742,90.3067227 33.3273484,104.698279 39.1082516,117.532873 C39.1082516,117.532873 41.2455677,121.218623 41.5621935,119.908036 C41.8795548,118.59745 33.2111419,106.938723 42.9743226,85.6398637 C52.7375032,64.3402726 42.6974129,57.0903138 39.7602581,54.5591981 C36.8973871,52.0928796 34.8718645,52.4589651 35.783129,53.3514818" id="Fill-59" fill="#EFC100" sketch:type="MSShapeGroup"></path>
                    <path d="M30.0599613,78.9701506 C30.0599613,78.9701506 26.1607935,102.656254 14.8148516,117.212548 C14.8148516,117.212548 0.387232258,121.577021 0.344941935,123.354366 C0.302651613,125.132078 8.19696774,124.462141 8.19696774,124.462141 C8.19696774,124.462141 2.27043871,129.816143 3.1280129,131.196285 C3.9855871,132.576428 10.7248258,128.176445 10.7248258,128.176445 C10.7248258,128.176445 9.48884516,133.87713 10.4214387,134.742922 C11.352929,135.609081 15.6235161,127.818048 15.6235161,127.818048 C15.6235161,127.818048 17.7965032,131.062664 18.7257871,130.458623 C19.6547032,129.85568 19.0420452,123.054908 18.6838645,119.646651 C18.6838645,119.646651 33.9514065,101.23694 35.7886452,81.667103 C37.6258839,62.0972662 31.154729,73.6897322 30.0599613,78.9701506" id="Fill-60" fill="#FFE2D2" sketch:type="MSShapeGroup"></path>
                    <g id="Group-66" transform="translate(0.000000, 70.654517)">
                        <mask id="mask-18" sketch:name="Clip 62" fill="white">
                            <use xlink:href="#path-17"></use>
                        </mask>
                        <g id="Clip-62"></g>
                        <path d="M36.1152,10.2401458 C36.1152,10.2401458 32.8025806,11.1275372 31.3602968,11.0942235 C31.3602968,11.0942235 25.1818645,39.9018637 15.5014258,47.3517052 C15.5014258,47.3517052 1.25804516,51.6817655 0.450483871,53.0362821 C-0.357445161,54.3911648 -1.0076129,51.4522298 0.450483871,50.0852662 C1.90784516,48.7183027 14.4713806,44.6177781 14.4713806,44.6177781 C14.4713806,44.6177781 28.4772,11.8805753 29.1637742,7.98469255 C29.8499806,4.08917591 36.1152,10.2401458 36.1152,10.2401458" id="Fill-61" fill="#FCCAB1" sketch:type="MSShapeGroup" mask="url(#mask-18)"></path>
                        <path d="M13.8539419,53.3847956 C13.8539419,53.3847956 16.0056,57.643103 16.5311032,58.3675864 C16.5311032,58.3675864 11.9997871,58.4232314 13.8539419,53.3847956" id="Fill-63" fill="#FCCAB1" sketch:type="MSShapeGroup" mask="url(#mask-18)"></path>
                        <path d="M8.19696774,53.8076244 C8.19696774,53.8076244 1.88688387,57.8839873 3.27032903,60.6827116 C3.27032903,60.6827116 6.02729032,56.5283724 10.8329419,53.4342171 L8.19696774,53.8076244" id="Fill-64" fill="#FCCAB1" sketch:type="MSShapeGroup" mask="url(#mask-18)"></path>
                        <path d="M12.3432581,56.2362361 C12.3432581,56.2362361 10.489471,56.1681442 9.45979355,61.7721823 C8.91737419,64.7261268 10.9017097,64.1557655 10.9017097,64.1557655 C10.9017097,64.1557655 10.2151355,62.524122 12.3432581,56.2362361" id="Fill-65" fill="#FCCAB1" sketch:type="MSShapeGroup" mask="url(#mask-18)"></path>
                    </g>
                    <path d="M35.783129,54.1718796 C37.6358129,53.7267195 39.5697677,58.6758304 39.0865548,67.7243677 C38.6037097,76.7736371 36.4380774,81.7487401 36.4380774,81.7487401 L28.1819032,79.510859 C28.1819032,79.510859 28.9578387,55.812309 35.783129,54.1718796" id="Fill-67" fill="#FEFE80" sketch:type="MSShapeGroup"></path>
                    <g id="Group-70" transform="translate(27.948387, 53.814580)">
                        <mask id="mask-20" sketch:name="Clip 69" fill="white">
                            <use xlink:href="#path-19"></use>
                        </mask>
                        <g id="Clip-69"></g>
                        <path d="M7.37653548,-0.311172742 C7.37653548,-0.311172742 4.44195484,5.14093978 3.61784516,14.7096846 C2.79447097,24.2776973 6.60795484,27.4242029 6.60795484,27.4242029 C6.60795484,27.4242029 0.0481741935,27.5581902 -1.46214194,26.0550428 C-2.97282581,24.5511632 0.308167742,-0.51251981 7.37653548,-0.311172742" id="Fill-68" fill="#EBE775" sketch:type="MSShapeGroup" mask="url(#mask-20)"></path>
                    </g>
                    <path d="M109.787516,85.9294374 C106.208284,86.265504 106.626406,83.2819065 108.926265,83.0714073 C108.926265,83.0714073 107.627768,82.8081918 107.366671,81.671496 C107.105574,80.5344342 109.319013,80.5714089 109.319013,80.5714089 C109.319013,80.5714089 107.851355,80.1467496 107.796194,79.0796101 C107.7414,78.0128368 110.1354,77.5427829 111.571065,77.5420507 C113.007097,77.5409525 114.695768,79.3882203 112.864781,80.6892884 C113.852168,81.2299968 114.33869,83.2094216 111.852019,83.7007084 C112.591181,84.1985848 113.154194,85.6124073 109.787516,85.9294374" id="Fill-71" fill="#FFD5C0" sketch:type="MSShapeGroup"></path>
                    <g id="Group-74" transform="translate(107.012903, 77.244057)">
                        <mask id="mask-22" sketch:name="Clip 73" fill="white">
                            <use xlink:href="#path-21"></use>
                        </mask>
                        <g id="Clip-73"></g>
                        <path d="M0.471445161,3.85964025 C0.471445161,3.85964025 2.85036774,3.91858003 4.32170323,4.50468304 C4.95348387,4.75618384 4.50961935,5.70471157 3.39609677,5.97378447 C3.39609677,5.97378447 6.14129032,8.60593978 1.33196129,8.60447544 C1.33196129,8.60447544 4.50814839,10.8427227 6.65612903,7.91074326 C8.80374194,4.97876387 10.6299484,-0.482500792 8.02302581,-1.20881458 C5.41610323,-1.93476228 -0.965322581,-1.21101109 0.471445161,3.85964025" id="Fill-72" fill="#F8BDA4" sketch:type="MSShapeGroup" mask="url(#mask-22)"></path>
                    </g>
                </g>
                <g id="Imported-Layers-Copy-16" transform="translate(109.000000, 71.384615)" sketch:type="MSShapeGroup">
                    <path d="M0.57536,11.3551493 C2.49088,10.4100271 4.02944,8.92311312 4.9008,6.96054299 C5.77216,4.99862443 5.8528,2.84057919 5.28448,0.75160181 C5.40512,0.706316742 5.52736,0.666895928 5.65024,0.628778281 C3.53248,1.27775566 1.69056,2.81777376 0.70784,5.03055204 C-0.27456,7.24333032 -0.19392,9.66885068 0.72672,11.7164525 C0.6736,11.5972127 0.62144,11.4773213 0.57536,11.3551493" id="Fill-1" fill="#F35722"></path>
                    <path d="M14.88256,4.47572851 C14.08672,2.99402715 12.82592,1.75243439 11.19584,1.00213575 C9.432,0.190262443 7.5296,0.0908959276 5.80064,0.583493213 C5.93376,0.545375566 6.0672,0.509864253 6.20192,0.480542986 C6.83456,2.78845249 6.74304,5.18465158 5.77568,7.36354751 C4.80768,9.54244344 3.10112,11.1951855 0.98112,12.2360905 C0.91392,12.1135928 0.85184,11.9878371 0.79232,11.8611041 C1.57152,13.5083077 2.9008,14.8968326 4.66496,15.7087059 C6.29472,16.4586787 8.0432,16.6020271 9.66176,16.2316018 C9.02912,13.9236923 9.12032,11.5274932 10.088,9.34859729 C11.05568,7.16970136 12.76256,5.51695928 14.88256,4.47572851" id="Fill-2" fill="#F39963"></path>
                    <path d="M15.28832,5.35634389 C13.3728,6.30211765 11.83424,7.78903167 10.96288,9.75127602 C10.09152,11.7131946 10.01088,13.8715656 10.57952,15.960543 C12.54304,15.2555294 14.2304,13.7653575 15.15552,11.6815928 C16.08128,9.59750226 16.0656,7.32314932 15.28832,5.35634389 L10.4675481,4.61298077" id="Fill-3" fill="#F35722"></path>
                </g>
            </g>
        </g>
    </g>
</svg>