<?xml version="1.0" encoding="UTF-8" standalone="no"?>
<svg width="361px" height="349px" viewBox="0 0 361 349" version="1.1" xmlns="http://www.w3.org/2000/svg" xmlns:xlink="http://www.w3.org/1999/xlink" xmlns:sketch="http://www.bohemiancoding.com/sketch/ns">
    <!-- Generator: Sketch 3.3.3 (12081) - http://www.bohemiancoding.com/sketch -->
    <title>Fill 2 Copy 4 + Fill 2 Copy 5 + Imported Layers Copy 10</title>
    <desc>Created with Sketch.</desc>
    <defs>
        <path id="path-1" d="M19.3514202,0.496432432 C13.9796492,0.401837838 2.23198109,7.93383784 1.32113866,9.2067027 C0.409537815,10.4780541 0.681804622,13.6571892 0.862304622,14.3829189 C1.04356303,15.1116757 5.95877521,17.1117838 5.95877521,17.1117838 C5.95877521,17.1117838 2.86221429,21.2890811 7.46951471,32.4936216 C12.0775735,43.6989189 23.0577374,49.4608649 27.6233256,46.9060541 C32.1881555,44.3527568 26.7079328,31.4765405 26.0731492,27.9326486 C25.4383655,24.3895135 25.266208,5.31318919 25.266208,5.31318919 C25.2571071,4.50421622 25.1630651,3.55751351 24.6792038,2.71978378 C23.9875399,1.52637838 22.5056197,0.550162162 19.3514202,0.496432432"></path>
        <path id="path-3" d="M6.60569328,24.4848649 C24.2969685,67.5352432 82.1836218,83.2659459 82.1836218,83.2659459 C91.4012563,83.6587027 87.0381618,77.5743784 87.0381618,77.5743784 C25.2631744,55.1342703 9.32911975,5.47286486 9.32911975,5.47286486 C8.14904412,3.70735135 5.32247479,0.942162162 3.14130672,0.252 C-0.295777311,-0.835459459 -2.12883824,3.23059459 6.60569328,24.4848649"></path>
        <path id="path-5" d="M61.3859265,0.248972973 C35.3287038,-2.47989189 5.7979937,21.7575135 1.58354622,48.8047568 C-2.63090126,75.852 3.89136765,89.9057297 8.02769958,90.5050811 C12.1617563,91.1044324 14.5871303,85.1298378 14.5871303,85.1298378 C14.5871303,85.1298378 20.9197983,94.2192432 27.2266807,95.0176216 C39.3330735,96.5538378 54.3494601,87.3365405 54.3494601,87.3365405 L63.1841008,90.1123243 C63.1841008,90.1123243 64.662229,106.665622 70.4898004,107.654703 C76.3143382,108.643027 79.5959496,101.83827 79.5959496,101.83827 C79.5959496,101.83827 84.6052038,109.842486 88.033187,106.073081 C132.499134,57.1646486 110.108034,14.2966486 74.0057584,2.87491892 C69.9498172,1.5907027 65.7126176,0.703027027 61.3859265,0.248972973"></path>
        <path id="path-7" d="M45.8068046,1.95091892 C45.8068046,1.95091892 30.6076429,-1.32508108 25.364042,0.64172973 C20.1211996,2.61005405 16.7243109,6.85848649 15.256042,12.7248649 C13.7854979,18.5912432 15.5806387,40.519027 17.7193361,50.9100541 C19.8595504,61.2988108 19.8034286,73.4016216 19.8034286,73.4016216 C19.8034286,73.4016216 3.48107143,90.0699459 0.121344538,95.2446486 C0.121344538,95.2446486 17.4311429,112.790054 40.7467374,111.718486 C64.0623319,110.648432 68.542979,106.57027 68.542979,106.57027 C68.542979,106.57027 62.4977458,92.4635676 57.5575063,77.8460541 C57.5575063,77.8460541 62.590271,66.6505946 63.8317773,57.0412973 C63.8317773,57.0412973 74.1695735,53.735027 75.2434727,45.8935135 C76.3150966,38.0527568 70.7059454,32.1107027 70.0613025,26.3835676 C69.5122185,21.5138378 72.5769265,9.06518919 56.2947647,3.91091892 C53.4363424,3.00659459 49.9825735,2.32627027 45.8068046,1.95091892"></path>
        <path id="path-9" d="M87.0275441,13.9810811 C87.0275441,13.9810811 64.5302668,58.2256216 33.1065819,79.8491892 C33.1065819,79.8491892 2.01128571,79.4723243 0.815283613,82.9488649 C-0.381476891,86.4238919 15.5571282,90.0177297 15.5571282,90.0177297 C15.5571282,90.0177297 0.55287605,96.8792432 1.37498529,100.131784 C2.19557773,103.382811 18.1994055,98.9073514 18.1994055,98.9073514 C18.1994055,98.9073514 12.1996765,109.371027 13.490479,111.657189 C14.7790063,113.942595 28.0548571,101.248757 28.0548571,101.248757 C28.0556155,101.248757 30.2929055,108.994162 32.497584,108.383459 C34.7022626,107.772 37.7578697,93.9899459 39.1882185,87.0527568 C39.1882185,87.0527568 80.7320378,60.2764324 96.6023866,22.8585946 C103.267994,7.13924324 103.607758,1.344 101.353784,0.631135135 C98.2435714,-0.354918919 90.1946366,8.34248649 87.0275441,13.9810811"></path>
        <path id="path-11" d="M31.1453508,0.461621622 C16.7008004,-0.552432432 0.332939076,45.6604324 0.332939076,45.6604324 L15.1604832,55.2069189 C15.1604832,55.2069189 22.5336807,46.7509189 29.1499916,29.2214054 C35.4940357,12.4191351 35.1118004,1.65654054 31.6163193,0.551675676 C31.4653971,0.503243243 31.3084076,0.472972973 31.1453508,0.461621622"></path>
        <path id="path-13" d="M0.743993697,8.03448649 C1.44551681,10.9048649 -0.71744958,5.64162162 2.78106513,4.03578378 C5.45443697,2.80832432 7.07817857,6.43243243 7.07817857,6.43243243 C7.07817857,6.43243243 8.5062521,11.9552432 10.6669433,10.8776216 C12.8283929,9.79924324 12.7244916,7.07567568 12.7244916,7.07567568 C14.2701176,11.5700541 20.479166,10.9457297 18.057584,3.95632432 C15.7770651,-2.62216216 13.0286113,0.675027027 12.3877605,2.39664865 C10.1845987,-2.33610811 5.04793277,1.48854054 6.40244118,3.37513514 C4.69148319,0.992108108 0.885056723,2.27027027 0.379201681,4.28854054 C-0.125894958,6.30681081 0.743993697,8.03297297 0.743993697,8.03448649"></path>
    </defs>
    <g id="HOME" stroke="none" stroke-width="1" fill="none" fill-rule="evenodd" sketch:type="MSPage">
        <g id="Group" sketch:type="MSLayerGroup" transform="translate(-271.000000, -225.000000)">
            <g id="Fill-2-Copy-4-+-Fill-2-Copy-5-+-Imported-Layers-Copy-10" transform="translate(271.000000, 225.000000)">
                <path d="M98.6325414,312.614131 C142.571273,309.396308 176.362808,314.897324 176.483951,325.85674 C176.684749,344.051824 32.2155352,344.947211 29.5808265,331.680551 C27.6530584,321.976871 54.6932566,315.832375 98.6325414,312.614131 Z" id="Fill-2-Copy-4" opacity="0.854244403" fill="#3F9580" sketch:type="MSShapeGroup" transform="translate(102.984160, 326.201812) rotate(3.000000) translate(-102.984160, -326.201812) "></path>
                <path d="M286.406849,330.193464 C310.617986,328.085236 329.237812,331.68935 329.304564,338.869656 C329.415208,350.790574 249.809723,351.377207 248.357944,342.685257 C247.295705,336.327674 262.195406,332.301969 286.406849,330.193464 Z" id="Fill-2-Copy-5" opacity="0.880130597" fill="#3F9580" sketch:type="MSShapeGroup" transform="translate(288.804679, 339.095739) rotate(5.000000) translate(-288.804679, -339.095739) "></path>
                <g id="Imported-Layers-Copy-10">
                    <path d="M293.960176,288.911568 C293.960176,288.911568 285.705714,306.254919 282.219334,303.850703 C278.665456,301.400324 277.724277,302.984216 277.015929,303.556324 C273.433989,306.445622 282.964086,313.720324 286.245697,313.502378 C293.118349,313.049838 301.959057,298.965081 301.959057,298.965081 L293.960176,288.911568" id="Fill-1" fill="#D1C699" sketch:type="MSShapeGroup"></path>
                    <path d="M336.453517,271.122486 C336.815275,271.475135 350.677372,272.925838 350.447576,270.028216 C350.217021,267.130595 350.182134,264.516 342.253027,268.066703 C334.68037,263.539027 350.541618,246.064757 358.759676,263.912108 C366.977735,281.760216 343.492258,289.215027 335.347765,280.090054 C333.182523,275.921838 336.453517,271.122486 336.453517,271.122486" id="Fill-2" fill="#A3825A" sketch:type="MSShapeGroup"></path>
                    <path d="M332.333111,288.158595 C333.617088,287.433622 334.82295,286.530811 335.900641,285.425189 C342.067977,279.100216 341.870792,268.927892 335.461525,262.704324 C333.726298,261.021297 331.708945,259.815027 329.572523,259.052216 C330.277838,255.428108 329.084111,251.372649 326.053532,248.431892 C324.278109,246.709514 322.136378,245.627351 319.941559,245.183892 C320.935067,241.627135 320.043943,237.701838 317.259086,234.998703 C316.174569,233.946811 314.911069,233.192324 313.567937,232.720108 C313.743887,232.263027 313.944105,231.815784 314.19817,231.392757 C320.219893,221.359676 270.271447,201.718054 260.840702,208.978378 C251.410714,216.240216 240.579197,235.275676 239.863265,239.036757 C239.147332,242.799351 230.933824,238.252757 226.943863,241.816324 C222.393443,245.880108 229.685492,255.829946 235.002658,249.819784 C237.331714,247.188541 240.043765,255.860973 250.067582,248.472757 C249.029328,250.982919 257.233735,260.589189 257.233735,260.589189 C257.233735,260.589189 245.445113,263.283243 240.60195,265.820649 C239.493922,266.399568 235.653368,268.630486 236.474718,271.412324 C238.018069,276.647568 241.00542,278.104324 244.610111,278.430486 C247.893239,278.729405 249.582204,275.693297 250.749387,274.160865 C254.268378,269.541622 257.963319,270.42627 265.866641,271.080108 C270.750758,271.133081 301.447134,294.129405 297.935727,298.694919 C289.202712,311.172324 308.213609,325.115568 304.150084,326.912108 C293.092563,331.799243 307.110132,337.617189 310.665527,334.881514 C311.853945,333.966595 314.169351,332.536324 315.687674,328.119135 C317.971227,321.471027 313.906943,319.675243 319.08608,312.134162 C320.753809,309.70573 333.773319,296.88173 332.333111,288.158595" id="Fill-3" fill="#E9E1B8" sketch:type="MSShapeGroup"></path>
                    <path d="M314.903485,251.04573 L314.405214,250.167135 C319.600277,247.224108 319.444046,245.279243 319.442529,245.261838 L320.437555,245.084 C320.488368,245.344324 320.772011,247.719784 314.903485,251.04573" id="Fill-4" fill="#A3825A" sketch:type="MSShapeGroup"></path>
                    <path d="M324.374426,264.316973 L323.875397,263.440649 C329.071218,260.496865 328.917263,258.552757 328.913471,258.533081 L329.909254,258.357514 C329.960067,258.617838 330.242952,260.991784 324.374426,264.316973" id="Fill-5" fill="#A3825A" sketch:type="MSShapeGroup"></path>
                    <path d="M296.630515,186.115243 C308.907548,193.632108 316.505992,192.664973 319.634405,200.203027 C319.502443,221.719135 296.416645,235.392216 282.71988,234.400108 C269.024632,233.409514 252.774324,224.639459 249.857504,208.652973 C246.941443,192.666486 264.957315,168.196757 269.079237,167.763135 C273.20116,167.328 284.354998,178.596865 296.630515,186.115243" id="Fill-6" fill="#E9E1B8" sketch:type="MSShapeGroup"></path>
                    <path d="M314.321032,186.101622 L307.385433,191.221838 L313.445076,194.932973 L314.321032,186.101622" id="Fill-7" fill="#AA9883" sketch:type="MSShapeGroup"></path>
                    <path d="M249.857504,208.652973 C252.774324,224.639459 269.024632,233.409514 282.71988,234.400108 C285.354574,234.590811 288.337374,234.238162 291.43621,233.392865 C291.43621,233.392865 298.135945,215.074054 279.724187,206.972216 C275.794899,205.243784 274.553393,203.528216 271.648708,202.027568 C256.579992,194.239784 249.857504,208.652973 249.857504,208.652973" id="Fill-8" fill="#A3825A" sketch:type="MSShapeGroup"></path>
                    <path d="M314.321032,186.101622 C312.446258,186.433838 308.343296,207.884865 311.822851,210.902811 C315.303922,213.920757 328.839147,208.305622 329.763641,206.801946 C330.689651,205.296757 316.195046,185.770919 314.321032,186.101622" id="Fill-9" fill="#A3825A" sketch:type="MSShapeGroup"></path>
                    <path d="M283.841559,167.436216 L282.40666,175.924757 L276.347775,172.213622 L283.841559,167.436216" id="Fill-10" fill="#AA9883" sketch:type="MSShapeGroup"></path>
                    <path d="M283.841559,167.436216 C284.394435,169.254703 267.083878,182.616757 262.809517,180.887568 C258.538189,179.156108 257.428645,164.573405 258.35238,163.068216 C259.279149,161.563784 283.287924,165.619243 283.841559,167.436216" id="Fill-11" fill="#A3825A" sketch:type="MSShapeGroup"></path>
                    <path d="M272.214477,200.455027 C274.907567,201.169405 282.331578,206.531784 281.635363,207.727459 C280.937632,208.923892 273.363458,209.273514 272.135603,208.305622 C270.906989,207.336216 270.545231,199.735351 272.214477,200.455027" id="Fill-12" fill="#53341F" sketch:type="MSShapeGroup"></path>
                    <path d="M269.314342,230.979568 L272.639183,232.360649 C280.977069,235.487568 289.753313,233.676649 291.43621,233.392865 C291.803277,233.330811 282.632664,233.513946 279.847048,232.56573 C273.926952,230.552 268.793319,229.316973 263.066616,224.124865 C265.287221,220.888973 273.283826,208.083135 273.283826,208.083135 L271.905048,207.916649 C271.905048,207.916649 262.731401,219.730378 260.848286,223.215243 C254.517893,222.216324 250.051655,208.948108 250.059239,209.586811 C250.073649,210.812757 253.761765,222.164108 260.905924,226.272541 C265.075626,228.669946 265.974334,229.668108 267.737622,230.399135 C268.456588,230.728324 269.314342,230.979568 269.314342,230.979568" id="Fill-13" fill="#53341F" sketch:type="MSShapeGroup"></path>
                    <path d="M279.472397,185.074703 C282.989872,195.118378 300.297395,197.829081 300.297395,197.829081 L279.472397,185.074703" id="Fill-14" fill="#A3825A" sketch:type="MSShapeGroup"></path>
                    <path d="M284.335279,205.727351 C283.642857,201.715027 277.282128,199.599135 277.282128,199.599135 L284.335279,205.727351" id="Fill-15" fill="#A3825A" sketch:type="MSShapeGroup"></path>
                    <path d="M274.456317,195.249297 C272.225095,198.875676 266.425584,199.369081 261.498996,196.353405 C256.574683,193.336216 254.389723,187.952649 256.620187,184.32627 C258.849893,180.701405 264.649403,180.208 269.574475,183.222919 C274.500305,186.240108 276.685265,191.624432 274.456317,195.249297" id="Fill-16" fill="#A3825A" sketch:type="MSShapeGroup"></path>
                    <path d="M308.728565,214.827351 C306.498101,218.45373 300.696315,218.946378 295.771244,215.930703 C290.846172,212.91427 288.662729,207.529189 290.892435,203.904324 C293.122141,200.278703 298.92241,199.785297 303.847481,202.800973 C308.771794,205.818162 310.958271,211.202486 308.728565,214.827351" id="Fill-17" fill="#A3825A" sketch:type="MSShapeGroup"></path>
                    <path d="M261.909292,192.74973 C260.335605,193.687351 258.174155,192.970703 257.083571,191.146919 C255.992229,189.323892 256.384324,187.083135 257.957252,186.14627 C259.531697,185.208649 261.693905,185.926054 262.785248,187.750595 C263.875832,189.574378 263.483737,191.812865 261.909292,192.74973" id="Fill-18" fill="#2D1306" sketch:type="MSShapeGroup"></path>
                    <path d="M260.915784,192.680865 C260.257489,193.073622 259.353473,192.773189 258.896155,192.009622 C258.438838,191.246054 258.601895,190.308432 259.260947,189.916432 C259.922275,189.522162 260.826292,189.824865 261.283609,190.587676 C261.740168,191.350486 261.575595,192.288108 260.915784,192.680865" id="Fill-19" fill="#FFFFFF" sketch:type="MSShapeGroup"></path>
                    <path d="M290.965242,206.307784 C289.810193,207.728973 290.214422,209.966703 291.866225,211.304649 C293.519544,212.641081 295.796271,212.572973 296.951319,211.153297 C298.105609,209.730595 297.702139,207.494378 296.048819,206.157189 C294.396258,204.82 292.12029,204.888108 290.965242,206.307784" id="Fill-20" fill="#2D1306" sketch:type="MSShapeGroup"></path>
                    <path d="M294.307525,209.19027 C293.824422,209.784324 293.994305,210.720432 294.68521,211.280432 C295.378391,211.841189 296.331704,211.812432 296.814048,211.217622 C297.299426,210.622811 297.129544,209.685946 296.436363,209.125189 C295.745458,208.565189 294.792145,208.595459 294.307525,209.19027" id="Fill-21" fill="#FFFFFF" sketch:type="MSShapeGroup"></path>
                    <path d="M312.725351,192.640757 C315.207605,193.022919 319.689011,194.018811 321.072338,196.296649 C321.249805,196.59027 321.377975,196.901297 321.45154,197.222162 C321.754143,198.549514 321.282416,199.437189 320.8342,199.949514 C319.606345,201.343459 317.160494,201.525838 315.830254,201.516 C315.225807,202.695784 313.929695,204.772324 312.123937,205.21427 C311.459576,205.373189 310.453933,205.38 309.41492,204.496108 C309.165405,204.283459 308.948502,204.024649 308.768002,203.731784 C307.383158,201.447135 308.586744,197.007243 309.393685,194.636324 C310.063355,194.677189 310.760328,194.525081 311.379185,194.150486 C311.996525,193.777405 312.45005,193.242378 312.725351,192.640757" id="Fill-22" fill="#FF5C7F" sketch:type="MSShapeGroup"></path>
                    <path d="M309.935943,188.021514 C309.269307,187.982162 308.578401,188.135784 307.957269,188.508865 C307.331586,188.888 306.869718,189.434378 306.598968,190.052649 C306.613378,190.054162 306.627788,190.058703 306.639922,190.058703 C306.212941,191.009946 306.234935,192.129189 306.806013,193.071351 C307.37709,194.008973 308.362256,194.549297 309.402027,194.612108 C309.402786,194.619676 309.396718,194.628 309.393685,194.636324 C310.063355,194.677189 310.757294,194.523568 311.379185,194.150486 C311.996525,193.777405 312.45005,193.242378 312.725351,192.640757 C312.708666,192.63773 312.692739,192.635459 312.679088,192.633946 C313.104553,191.683459 313.084834,190.561189 312.514515,189.623568 C311.942679,188.681405 310.955237,188.140324 309.915466,188.079784 C309.922292,188.061622 309.930634,188.039676 309.935943,188.021514 M308.705813,191.924108 C308.395626,191.409514 308.568542,190.734486 309.095632,190.415135 C309.622723,190.097297 310.303011,190.256216 310.615473,190.770054 C310.926418,191.283892 310.751985,191.958162 310.225653,192.277514 C309.698563,192.595351 309.018275,192.435676 308.705813,191.924108" id="Fill-23" fill="#FFC289" sketch:type="MSShapeGroup"></path>
                    <path d="M303.487998,181.179676 C304.093962,179.996865 305.390832,177.921081 307.197349,177.479135 C307.859435,177.317946 308.866595,177.311892 309.906366,178.198811 C310.156639,178.407676 310.372784,178.668757 310.551008,178.959351 C311.929786,181.233405 310.743643,185.641514 309.935943,188.021514 C309.269307,187.982162 308.578401,188.135784 307.957269,188.508865 C307.331586,188.888 306.869718,189.434378 306.598968,190.052649 C304.115197,189.668973 299.632275,188.673838 298.248947,186.394486 C298.069964,186.101622 297.942553,185.789081 297.868229,185.470486 C297.564109,184.140865 298.038111,183.253946 298.485569,182.743892 C299.712666,181.349946 302.160792,181.166811 303.487998,181.179676" id="Fill-24" fill="#FF305E" sketch:type="MSShapeGroup"></path>
                    <path d="M309.104733,192.305514 C308.945468,192.214703 308.805922,192.088324 308.705813,191.924108 C308.395626,191.409514 308.568542,190.734486 309.095632,190.415135 C309.257931,190.316757 309.432363,190.264541 309.609071,190.254703 L309.104733,192.305514" id="Fill-25" fill="#FF305E" sketch:type="MSShapeGroup"></path>
                    <path d="M309.915466,188.079784 C309.991307,188.085838 310.064113,188.094162 310.139954,188.100973 L309.609071,190.254703 C309.432363,190.264541 309.255655,190.316757 309.095632,190.415135 C308.568542,190.734486 308.395626,191.409514 308.705813,191.924108 C308.805922,192.088324 308.945468,192.214703 309.104733,192.305514 L308.575368,194.453946 C307.856401,194.226162 307.220859,193.754703 306.806013,193.071351 C306.234935,192.129189 306.212941,191.009946 306.640681,190.057946 C306.627788,190.058703 306.613378,190.054162 306.598968,190.052649 C306.869718,189.434378 307.331586,188.888 307.957269,188.508865 C308.578401,188.135784 309.269307,187.982162 309.935943,188.021514 C309.930634,188.039676 309.922292,188.061622 309.915466,188.079784" id="Fill-26" fill="#FFB36B" sketch:type="MSShapeGroup"></path>
                    <path d="M308.484359,192.055784 C308.868111,192.686919 309.708422,192.885189 310.357616,192.492432 C311.005292,192.101946 311.21992,191.27027 310.836168,190.637622 C310.451658,190.003459 309.61438,189.808216 308.964429,190.199459 C308.315235,190.590703 308.101366,191.423135 308.484359,192.055784" id="Fill-27" fill="#EBAA75" sketch:type="MSShapeGroup"></path>
                    <path d="M148.935252,255.493189 C149.72475,255.098919 156.986462,261.919568 157.495351,259.820324 C158.428187,255.970703 149.557143,244.188757 147.888655,239.387135 C147.304685,237.705622 142.185462,234.247243 136.972956,233.850703 C132.31105,233.495784 133.290149,242.551135 136.765912,248.468216 C139.123029,252.481297 147.221261,256.349838 148.935252,255.493189" id="Fill-28" fill="#FFE2D2" sketch:type="MSShapeGroup"></path>
                    <path d="M102.623351,278.502378 C102.623351,278.503135 102.795508,297.578703 103.430292,301.121838 C104.065076,304.66573 109.546057,317.542703 104.97971,320.096 C100.414122,322.648541 89.433958,316.888865 84.8258992,305.682811 C80.2193571,294.47827 83.3166765,290.300973 83.3166765,290.300973 C83.3166765,290.300973 78.4014643,288.300865 78.2202059,287.574378 C78.0389475,286.846378 77.7666807,283.667243 78.6782815,282.395892 C79.5898824,281.124541 91.3375504,273.591027 96.708563,273.685622 C102.079576,273.778703 102.601357,276.541622 102.623351,278.502378" id="Fill-29" fill="#CE9921" sketch:type="MSShapeGroup"></path>
                    <g id="Group-32" transform="translate(77.357143, 273.189189)">
                        <mask id="mask-2" sketch:name="Clip 31" fill="white">
                            <use xlink:href="#path-1"></use>
                        </mask>
                        <g id="Clip-31"></g>
                        <path d="M18.0044958,15.2077838 C18.0044958,15.2077838 13.1469223,20.1872432 11.1561134,25.3967568 C9.16530462,30.6047568 11.6376996,49.6046486 28.2869286,52.3577297 C28.2869286,52.3577297 23.9094244,55.4316757 21.6493824,55.3824865 C19.3908571,55.3332973 -10.2354118,34.5845405 -0.287434874,21.5494054 C-0.287434874,21.5494054 -6.09377101,13.7548108 -2.76513866,8.55816216 C0.564252101,3.36227027 16.6264769,-2.71827027 18.1523845,0.577405405 C19.6775336,3.87232432 24.0118088,9.91956757 18.0044958,15.2077838" id="Fill-30" fill="#B28028" sketch:type="MSShapeGroup" mask="url(#mask-2)"></path>
                    </g>
                    <path d="M164.013069,35.3117838 C164.013069,35.3117838 172.005882,35.1869189 175.21317,41.8516757 C175.21317,41.8516757 173.453674,29.312973 164.013069,35.3117838" id="Fill-33" fill="#9E4204" sketch:type="MSShapeGroup"></path>
                    <path d="M236.139504,213.428108 C236.139504,213.428108 178.252092,197.695892 160.561576,154.647027 C146.284632,119.908108 160.242288,131.085405 163.285002,135.635027 C163.285002,135.635027 179.219057,185.296432 240.994044,207.736541 C240.994044,207.736541 245.357139,213.820865 236.139504,213.428108" id="Fill-34" fill="#FFE2D2" sketch:type="MSShapeGroup"></path>
                    <g id="Group-37" transform="translate(153.955882, 130.162162)">
                        <mask id="mask-4" sketch:name="Clip 36" fill="white">
                            <use xlink:href="#path-3"></use>
                        </mask>
                        <g id="Clip-36"></g>
                        <path d="M6.83245588,14.4956757 C6.83245588,14.4956757 25.1585147,65.2566486 87.224729,79.8544865 C87.224729,79.8544865 76.8603887,87.531027 78.0670084,94.9260541 C78.0670084,94.9260541 70.4966261,92.7798919 74.4972038,84.2958919 C74.4972038,84.2958919 5.80102731,50.6376216 -2.14931513,30.5548108 C-10.0996576,10.4704865 1.45613445,7.81654054 6.83245588,14.4956757" id="Fill-35" fill="#F8BDA4" sketch:type="MSShapeGroup" mask="url(#mask-4)"></path>
                    </g>
                    <path d="M142.467588,106.768541 C142.467588,106.768541 151.152065,107.136324 156.965985,114.395135 C162.780664,121.656216 174.870372,149.113622 174.870372,149.113622 C174.870372,149.113622 162.515223,160.503568 160.742834,160.595892 C160.742834,160.595892 153.574405,148.522595 148.213252,138.944324 C142.852857,129.367568 132.99058,108.213946 142.467588,106.768541" id="Fill-38" fill="#FEFE80" sketch:type="MSShapeGroup"></path>
                    <path d="M142.695109,249.037297 C142.695109,249.037297 223.476443,284.036541 183.281065,305.982486 C143.085687,327.928432 82.6545903,301.505514 79.6209769,298.478486 C79.6209769,298.478486 58.976479,295.527892 62.5569013,291.163676 C63.4677437,290.053514 65.8385126,287.077189 70.6467899,286.118378 C73.6030462,285.528865 79.2159895,287.381405 85.8148571,287.883892 C94.1087563,288.515027 103.641128,287.955784 107.808555,288.388649 C117.649597,289.411027 134.320061,292.12627 143.706061,294.947459 C151.134622,297.179892 152.554353,299.74 152.554353,299.74 C150.176758,288.910054 97.1909076,291.416432 90.3652773,283.848108 C73.9594958,265.657946 94.0571849,248.27827 113.117378,242.227243 C129.962275,236.88 128.7913,242.227243 142.695109,249.037297" id="Fill-39" fill="#FFE2D2" sketch:type="MSShapeGroup"></path>
                    <path d="M71.4051933,287.253514 C69.9316155,285.644649 67.4910735,285.928432 62.9580966,289.803784 C58.4258782,293.678378 54.2485924,308.566811 54.4344013,310.289189 C54.6194517,312.014595 57.2033319,314.448324 57.893479,314.917514 C58.5836261,315.385189 66.5665798,310.586595 66.5665798,310.586595 C66.5665798,310.586595 66.9510903,323.711027 79.0878193,329.602378 C91.2253067,335.49373 95.9137563,333.2 97.8150735,327.723351 C99.7156324,322.248216 81.1529517,316.801838 81.7695336,312.857622 C82.4429958,308.551676 80.4726639,303.575243 79.1795861,300.016216 C78.9073193,299.26627 78.6646303,298.579135 78.4833718,297.974486 C75.7500861,288.863135 71.4051933,287.253514 71.4051933,287.253514" id="Fill-40" fill="#CE9921" sketch:type="MSShapeGroup"></path>
                    <path d="M71.4051933,287.253514 C69.9316155,285.644649 67.4910735,285.928432 62.9580966,289.803784 C58.4258782,293.678378 54.2485924,308.566811 54.4344013,310.289189 C54.6194517,312.014595 57.2033319,314.448324 57.893479,314.917514 C58.5836261,315.385189 66.5665798,310.586595 66.5665798,310.586595 C66.5665798,310.586595 67.4235756,329.442703 88.0900672,332.658919 C89.7570378,332.91773 92.5130756,332.858703 93.0196891,332.658919 C96.5659832,331.26573 72.922,325.091351 68.6248866,307.054811 C66.5165252,298.206811 71.4051933,287.253514 71.4051933,287.253514" id="Fill-41" fill="#B28028" sketch:type="MSShapeGroup"></path>
                    <path d="M102.499731,208.929189 C115.392588,218.01027 138.333532,214.934054 138.333532,214.934054 C141.936706,233.145405 148.762336,239.199459 148.762336,239.199459 C148.762336,239.199459 148.313361,256.274162 116.909395,243.74 C109.325361,240.712973 90.3652773,283.848108 90.3652773,283.848108 C38.7938487,243.74 86.5732605,200.604865 86.5732605,200.604865" id="Fill-42" fill="#0D9EB5" sketch:type="MSShapeGroup"></path>
                    <path d="M87.2163866,199.027784 C87.2163866,199.027784 34.5073529,255.405405 90.3652773,283.848108 C90.3652773,283.848108 109.485384,240.341405 116.909395,243.74 C126.27416,248.027027 134.426996,248.783784 141.694775,247.585838 C141.694775,247.585838 130.270187,241.574162 124.125603,239.387892 C115.17796,236.204973 97.1909076,230.875135 97.1909076,230.875135 C97.1909076,230.875135 111.410971,232.437081 107.808555,214.226486 C107.808555,214.226486 115.392588,218.01027 102.499731,208.929189 L87.2163866,199.027784" id="Fill-43" fill="#0B7189" sketch:type="MSShapeGroup"></path>
                    <path d="M173.732767,106.073081 C170.305542,109.842486 165.295529,101.83827 165.295529,101.83827 C165.295529,101.83827 162.014676,108.643784 156.188622,107.653946 C150.362567,106.664865 148.883681,90.1123243 148.883681,90.1123243 L140.049798,87.3365405 C140.049798,87.3365405 125.033412,96.5538378 112.926261,95.0176216 C106.61862,94.2184865 100.28671,85.1298378 100.28671,85.1298378 C100.28671,85.1298378 97.8613361,91.1044324 93.7257626,90.5043243 C89.5909475,89.9057297 83.0686786,75.852 87.2831261,48.8032432 C91.4975735,21.7575135 121.028284,-2.47989189 147.085506,0.248972973 C189.92392,4.7372973 223.195076,51.6683243 173.732767,106.073081" id="Fill-44" fill="#845D25" sketch:type="MSShapeGroup"></path>
                    <g id="Group-48" transform="translate(85.699580, 0.000000)">
                        <mask id="mask-6" sketch:name="Clip 46" fill="white">
                            <use xlink:href="#path-5"></use>
                        </mask>
                        <g id="Clip-46"></g>
                        <path d="M27.9600567,9.90518919 C27.9600567,9.90518919 16.8964685,22.3054054 19.9027794,27.4339459 C22.9106071,32.564 41.4596366,42.4669189 63.4358908,27.9901622 C63.4358908,27.9901622 60.1815819,36.8517838 64.8002584,38.6596757 C69.4174181,40.4652973 86.9987248,31.584 86.9987248,31.584 C86.9987248,31.584 95.9327164,43.676973 101.763321,45.0671351 C107.596202,46.4565405 107.966303,31.3221622 107.966303,31.3221622 C107.966303,31.3221622 144.63738,63.9285405 93.5316113,110.052108 C67.4759055,133.567568 50.9571218,104.122162 50.9571218,104.122162 C50.9571218,104.122162 -8.11112395,123.038811 -14.4331744,97.4218378 C-20.7559832,71.8056216 4.89473529,12.1406486 27.9600567,9.90518919" id="Fill-45" fill="#684B19" sketch:type="MSShapeGroup" mask="url(#mask-6)"></path>
                        <path d="M66.87525,3.19956757 C44.908855,-1.69589189 30.5310441,9.52681081 29.0658088,16.0076757 C27.5998151,22.487027 62.366542,21.3367568 68.4011576,18.8001081 C68.4011576,18.8001081 67.1315903,25.3770811 72.6671765,27.048 C78.2004874,28.7189189 87.1572311,23.0538378 87.1572311,23.0538378 C87.1572311,23.0538378 90.8544475,32.7244324 95.5186282,32.1258378 C100.184326,31.5272432 101.712508,10.9646486 66.87525,3.19956757" id="Fill-47" fill="#936A3A" sketch:type="MSShapeGroup" mask="url(#mask-6)"></path>
                    </g>
                    <path d="M183.36904,48.0714595 C183.369798,48.0722162 178.899011,100.604 145.333595,97.2765405 C116.298122,94.3978378 115.033863,65.5971892 115.033863,65.5971892 C115.033863,65.5971892 99.4737017,70.1876757 97.9091155,55.4392432 C96.379416,41.016973 114.081309,45.1201081 114.808618,48.1312432 C114.808618,48.1312432 120.021124,44.551027 123.27695,38.1935135 C123.27695,38.1935135 132.619721,41.3855135 149.135471,27.9901622 C149.135471,27.9901622 143.210065,40.7785946 147.189408,44.292973 C151.16875,47.8096216 172.698305,31.584 172.698305,31.584 C172.698305,31.584 179.961534,43.6224865 183.36904,48.0714595" id="Fill-49" fill="#FCCAB1" sketch:type="MSShapeGroup"></path>
                    <path d="M124.813475,42.8074595 C124.813475,42.8074595 135.969588,43.375027 140.426725,38.8571892 C140.426725,38.8571892 140.719468,44.0863784 146.059387,47.8512432 C151.398546,51.6153514 170.071195,37.7144865 170.071195,37.7144865 C170.071195,37.7144865 176.218055,47.0838919 180.242901,50.2077838 C180.242901,50.2077838 177.629443,98.8445405 143.860775,93.8658378 C121.484842,90.5671351 116.530193,65.7432432 119.225559,51.0417297 C121.912582,48.1948108 123.745643,45.1375135 124.813475,42.8074595" id="Fill-50" fill="#FFE2D2" sketch:type="MSShapeGroup"></path>
                    <path d="M112.854971,53.3241081 C112.854971,53.3241081 111.772729,49.2535135 105.999004,49.6614054 C100.224521,50.067027 101.801242,56.7915676 101.801242,56.7915676 C101.801242,56.7915676 101.842195,52.0633514 106.511685,51.3164324 C111.181174,50.5695135 112.854971,53.3241081 112.854971,53.3241081" id="Fill-51" fill="#EDA68E" sketch:type="MSShapeGroup"></path>
                    <path d="M151.460735,57.5468108 C151.460735,57.5468108 156.534454,60.8924324 157.902613,61.848973 C159.267739,62.807027 158.705004,66.8322162 156.964468,68.1391351 C155.223174,69.4468108 151.839179,69.9220541 148.562876,67.9227027 C148.562876,67.9227027 153.792067,68.351027 155.157193,67.1341622 C156.520044,65.9180541 156.994805,63.6909189 156.207582,62.7162162 C155.420359,61.7422703 151.648819,59.2184865 151.460735,57.5468108" id="Fill-52" fill="#C66D52" sketch:type="MSShapeGroup"></path>
                    <path d="M173.040345,54.5001081 C172.389634,58.2233514 170.086363,60.9340541 167.893819,60.5526486 C165.702034,60.1712432 164.452185,56.8445405 165.102895,53.1197838 C165.752088,49.3957838 168.056876,46.6850811 170.248662,47.0672432 C172.440447,47.4494054 173.691055,50.7761081 173.040345,54.5001081" id="Fill-53" fill="#1E120D" sketch:type="MSShapeGroup"></path>
                    <path d="M143.888078,52.1178378 C143.237368,55.8410811 140.933338,58.5517838 138.740794,58.1703784 C136.549767,57.788973 135.29916,54.4615135 135.94987,50.7382703 C136.60058,47.0135135 138.905368,44.3043243 141.096395,44.684973 C143.287422,45.0663784 144.538788,48.3938378 143.888078,52.1178378" id="Fill-54" fill="#1E120D" sketch:type="MSShapeGroup"></path>
                    <path d="M130.478748,71.5944865 C130.478748,71.5952432 159.384534,73.7156757 161.414779,74.1144865 C161.414779,74.1144865 158.435013,91.1574054 144.207366,89.4304865 C133.455481,88.1243243 130.478748,71.5944865 130.478748,71.5944865" id="Fill-55" fill="#382F16" sketch:type="MSShapeGroup"></path>
                    <path d="M132.217008,64.4544865 C131.959151,66.9313514 129.018063,68.6567568 125.649235,68.3071351 C122.279649,67.959027 119.758716,65.6675676 120.015815,63.1899459 C120.272914,60.7123243 123.214002,58.9876757 126.58283,59.3365405 C129.952416,59.6861622 132.474107,61.9761081 132.217008,64.4544865" id="Fill-56" fill="#F9A787" sketch:type="MSShapeGroup"></path>
                    <path d="M175.415664,69.6027027 C175.158565,72.0803243 172.378258,73.8208649 169.206616,73.4916757 C166.034973,73.164 163.673305,70.8891892 163.931162,68.4115676 C164.189019,65.9347027 166.969326,64.1934054 170.14021,64.5218378 C173.311095,64.851027 175.673521,67.1250811 175.415664,69.6027027" id="Fill-57" fill="#F9A787" sketch:type="MSShapeGroup"></path>
                    <path d="M148.869271,33.8020541 C148.869271,33.8020541 137.001017,30.635027 132.368689,38.9502703 C132.368689,38.9502703 136.523223,25.8258378 148.869271,33.8020541" id="Fill-58" fill="#684B19" sketch:type="MSShapeGroup"></path>
                    <path d="M133.781595,105.626595 C133.781595,105.626595 118.582433,102.350595 113.338832,104.318162 C108.095231,106.286486 104.699101,110.534162 103.230074,116.399027 C101.760288,122.266919 103.555429,144.195459 105.694884,154.584973 C107.83434,164.974486 107.778218,177.077297 107.778218,177.077297 C107.778218,177.077297 91.4558613,193.745622 88.0968929,198.921081 C88.0968929,198.921081 105.405174,216.46573 128.720769,215.394162 C152.037122,214.324108 141.534752,216.084324 141.534752,216.084324 C141.534752,216.084324 144.127733,196.662162 145.532296,181.520973 C145.532296,181.520973 150.564303,170.327027 151.805809,160.716973 C151.805809,160.716973 162.144363,157.410703 163.218263,149.569189 C164.289887,141.728432 158.680735,135.786378 158.036092,130.06 C157.390691,124.335135 161.741651,108.135243 133.781595,105.626595" id="Fill-59" fill="#FEFE80" sketch:type="MSShapeGroup"></path>
                    <g id="Group-63" transform="translate(87.974790, 103.675676)">
                        <mask id="mask-8" sketch:name="Clip 61" fill="white">
                            <use xlink:href="#path-7"></use>
                        </mask>
                        <g id="Clip-61"></g>
                        <path d="M23.5833109,14.9451892 C23.5840693,14.9451892 18.1265987,41.9250811 29.2379664,46.9234595 C40.3485756,51.9218378 53.9088277,49.7575135 60.864145,52.4863784 C67.8202206,55.216 70.571708,53.2650811 73.954187,49.5531892 C73.954187,49.5531892 73.8646954,54.939027 63.8310189,57.0412973 C63.8310189,57.0412973 59.9715042,55.611027 54.7483803,55.2197838 C49.5260147,54.8255135 38.5435756,54.7543784 32.4475294,58.5336216 C26.3507248,62.3136216 30.5856492,79.3648649 30.5856492,79.3648649 C30.5856492,79.3648649 10.2028004,102.012324 19.2384181,108.108757 C28.2747941,114.205946 -7.10396429,100.025081 -4.89852731,95.5458378 C-2.69384874,91.0658378 14.2329559,70.3791351 14.2329559,70.3791351 C14.2329559,70.3791351 -5.77069118,31.328973 23.5833109,14.9451892" id="Fill-60" fill="#EBE775" sketch:type="MSShapeGroup" mask="url(#mask-8)"></path>
                        <path d="M19.5250945,41.3295135 C19.5250945,41.3295135 20.4677899,50.0851892 34.1251176,53.2567568 C34.1251176,53.2567568 18.0469664,52.6067027 19.5250945,41.3295135" id="Fill-62" fill="#D6CE72" sketch:type="MSShapeGroup" mask="url(#mask-8)"></path>
                    </g>
                    <path d="M158.068704,124.850486 C158.068704,124.850486 158.162746,126.455568 158.661017,129.079243 C159.170664,131.706703 160.07013,135.313405 162.03667,139.117622 C162.964197,141.067784 163.943296,143.215459 164.471903,145.631027 C164.729002,146.835027 164.866273,148.107892 164.774506,149.400432 C164.685773,150.689946 164.354351,151.993081 163.762038,153.166811 C162.575137,155.543784 160.491803,157.241189 158.373582,158.416432 C156.236401,159.612865 153.983943,160.334811 151.847521,160.847892 C151.847521,160.847892 152.083384,160.736649 152.545252,160.520216 C153.00712,160.314378 153.691958,160.001081 154.565639,159.551568 C155.442353,159.111892 156.503359,158.520865 157.683435,157.744432 C158.852134,156.962703 160.146729,155.954703 161.235038,154.56 C162.340032,153.187243 163.156832,151.374811 163.267559,149.262703 C163.394212,147.147568 162.839819,144.807676 161.935803,142.378486 C161.482277,141.159351 160.944569,139.912973 160.398519,138.595459 C159.8282,137.285514 159.393634,135.83027 159.009124,134.363676 C158.299258,131.400216 157.941292,128.180973 158.068704,124.850486" id="Fill-64" fill="#EBE775" sketch:type="MSShapeGroup"></path>
                    <path d="M141.88741,94.1844324 C141.88741,94.1844324 140.645145,103.79373 140.584473,105.830162 C140.584473,105.830162 148.785847,109.569297 148.373275,110.512216 C148.373275,110.512216 143.739431,136.808 138.171992,143.005081 C138.171992,143.005081 128.883067,119.387459 122.565567,105.179351 C122.565567,105.179351 128.752622,104.342378 129.266819,103.565189 C129.782534,102.79027 131.524586,91.5531892 131.899996,91.395027 C132.276922,91.2368649 141.88741,94.1844324 141.88741,94.1844324" id="Fill-65" fill="#FCCAB1" sketch:type="MSShapeGroup"></path>
                    <path d="M135.440981,129.933622 C135.440981,129.933622 140.183277,136.673297 138.171233,143.005081 C138.171233,143.005081 136.16829,132.945514 135.440981,129.933622" id="Fill-66" fill="#EDA68E" sketch:type="MSShapeGroup"></path>
                    <path d="M124.796032,107.348216 C124.79679,107.348216 132.246586,112.413946 135.327979,112.998919 C135.327979,112.998919 127.197895,111.962919 124.796032,107.348216" id="Fill-67" fill="#EDA68E" sketch:type="MSShapeGroup"></path>
                    <path d="M138.597456,113.051135 C138.597456,113.051135 144.782235,113.228973 147.889414,112.435135 C147.889414,112.435135 142.356103,114.834054 138.597456,113.051135" id="Fill-68" fill="#EDA68E" sketch:type="MSShapeGroup"></path>
                    <path d="M108.776277,108.702811 C108.777036,108.702811 105.832914,126.063568 97.0771471,140.439676 C88.3213803,154.817297 65.1028613,177.484432 60.4212374,186.819027 C55.7411303,196.154378 53.2520504,219.894595 53.2520504,219.894595 C53.2520504,219.894595 48.1404118,222.388865 48.048645,219.696324 C47.9553613,217.003784 48.5742185,196.612216 59.4565483,180.346486 C70.3366029,164.083027 86.0893992,151.287027 91.9404811,140.609946 C101.376536,123.391459 104.992603,109.263568 108.776277,108.702811 C115.108945,107.763676 108.776277,108.702811 108.776277,108.702811" id="Fill-69" fill="#DBB100" sketch:type="MSShapeGroup"></path>
                    <path d="M46.0942395,226.333838 C46.0942395,226.333838 30.9709181,243.963243 32.6477479,252.467676 C34.3268529,260.971351 60.2930672,279.66627 72.4434475,273.655351 C84.5938277,267.645189 86.3700084,242.875784 85.2104097,239.266811 C84.0485357,235.655568 55.5575966,222.671135 46.0942395,226.333838" id="Fill-70" fill="#BF9A00" sketch:type="MSShapeGroup"></path>
                    <path d="M86.2843088,239.704216 C87.9126008,237.763135 72.8522269,224.382162 63.1143277,220.113297 C53.3764286,215.843676 45.0324748,214.793297 43.2919391,217.13773 C41.5521618,219.479135 38.4222311,225.717081 41.3056807,231.269405 C44.1898887,236.82173 52.4587605,245.504757 55.9481744,246.297838 C59.4368298,247.090162 83.8399748,242.620757 86.2843088,239.704216" id="Fill-71" fill="#EFC100" sketch:type="MSShapeGroup"></path>
                    <path d="M52.972958,241.802703 C54.2349412,242.315784 55.676666,241.711135 56.1908634,240.450378 C56.7058193,239.190378 56.0983382,237.754054 54.8355966,237.240216 C53.5736134,236.726378 52.1334055,237.331784 51.6184496,238.591784 C51.1034937,239.852541 51.709458,241.290378 52.972958,241.802703" id="Fill-72" fill="#BF9A00" sketch:type="MSShapeGroup"></path>
                    <path d="M114.325515,104.035135 C114.325515,104.035135 124.712607,116.436108 123.080523,131.949622 C121.448439,147.463135 115.7005,160.038919 105.045691,168.955027 C94.3908824,177.868108 77.3374244,203.681838 80.6622647,232.567243 C80.6622647,232.567243 82.5552395,241.160216 83.9984811,238.774162 C85.4439979,236.389622 75.7053403,208.024108 108.237811,172.129622 C140.771798,136.235135 125.57567,115.704324 121.387008,108.888973 C117.303765,102.247676 113.093109,101.708865 114.325515,104.035135" id="Fill-73" fill="#EFC100" sketch:type="MSShapeGroup"></path>
                    <path d="M87.0290609,150.953297 C87.0290609,150.953297 64.5279916,195.198595 33.1065819,216.822162 C33.1065819,216.822162 2.01128571,216.445297 0.815283613,219.921081 C-0.381476891,223.397622 15.5563697,226.989946 15.5563697,226.989946 C15.5563697,226.989946 0.55287605,233.852216 1.37498529,237.104757 C2.19633613,240.357297 18.1994055,235.880324 18.1994055,235.880324 C18.1994055,235.880324 12.1996765,246.344 13.4897206,248.630919 C14.7790063,250.915568 28.0540987,238.222486 28.0540987,238.222486 C28.0540987,238.222486 30.2936639,245.967135 32.4983424,245.355676 C34.7022626,244.744973 37.7578697,230.963676 39.1882185,224.02573 C39.1882185,224.02573 80.7320378,197.249405 96.6016282,159.831568 C112.469702,122.414486 92.4888067,141.22973 87.0290609,150.953297" id="Fill-74" fill="#FFE2D2" sketch:type="MSShapeGroup"></path>
                    <g id="Group-80" transform="translate(0.000000, 136.972973)">
                        <mask id="mask-10" sketch:name="Clip 76" fill="white">
                            <use xlink:href="#path-9"></use>
                        </mask>
                        <g id="Clip-76"></g>
                        <path d="M97.7263403,21.5395676 C97.7263403,21.5395676 90.6587794,21.2277838 87.8443445,20.2636757 C87.8443445,20.2636757 57.6560987,73.1836757 33.9597857,81.8402162 C33.9597857,81.8402162 3.2482416,81.5102703 0.81225,83.6768649 C-1.6252584,85.8442162 -1.06176471,79.6478919 2.66047899,77.8619459 C6.38120588,76.0752432 33.6473235,75.8118919 33.6473235,75.8118919 C33.6473235,75.8118919 81.6845924,20.02 85.474334,12.7702703 C89.2633172,5.52205405 97.7263403,21.5395676 97.7263403,21.5395676" id="Fill-75" fill="#FCCAB1" sketch:type="MSShapeGroup" mask="url(#mask-10)"></path>
                        <path d="M26.941521,92.7027027 C26.941521,92.7027027 28.5053487,102.431568 29.0840105,104.187243 C29.0840105,104.187243 20.1416765,101.476541 26.941521,92.7027027" id="Fill-77" fill="#FCCAB1" sketch:type="MSShapeGroup" mask="url(#mask-10)"></path>
                        <path d="M15.5563697,90.016973 C15.5563697,90.016973 0.599138655,94.1231351 1.56610294,100.498054 C1.56610294,100.498054 9.58773529,94.0277838 20.9721282,90.9212973 L15.5563697,90.016973" id="Fill-78" fill="#FCCAB1" sketch:type="MSShapeGroup" mask="url(#mask-10)"></path>
                        <path d="M22.1863319,97.3817297 C22.1863319,97.3817297 18.5846744,96.092973 13.0513634,106.496108 C10.1337857,111.978054 14.3922206,112.088541 14.3922206,112.088541 C14.3922206,112.088541 14.0645903,108.447027 22.1863319,97.3817297" id="Fill-79" fill="#FCCAB1" sketch:type="MSShapeGroup" mask="url(#mask-10)"></path>
                    </g>
                    <path d="M113.812076,105.650811 C117.733021,105.927027 118.434544,116.881838 111.816716,134.410595 C105.199647,151.940865 97.827208,160.396108 97.827208,160.396108 L82.9981471,150.850378 C82.9981471,150.850378 99.3667668,104.636757 113.812076,105.650811" id="Fill-81" fill="#FEFE80" sketch:type="MSShapeGroup"></path>
                    <g id="Group-84" transform="translate(82.665966, 105.189189)">
                        <mask id="mask-12" sketch:name="Clip 83" fill="white">
                            <use xlink:href="#path-11"></use>
                        </mask>
                        <g id="Clip-83"></g>
                        <path d="M30.6630063,-1.14043243 C30.6630063,-1.14043243 21.4795,7.77643243 13.8666471,26.1187027 C6.25455252,44.4594595 11.7810378,53.032 11.7810378,53.032 C11.7810378,53.032 -1.19827731,49.2149189 -3.2254895,45.3130811 C-5.25346008,41.4104865 16.8949517,-5.93524324 30.6630063,-1.14043243" id="Fill-82" fill="#EBE775" sketch:type="MSShapeGroup" mask="url(#mask-12)"></path>
                    </g>
                    <path d="M96.3255693,236.217838 C96.3255693,236.217838 96.5432311,236.024108 96.9421513,235.666162 C97.1431282,235.488324 97.3903676,235.269622 97.6793193,235.013838 C97.9917815,234.773946 98.3474727,234.500757 98.7448761,234.197297 C100.354208,232.997838 102.825086,231.467676 105.914063,230.016216 C112.066989,227.069405 120.633914,224.544865 127.821303,223.445297 C127.821303,223.445297 127.033321,223.726811 125.524099,224.220216 C124.021702,224.712865 121.805647,225.440108 118.951775,226.376973 C116.117622,227.326703 112.650202,228.474703 108.752008,229.990486 C106.796086,230.741189 104.755223,231.609946 102.643069,232.605838 C100.540017,233.610811 98.368708,234.759568 96.3255693,236.217838" id="Fill-85" fill="#1A526B" sketch:type="MSShapeGroup"></path>
                    <path d="M100.138821,246.82 C100.138821,246.82 100.853996,245.975459 102.047723,244.564865 C102.62866,243.848216 103.447735,243.053622 104.330517,242.135676 C105.194338,241.202595 106.297815,240.252108 107.451347,239.219892 C108.01484,238.693189 108.663275,238.196 109.325361,237.685946 C109.988964,237.177405 110.654084,236.645405 111.36395,236.133081 C112.85042,235.161405 114.314897,234.098919 115.982626,233.220324 C119.184605,231.332216 122.802189,229.876216 126.097452,228.756216 C126.097452,228.756216 125.420956,229.163351 124.102851,229.879243 C122.761994,230.564865 120.874328,231.668973 118.455779,233.065946 C117.867258,233.431459 117.246884,233.817405 116.593899,234.223027 C116.264752,234.422054 115.928021,234.627135 115.583706,234.836 C115.243183,235.049405 114.916311,235.287027 114.568962,235.517838 C113.874265,235.979459 113.151506,236.460757 112.397653,236.96173 C111.67262,237.486162 110.920284,238.031784 110.140645,238.596324 C107.047876,240.877189 103.67829,243.611351 100.138821,246.82" id="Fill-86" fill="#1A526B" sketch:type="MSShapeGroup"></path>
                    <path d="M82.4589223,299.674162 C81.5981345,299.871676 79.0718929,297.680108 78.4833718,297.974486 C78.2148971,298.109189 77.6157584,305.527676 78.0996197,310.586595 C78.2695021,312.358162 83.9840714,321.909946 88.9546471,323.525622 C93.3996492,324.97027 85.8929727,314.254595 83.9188487,307.685946 C82.57875,303.230162 84.3276282,299.245838 82.4589223,299.674162" id="Fill-87" fill="#FFE2D2" sketch:type="MSShapeGroup"></path>
                    <path d="M172.915966,300.810811 C171.59862,301.664432 161.045437,305.791027 149.405462,297.027027 C146.505328,294.843027 140.268218,293.701838 132.720588,292.108108 C116.571147,288.698919 100.241964,288.607351 100.488445,287.567568 C100.488445,287.567568 112.333947,288.06173 128.755655,290.610486 C135.250622,291.61773 145.241828,293.573189 149.520739,293.938703 C167.986345,295.513514 175.902559,298.875027 172.915966,300.810811" id="Fill-88" fill="#FCCAB1" sketch:type="MSShapeGroup"></path>
                    <path d="M141.694775,247.585838 C141.694775,247.585838 158.283332,257.056649 157.717563,257.962486 C157.717563,257.962486 152.533118,253.708 136.765912,248.468216 C136.00675,248.216216 141.694775,247.585838 141.694775,247.585838" id="Fill-89" fill="#FCCAB1" sketch:type="MSShapeGroup"></path>
                    <path id="Fill-90" fill="#0B7189" sketch:type="MSShapeGroup"></path>
                    <path d="M261.263891,220.984324 C261.263891,228.893189 254.837939,235.304432 246.911866,235.304432 C238.98655,235.304432 232.560599,228.893189 232.560599,220.984324 C232.560599,213.074703 238.98655,206.663459 246.911866,206.663459 C254.837939,206.663459 261.263891,213.074703 261.263891,220.984324" id="Fill-91" fill="#FFFFFF" sketch:type="MSShapeGroup"></path>
                    <path d="M233.587477,226.257405 C237.059447,224.579676 239.84658,221.938595 241.425576,218.45373 C243.00533,214.968108 243.150943,211.135892 242.121032,207.42627 C242.339452,207.345297 242.561664,207.275676 242.783876,207.207568 C238.946355,208.360865 235.608622,211.095784 233.827891,215.026378 C232.04716,218.955459 232.193532,223.262919 233.862019,226.899892 C233.765702,226.687243 233.67166,226.475351 233.587477,226.257405" id="Fill-92" fill="#F67E56" sketch:type="MSShapeGroup"></path>
                    <path d="M259.513496,214.040324 C258.071013,211.409081 255.786702,209.203892 252.832721,207.870486 C249.636809,206.428865 246.189866,206.252541 243.056143,207.127351 C243.297315,207.059243 243.539246,206.996432 243.783452,206.944973 C244.930158,211.043568 244.764067,215.299568 243.011397,219.168108 C241.25721,223.038162 238.164441,225.973622 234.323128,227.822378 C234.201784,227.605189 234.088782,227.381946 233.981088,227.156432 C235.393235,230.082054 237.801166,232.547568 240.998595,233.989189 C243.951817,235.321838 247.119668,235.576108 250.053172,234.918486 C248.906466,230.819892 249.071798,226.563892 250.825227,222.693838 C252.578655,218.824541 255.671424,215.889081 259.513496,214.040324" id="Fill-93" fill="#FBBC96" sketch:type="MSShapeGroup"></path>
                    <path d="M260.248389,215.604541 C256.777935,217.283784 253.989286,219.924108 252.41029,223.40973 C250.832053,226.893838 250.685681,230.726811 251.715592,234.437189 C255.274021,233.184757 258.331145,230.538378 260.007975,226.837081 C261.685563,223.135784 261.656744,219.096973 260.248389,215.604541" id="Fill-94" fill="#F67E56" sketch:type="MSShapeGroup"></path>
                    <path d="M253.812578,204.450703 C257.648582,210.780973 251.748962,213.335027 249.294011,209.262919 C249.294011,209.262919 249.966714,211.905514 248.079807,213.411459 C246.193658,214.916649 244.277172,210.782486 244.277172,210.782486 C244.277172,210.782486 244.801229,213.883676 242.858958,214.944649 C240.918962,216.004865 237.895966,211.991784 236.607439,209.331784 C235.315878,206.672541 237.735185,202.730595 241.804019,204.954703 C241.92688,202.63827 244.696569,199.108757 247.843943,203.275459 C248.109384,201.458486 251.284819,199.279027 253.852773,205.098486" id="Fill-95" fill="#FFD5C0" sketch:type="MSShapeGroup"></path>
                    <g id="Group-98" transform="translate(235.863445, 201.297297)">
                        <mask id="mask-14" sketch:name="Clip 97" fill="white">
                            <use xlink:href="#path-13"></use>
                        </mask>
                        <g id="Clip-97"></g>
                        <path d="M9.46714916,10.9192432 C9.46714916,10.9192432 4.55042017,4.16216216 8.88697059,2.90594595 C10.2354118,2.5147027 11.2114769,1.94183784 12.2967521,4.03805405 C12.2967521,4.03805405 16.4277752,-3.37210811 18.7704832,6.24324324 C18.7704832,6.24324324 21.5538235,-0.566810811 14.6045735,-3.42735135 C7.65532353,-6.28864865 -4.22885714,-7.26864865 -4.41845798,-1.70194595 C-4.60881723,3.86551351 -0.0386785714,16.271027 9.46714916,10.9192432" id="Fill-96" fill="#F8BDA4" sketch:type="MSShapeGroup" mask="url(#mask-14)"></path>
                    </g>
                </g>
            </g>
        </g>
    </g>
</svg>