<?xml version="1.0" encoding="UTF-8" standalone="no"?>
<svg width="60px" height="60px" viewBox="0 0 60 60" version="1.1" xmlns="http://www.w3.org/2000/svg" xmlns:xlink="http://www.w3.org/1999/xlink" xmlns:sketch="http://www.bohemiancoding.com/sketch/ns">
    <!-- Generator: Sketch 3.3.3 (12081) - http://www.bohemiancoding.com/sketch -->
    <title>Oval 12 + Group Copy 8</title>
    <desc>Created with Sketch.</desc>
    <defs></defs>
    <g id="INTERNAS" stroke="none" stroke-width="1" fill="none" fill-rule="evenodd" sketch:type="MSPage">
        <g id="se-parte-de-kmimos-Paso-1" sketch:type="MSArtboardGroup" transform="translate(-472.000000, -322.000000)">
            <g id="Group" sketch:type="MSLayerGroup" transform="translate(472.000000, 322.000000)">
                <g id="Oval-12-+-Group-Copy-8" transform="translate(0.000885, 0.000000)" sketch:type="MSShapeGroup">
                    <circle id="Oval-12" fill="#ffffff" cx="30" cy="30" r="30"></circle>
                    <g id="Group-Copy-7" transform="translate(16.551724, 14.482759)" fill="#48CFC2">
                        <path d="M23.3546533,16.6234091 C24.9739105,22.1146591 21.9025367,27.4948295 16.320044,29.0669318 C10.6653467,30.6625568 5.17110418,27.6960795 3.5505099,22.2048295 C1.9285785,16.7148864 4.98658107,11.4235795 10.6439527,9.82926136 C16.2237711,8.25715909 21.7353962,11.1334659 23.3546533,16.6234091 L23.3546533,16.6234091 Z M19.6468085,17.6688636 C18.6145488,14.1626705 15.1968599,12.08875 11.6120304,13.1002273 C7.94697359,14.1339205 6.18196992,17.6675568 7.21824101,21.1724432 C8.26253485,24.7165341 11.693595,26.8296591 15.3586519,25.7972727 C18.9434813,24.7857955 20.6937766,21.2116477 19.6468085,17.6688636 L19.6468085,17.6688636 Z" id="Shape"></path>
                        <path d="M16.7211812,3.60488636 C17.9660437,1.82761364 20.1602641,1.38460227 21.6284263,2.61431818 C23.0965884,3.84664773 23.2771001,6.28647727 22.0335748,8.06375 C20.7900495,9.84102273 18.5944919,10.2853409 17.1263298,9.05431818 C15.662179,7.82329545 15.4803302,5.38346591 16.7211812,3.60488636 L16.7211812,3.60488636 Z" id="Shape"></path>
                        <path d="M15.3182108,3.3238678 C14.6550021,1.31533905 12.3623429,0.128153193 10.1974133,0.672213981 C8.03248357,1.21627477 6.81509817,3.28555745 7.47830686,5.2940862 C8.14151555,7.30261495 10.4341747,8.48980081 12.5991044,7.94574002 C14.7640341,7.40167923 15.9814195,5.33239655 15.3182108,3.3238678 L15.3182108,3.3238678 Z" id="Oval"></path>
                        <path d="M1.1171748,5.6156992 C-0.260886045,6.90917651 -0.298593897,9.1880072 1.03295196,10.70561 C2.36449782,12.2232128 4.56106805,12.4049025 5.9391289,11.1114252 C7.31718975,9.81794787 7.35489761,7.53911717 6.02335175,6.02151435 C4.69180589,4.50391153 2.49523565,4.3222219 1.1171748,5.6156992 L1.1171748,5.6156992 Z" id="Oval"></path>
                        <path d="M23.6941594,13.5840678 C25.1915254,14.2025107 26.9411768,13.4189805 27.6021152,11.8340042 C28.2630536,10.2490278 27.584995,8.46280367 26.087629,7.84436083 C24.590263,7.22591798 22.8406116,8.00944818 22.1796732,9.59442451 C21.5187348,11.1794008 22.1967934,12.965625 23.6941594,13.5840678 L23.6941594,13.5840678 Z" id="Oval"></path>
                    </g>
                </g>
            </g>
        </g>
    </g>
</svg>