<?xml version="1.0" encoding="UTF-8" standalone="no"?>
<svg width="19px" height="13px" viewBox="0 0 19 13" version="1.1" xmlns="http://www.w3.org/2000/svg" xmlns:xlink="http://www.w3.org/1999/xlink" xmlns:sketch="http://www.bohemiancoding.com/sketch/ns">
    <!-- Generator: Sketch 3.3.3 (12081) - http://www.bohemiancoding.com/sketch -->
    <title>Imported Layers Copy 5</title>
    <desc>Created with Sketch.</desc>
    <defs></defs>
    <g id="INTERNAS" stroke="none" stroke-width="1" fill="none" fill-rule="evenodd" sketch:type="MSPage">
        <g id="Resultados-filtro-hover-cuidador" sketch:type="MSArtboardGroup" transform="translate(-381.000000, -675.000000)" fill="#62D1B7">
            <g id="Group-Copy-12" sketch:type="MSLayerGroup" transform="translate(289.104500, 330.000000)">
                <g id="Group" transform="translate(17.000000, 345.000000)" sketch:type="MSShapeGroup">
                    <path d="M86.9375291,3.38746667 C86.9375291,3.62026667 86.9620625,3.84693333 87.0068625,4.06666667 L84.8041958,4.06693333 L81.8905958,4.06693333 C81.9351291,3.84693333 81.9599291,3.62026667 81.9599291,3.38746667 C81.9599291,1.51653333 80.4431291,0 78.5721958,0 C76.7012625,0 75.1847291,1.51653333 75.1844625,3.38746667 C75.1844625,4.69706667 75.9289958,5.8312 77.0164625,6.39466667 C75.9289958,6.9584 75.1844625,8.09226667 75.1844625,9.40186667 C75.1844625,11.2728 76.7012625,12.7896 78.5721958,12.7896 C80.4431291,12.7896 81.9599291,11.2728 81.9599291,9.40186667 C81.9599291,9.16906667 81.9353958,8.94213333 81.8905958,8.72266667 L87.0068625,8.72266667 C86.9620625,8.94213333 86.9375291,9.16906667 86.9375291,9.40186667 C86.9375291,11.2728 88.4540625,12.7896 90.3252625,12.7896 C92.1961958,12.7896 93.7129958,11.2728 93.7129958,9.40186667 C93.7127291,8.09226667 92.9684625,6.9584 91.8809958,6.39466667 C92.9684625,5.8312 93.7129958,4.69706667 93.7129958,3.38746667 C93.7129958,1.51653333 92.1961958,0 90.3252625,0 C88.4540625,0 86.9375291,1.5168 86.9375291,3.38746667" id="Imported-Layers-Copy-5"></path>
                </g>
            </g>
        </g>
    </g>
</svg>