<?xml version="1.0" encoding="UTF-8" standalone="no"?>
<svg width="16px" height="10px" viewBox="0 0 20 13" version="1.1" xmlns="http://www.w3.org/2000/svg" xmlns:xlink="http://www.w3.org/1999/xlink" xmlns:sketch="http://www.bohemiancoding.com/sketch/ns">
    <!-- Generator: Sketch 3.3.3 (12081) - http://www.bohemiancoding.com/sketch -->
    <title>Imported Layers Copy 6</title>
    <desc>Created with Sketch.</desc>
    <defs></defs>
    <g id="INTERNAS" stroke="none" stroke-width="1" fill="none" fill-rule="evenodd" sketch:type="MSPage">
        <g id="Resultados-filtro-hover-cuidador" sketch:type="MSArtboardGroup" transform="translate(-406.000000, -675.000000)" fill="#637988">
            <g id="Group-Copy-12" sketch:type="MSLayerGroup" transform="translate(289.104500, 330.000000)">
                <g id="Group" transform="translate(17.000000, 345.000000)" sketch:type="MSShapeGroup">
                    <path d="M112.174483,3.38746667 C112.174483,3.62026667 112.199017,3.84693333 112.243817,4.06666667 L110.04115,4.06693333 L107.12755,4.06693333 C107.172083,3.84693333 107.196883,3.62026667 107.196883,3.38746667 C107.196883,1.51653333 105.680083,0 103.80915,0 C101.938217,0 100.421683,1.51653333 100.421417,3.38746667 C100.421417,4.69706667 101.16595,5.8312 102.253417,6.39466667 C101.16595,6.9584 100.421417,8.09226667 100.421417,9.40186667 C100.421417,11.2728 101.938217,12.7896 103.80915,12.7896 C105.680083,12.7896 107.196883,11.2728 107.196883,9.40186667 C107.196883,9.16906667 107.17235,8.94213333 107.12755,8.72266667 L112.243817,8.72266667 C112.199017,8.94213333 112.174483,9.16906667 112.174483,9.40186667 C112.174483,11.2728 113.691017,12.7896 115.562217,12.7896 C117.43315,12.7896 118.94995,11.2728 118.94995,9.40186667 C118.949683,8.09226667 118.205417,6.9584 117.11795,6.39466667 C118.205417,5.8312 118.94995,4.69706667 118.94995,3.38746667 C118.94995,1.51653333 117.43315,0 115.562217,0 C113.691017,0 112.174483,1.5168 112.174483,3.38746667" id="Imported-Layers-Copy-6"></path>
                </g>
            </g>
        </g>
    </g>
</svg>