<?xml version="1.0" encoding="UTF-8" standalone="no"?>
<svg width="64px" height="68px" viewBox="0 0 64 68" version="1.1" xmlns="http://www.w3.org/2000/svg" xmlns:xlink="http://www.w3.org/1999/xlink" xmlns:sketch="http://www.bohemiancoding.com/sketch/ns">
    <!-- Generator: Sketch 3.3.3 (12081) - http://www.bohemiancoding.com/sketch -->
    <title>Group Copy 3</title>
    <desc>Created with Sketch.</desc>
    <defs></defs>
    <g id="INTERNAS" stroke="none" stroke-width="1" fill="none" fill-rule="evenodd" sketch:type="MSPage">
        <g id="Resultados-filtro-hover-cuidador" sketch:type="MSArtboardGroup" transform="translate(-394.000000, -367.000000)" fill="#FFFFFF">
            <g id="Mask-Copy-3-+-Group-Copy-3" sketch:type="MSLayerGroup" transform="translate(289.000000, 331.000000)">
                <g id="Group-Copy-3" transform="translate(105.508899, 35.705078)" sketch:type="MSShapeGroup">
                    <path d="M52.6777181,38.2338409 C56.3300426,50.8637159 49.4023883,63.238108 36.810766,66.8539432 C24.0562819,70.5238807 11.6637128,63.700983 8.00837234,51.071108 C4.35001596,38.4442386 11.2475106,26.274233 24.0080266,22.6073011 C36.593617,18.9914659 49.0253936,25.6069716 52.6777181,38.2338409 L52.6777181,38.2338409 Z M44.3144681,40.6383864 C41.9861489,32.574142 34.2773617,27.804125 26.1915798,30.1305227 C17.9248404,32.508017 13.9437766,40.6353807 16.2811436,48.6966193 C18.6366064,56.8480284 26.3755532,61.7082159 34.6422926,59.3337273 C42.7280745,57.0073295 46.6759628,48.7867898 44.3144681,40.6383864 L44.3144681,40.6383864 Z" id="Shape"></path>
                    <path d="M37.7155532,8.29123864 C40.5234096,4.20351136 45.4725957,3.18458523 48.784117,6.01293182 C52.0956383,8.84728977 52.5027926,14.4588977 49.6979521,18.546625 C46.8931117,22.6343523 41.9409096,23.6562841 38.6293883,20.8249318 C35.3269149,17.9935795 34.9167447,12.3819716 37.7155532,8.29123864 L37.7155532,8.29123864 Z" id="Shape"></path>
                    <path d="M34.5510754,7.64489594 C33.0551714,3.02527981 27.8839513,0.294752344 23.0008321,1.54609216 C18.1177129,2.79743197 15.3718325,7.55678212 16.8677366,12.1763983 C18.3636406,16.7960144 23.5348607,19.5265419 28.4179799,18.275202 C33.3010991,17.0238622 36.0469795,12.2645121 34.5510754,7.64489594 L34.5510754,7.64489594 Z" id="Oval"></path>
                    <path d="M2.51984984,12.9161082 C-0.588442969,15.891106 -0.673495124,21.1324166 2.32988053,24.6229031 C5.33325619,28.1133895 10.2877424,28.5312757 13.3960352,25.5562779 C16.504328,22.5812801 16.5893802,17.3399695 13.5860045,13.849483 C10.5826288,10.3589965 5.62814264,9.94111037 2.51984984,12.9161082 L2.51984984,12.9161082 Z" id="Oval"></path>
                    <path d="M53.4434929,31.243356 C56.8208851,32.6657746 60.7673211,30.8636551 62.2581043,27.2182095 C63.7488876,23.572764 62.2194888,19.4644484 58.8420966,18.0420299 C55.4647043,16.6196114 51.5182684,18.4217308 50.0274851,22.0671764 C48.5367019,25.7126219 50.0661007,29.8209375 53.4434929,31.243356 L53.4434929,31.243356 Z" id="Oval"></path>
                </g>
            </g>
        </g>
    </g>
</svg>