<?xml version="1.0" encoding="UTF-8" standalone="no"?>
<svg width="34px" height="34px" viewBox="0 0 34 34" version="1.1" xmlns="http://www.w3.org/2000/svg" xmlns:xlink="http://www.w3.org/1999/xlink" xmlns:sketch="http://www.bohemiancoding.com/sketch/ns">
    <!-- Generator: Sketch 3.4.1 (15681) - http://www.bohemiancoding.com/sketch -->
    <title>Oval 50 Copy + Imported Layers Copy Copy</title>
    <desc>Created with Sketch.</desc>
    <defs>
        <path id="path-1" d="M0,0 L16.6666667,0 L16.6666667,16.6666667 L0,16.6666667 L0,0 Z"></path>
    </defs>
    <g id="HOME" stroke="none" stroke-width="1" fill="none" fill-rule="evenodd" sketch:type="MSPage">
        <g id="Homepage-2-scrolldown" sketch:type="MSArtboardGroup" transform="translate(-670.000000, -3359.000000)">
            <g id="Oval-50-Copy-+-Imported-Layers-Copy-Copy" sketch:type="MSLayerGroup" transform="translate(670.000000, 3359.000000)">
                <g id="Oval-50-Copy-+-Page-1-Copy">
                    <ellipse id="Oval-50-Copy" fill="#637988" sketch:type="MSShapeGroup" cx="16.6851852" cy="16.682243" rx="16.6851852" ry="16.682243"></ellipse>
                    <g id="Page-1" transform="translate(8.333333, 8.333333)">
                        <path d="M12.8205208,4.48717262 C12.4673065,4.48717262 12.1794792,4.199375 12.1794792,3.84616071 L12.1794792,2.56410714 C12.1794792,2.21089286 12.4673065,1.92306548 12.8205208,1.92306548 L14.1025446,1.92306548 C14.4557589,1.92306548 14.7435863,2.21089286 14.7435863,2.56410714 L14.7435863,3.84616071 C14.7435863,4.199375 14.4557589,4.48717262 14.1025446,4.48717262 L12.8205208,4.48717262 Z" id="Fill-1" fill="#FFFFFF" sketch:type="MSShapeGroup"></path>
                        <path d="M8.33333333,5.88974702 C7.86794643,5.88974702 7.43848214,6.02626488 7.06860119,6.25063988 C7.1839881,6.21474702 7.30383929,6.19102679 7.43011905,6.19102679 C8.11473214,6.19102679 8.66922619,6.74552083 8.66922619,7.43075893 C8.66922619,8.11409226 8.11473214,8.66986607 7.43011905,8.66986607 C6.74550595,8.66986607 6.19104167,8.11474702 6.19104167,7.43075893 C6.19104167,7.3031994 6.2160119,7.18331845 6.25127976,7.06858631 C6.02565476,7.43846726 5.8897619,7.86796131 5.8897619,8.33331845 C5.8897619,9.68397321 6.98267857,10.7775446 8.33395833,10.7775446 C9.68333333,10.7775446 10.7781845,9.68462798 10.7781845,8.33331845 C10.7781845,6.98203869 9.68270833,5.88974702 8.33333333,5.88974702" id="Fill-3" fill="#FFFFFF" sketch:type="MSShapeGroup"></path>
                        <path d="M8.33333333,3.20513095 C5.50577381,3.20513095 3.20511905,5.50575595 3.20511905,8.33334524 C3.20511905,11.160875 5.50577381,13.4615298 8.33333333,13.4615298 C11.1608929,13.4615298 13.4615476,11.160875 13.4615476,8.33334524 C13.4615476,5.50575595 11.1608929,3.20513095 8.33333333,3.20513095 M8.33333333,4.48718452 C10.4570536,4.48718452 12.1794643,6.20897024 12.1794643,8.33334524 C12.1794643,10.4577202 10.4563988,12.1794762 8.33333333,12.1794762 C6.2096131,12.1794762 4.48720238,10.4577202 4.48720238,8.33334524 C4.48720238,6.20897024 6.2096131,4.48718452 8.33333333,4.48718452" id="Fill-5" fill="#FFFFFF" sketch:type="MSShapeGroup"></path>
                        <g id="Group-9">
                            <mask id="mask-2" sketch:name="Clip 8" fill="white">
                                <use xlink:href="#path-1"></use>
                            </mask>
                            <g id="Clip-8"></g>
                            <path d="M15.3846101,5.76923214 L11.1942232,5.76923214 C11.8051161,6.45066071 12.1794911,7.34679167 12.1794911,8.33333929 C12.1794911,10.4577143 10.4563958,12.1794702 8.33333036,12.1794702 C6.20961012,12.1794702 4.4871994,10.4577143 4.4871994,8.33333929 C4.4871994,7.34679167 4.86154464,6.45000595 5.4724375,5.76923214 L1.2820506,5.76923214 L1.2820506,3.12500595 C1.2820506,2.10896429 2.10895536,1.28205952 3.12499702,1.28205952 L13.5416637,1.28205952 C14.5583304,1.28205952 15.3846101,2.10896429 15.3846101,3.12500595 L15.3846101,5.76923214 Z M13.5416637,5.95238095e-06 L3.12499702,5.95238095e-06 C1.39871726,5.95238095e-06 -2.97619048e-06,1.39872619 -2.97619048e-06,3.12500595 L-2.97619048e-06,13.5416726 C-2.97619048e-06,15.2679524 1.39871726,16.6666726 3.12499702,16.6666726 L13.5416637,16.6666726 C15.2679435,16.6666726 16.6666637,15.2679524 16.6666637,13.5416726 L16.6666637,3.12500595 C16.6666637,1.39872619 15.2679435,5.95238095e-06 13.5416637,5.95238095e-06 L13.5416637,5.95238095e-06 Z" id="Fill-7" fill="#FFFFFF" sketch:type="MSShapeGroup" mask="url(#mask-2)"></path>
                        </g>
                    </g>
                </g>
            </g>
        </g>
    </g>
</svg>