<?xml version="1.0" encoding="UTF-8" standalone="no"?>
<svg width="179px" height="44px" viewBox="0 0 179 44" version="1.1" xmlns="http://www.w3.org/2000/svg" xmlns:xlink="http://www.w3.org/1999/xlink" xmlns:sketch="http://www.bohemiancoding.com/sketch/ns">
    <!-- Generator: Sketch 3.4 (15588) - http://www.bohemiancoding.com/sketch -->
    <title>Group Copy 5</title>
    <desc>Created with Sketch.</desc>
    <defs></defs>
    <g id="HOME" stroke="none" stroke-width="1" fill="none" fill-rule="evenodd" sketch:type="MSPage">
        <g id="Homepage-2-scrolldown" sketch:type="MSArtboardGroup" transform="translate(-85.000000, -12.000000)" fill="#FFFFFF">
            <g id="header-copy" sketch:type="MSLayerGroup" transform="translate(0.581525, 0.000000)">
                <g id="Group-Copy" transform="translate(84.000000, 10.000000)" sketch:type="MSShapeGroup">
                    <g id="Group-Copy-5">
                        <path d="M6.55085106,45.6856667 L1.0206383,45.6856667 L1.0206383,15.4751667 L6.55085106,15.4751667 L6.55085106,31.6863333 L16.47,21.1849167 L23.4114894,21.1849167 L11.7746809,33.1506667 L23.9342553,45.6875833 L16.6270213,45.6875833 L6.55276596,34.97725 L6.55276596,45.6856667 L6.55085106,45.6856667 Z" id="Shape"></path>
                        <path d="M65.8914894,31.2148333 L65.8914894,45.6856667 L60.3593617,45.6856667 L60.3593617,31.7898333 C60.3593617,27.7686667 58.5861702,25.6239167 55.2982979,25.6239167 C51.5910638,25.6239167 49.6608511,28.0810833 49.6608511,33.0433333 L49.6608511,45.6856667 L44.1248936,45.6856667 L44.1248936,31.7898333 C44.1248936,27.7686667 42.3517021,25.6239167 39.0140426,25.6239167 C35.3585106,25.6239167 33.426383,28.0810833 33.426383,32.6274167 L33.426383,45.6856667 L27.8942553,45.6856667 L27.8942553,21.183 L32.4842553,21.183 L32.6431915,24.7365 L32.7485106,24.7365 C34.2114894,22.07425 36.7678723,20.6616667 40.4234043,20.6616667 C43.8682979,20.6616667 46.5797872,22.17775 48.042766,25.0508333 L48.1480851,25.0508333 C49.6608511,22.126 52.3742553,20.6616667 56.7095745,20.6616667 C62.603617,20.65975 65.8914894,24.4739167 65.8914894,31.2148333 L65.8914894,31.2148333 Z" id="Shape"></path>
                        <path d="M78.1582979,13.5565833 C78.1582979,15.64575 76.7451064,17.0583333 74.6080851,17.0583333 C72.5189362,17.0583333 71.1114894,15.6476667 71.1114894,13.5565833 C71.1114894,11.4655 72.5189362,10.0030833 74.6080851,10.0030833 C76.7451064,10.0030833 78.1582979,11.4655 78.1582979,13.5565833 L78.1582979,13.5565833 Z M77.3731915,21.183 L77.3731915,45.6856667 L71.8410638,45.6856667 L71.8410638,21.183 L77.3731915,21.183 L77.3731915,21.183 Z" id="Shape"></path>
                        <path d="M121.999787,31.2148333 L121.999787,45.6856667 L116.465745,45.6856667 L116.465745,31.7898333 C116.465745,27.7686667 114.690638,25.6239167 111.400851,25.6239167 C107.695532,25.6239167 105.763404,28.0810833 105.763404,33.0433333 L105.763404,45.6856667 L100.231277,45.6856667 L100.231277,31.7898333 C100.231277,27.7686667 98.4561702,25.6239167 95.1165957,25.6239167 C91.4610638,25.6239167 89.5308511,28.0810833 89.5308511,32.6274167 L89.5308511,45.6856667 L83.9987234,45.6856667 L83.9987234,21.183 L88.5906383,21.183 L88.7457447,24.7365 L88.8529787,24.7365 C90.3121277,22.07425 92.8742553,20.6616667 96.5240426,20.6616667 C99.9708511,20.6616667 102.684255,22.17775 104.147234,25.0508333 L104.250638,25.0508333 C105.761489,22.126 108.480638,20.6616667 112.808298,20.6616667 C118.708085,20.65975 121.999787,24.4739167 121.999787,31.2148333 L121.999787,31.2148333 Z" id="Shape"></path>
                        <path d="M177.57766,21.8365833 L177.57766,27.531 L177.319149,27.531 C175.647447,25.8079167 173.092979,24.9205 169.906596,24.9205 C167.244894,24.9205 165.368298,26.1203333 165.368298,27.8434167 C165.368298,29.2540833 166.461702,29.8808333 170.063617,30.08975 C176.58766,30.4558333 179.144043,32.8574167 179.144043,37.8215833 C179.144043,42.6285833 175.438723,45.6070833 169.334043,45.6070833 C165.262979,45.6070833 162.076596,44.7714167 160.039149,43.2035833 L160.039149,37.4056667 L160.305319,37.4056667 C162.338936,39.60025 165.312766,40.7483333 169.069787,40.7483333 C171.942128,40.7483333 173.717234,39.60025 173.717234,37.8235 C173.717234,36.2058333 172.618085,35.4736667 168.65234,35.1593333 C162.287234,34.638 159.935745,32.6504167 159.935745,28.0025 C159.935745,23.1974167 163.851702,20.0598333 169.749574,20.0598333 C172.934043,20.0598333 175.806383,20.6885 177.57766,21.8365833 L177.57766,21.8365833 Z" id="Shape"></path>
                        <g id="Group" transform="translate(118.723404, 0.000000)">
                            <path d="M36.4461702,26.381 C38.7651064,34.4348333 34.3665957,42.32575 26.3719149,44.6315 C18.2738298,46.97175 10.4055319,42.6209167 8.08468085,34.5670833 C5.76191489,26.5151667 10.1412766,18.7545833 18.2431915,16.41625 C26.2340426,14.1105 34.127234,18.3290833 36.4461702,26.381 L36.4461702,26.381 Z M31.1361702,27.9143333 C29.6578723,22.7719167 24.7634043,19.7301667 19.6295745,21.2136667 C14.3808511,22.72975 11.8531915,27.9124167 13.337234,33.0529167 C14.832766,38.2509167 19.746383,41.3501667 24.9951064,39.836 C30.1289362,38.3525 32.6355319,33.1104167 31.1361702,27.9143333 L31.1361702,27.9143333 Z" id="Shape"></path>
                            <path d="M26.946383,7.28716667 C28.7291489,4.6805 31.8714894,4.03075 33.9740426,5.83433333 C36.0765957,7.64175 36.3351064,11.2201667 34.5542553,13.8268333 C32.7734043,16.4335 29.6291489,17.0851667 27.5265957,15.2796667 C25.4297872,13.4741667 25.1693617,9.89575 26.946383,7.28716667 L26.946383,7.28716667 Z" id="Shape"></path>
                            <path d="M24.9371907,6.87500611 C23.9874104,3.92916393 20.7040961,2.18795802 17.6037029,2.98591384 C14.5033098,3.78386966 12.7598937,6.81881759 13.709674,9.76465976 C14.6594544,12.7105019 17.9427687,14.4517078 21.0431618,13.653752 C24.143555,12.8557962 25.8869711,9.82084828 24.9371907,6.87500611 L24.9371907,6.87500611 Z" id="Oval"></path>
                            <path d="M4.59990466,10.2363588 C2.62638542,12.1334589 2.57238405,15.4757439 4.47928923,17.7015614 C6.3861944,19.9273788 9.53189993,20.193857 11.5054192,18.2967569 C13.4789384,16.3996569 13.5329398,13.0573719 11.6260346,10.8315544 C9.71912943,8.60573691 6.5734239,8.33925879 4.59990466,10.2363588 L4.59990466,10.2363588 Z" id="Oval"></path>
                            <path d="M36.9323764,21.9232995 C39.0767525,22.830349 41.5824261,21.6811714 42.5289551,19.3565394 C43.4754842,17.0319075 42.5044373,14.412112 40.3600613,13.5050625 C38.2156853,12.598013 35.7100117,13.7471907 34.7634826,16.0718226 C33.8169536,18.3964546 34.7880004,21.01625 36.9323764,21.9232995 L36.9323764,21.9232995 Z" id="Oval"></path>
                        </g>
                    </g>
                </g>
            </g>
        </g>
    </g>
</svg>