<?xml version="1.0" encoding="UTF-8" standalone="no"?>
<svg width="41px" height="36px" viewBox="0 0 41 36" version="1.1" xmlns="http://www.w3.org/2000/svg" xmlns:xlink="http://www.w3.org/1999/xlink" xmlns:sketch="http://www.bohemiancoding.com/sketch/ns">
    <!-- Generator: Sketch 3.3.3 (12081) - http://www.bohemiancoding.com/sketch -->
    <title>Imported Layers + Imported Layers</title>
    <desc>Created with Sketch.</desc>
    <defs></defs>
    <g id="INTERNAS" stroke="none" stroke-width="1" fill="none" fill-rule="evenodd" sketch:type="MSPage">
        <g id="perfil-del-cuidador" sketch:type="MSArtboardGroup" transform="translate(-876.000000, -1582.000000)">
            <g id="Imported-Layers-+-Imported-Layers" sketch:type="MSLayerGroup" transform="translate(876.000000, 1582.000000)">
                <path d="M0,20.519084 L3.84855234,24.3664122 L7.69710468,20.519084 L10.2628062,35.9083969 L17.9599109,35.9083969 L17.9599109,28.2137405 L23.091314,28.2137405 L23.091314,35.9083969 L30.7884187,35.9083969 L33.3541203,20.519084 L37.2026726,24.3664122 L41.0512249,20.519084 L20.5256125,0 L0,20.519084 Z" id="Imported-Layers" fill="#62D1B7" sketch:type="MSShapeGroup"></path>
                <path d="M26.7023888,14.3908272 L26.7023888,12.9792899 L24.0217919,12.9792899 L24.0217919,10.2857143 L22.6231756,10.2857143 L22.6231756,12.9792899 L18.5051129,12.9792899 L18.5051129,10.2857143 L17.0935756,10.2857143 L17.0935756,12.9792899 L14.4,12.9792899 L14.4,14.3778773 L17.0935756,14.3778773 L17.0935756,18.5088899 L14.4,18.5088899 L14.4,19.9074773 L17.0935756,19.9074773 L17.0935756,22.588103 L18.492163,22.588103 L18.492163,19.9074773 L22.6231756,19.9074773 L22.6231756,22.588103 L24.0217919,22.588103 L24.0217919,19.9074773 L26.7023888,19.9074773 L26.7023888,18.5088899 L24.0217919,18.5088899 L24.0217919,14.3908272 L26.7023888,14.3908272 L26.7023888,14.3908272 Z M18.5051129,14.3908272 L22.6231756,14.3908272 L22.6231756,18.5088899 L18.5051129,18.5088899 L18.5051129,14.3908272 Z" id="Imported-Layers" stroke="#FFFFFF" stroke-width="0.6" fill="#FFFFFF" sketch:type="MSShapeGroup"></path>
            </g>
        </g>
    </g>
</svg>