<?xml version="1.0" encoding="UTF-8" standalone="no"?>
<svg width="36px" height="36px" viewBox="0 0 36 36" version="1.1" xmlns="http://www.w3.org/2000/svg" xmlns:xlink="http://www.w3.org/1999/xlink" xmlns:sketch="http://www.bohemiancoding.com/sketch/ns">
    <!-- Generator: Sketch 3.3.3 (12081) - http://www.bohemiancoding.com/sketch -->
    <title>Imported Layers</title>
    <desc>Created with Sketch.</desc>
    <defs></defs>
    <g id="INTERNAS" stroke="none" stroke-width="1" fill="none" fill-rule="evenodd" sketch:type="MSPage">
        <g id="perfil-del-cuidador" sketch:type="MSArtboardGroup" transform="translate(-596.000000, -1582.000000)">
            <g id="Imported-Layers" sketch:type="MSLayerGroup" transform="translate(596.000000, 1582.000000)">
                <path d="M36,18 C36,27.9411328 27.9411328,36 18,36 C8.05886719,36 0,27.9411328 0,18 C0,8.05886719 8.05886719,0 18,0 C27.9411328,0 36,8.05886719 36,18" id="Fill-1" fill="#62D1B7" sketch:type="MSShapeGroup"></path>
                <path d="M21.9059297,15.3421875 L21.9059297,14.5425234 L24.1326562,14.5425234 L24.874875,13.429125 L19.6794844,9.71845312 L19.6794844,13.6396406 L21.9059297,15.3421875" id="Fill-2" fill="#FFFFFF" sketch:type="MSShapeGroup"></path>
                <path d="M23.9049844,18.9660234 L21.9062109,17.6333906 L21.9062109,16.2760078 L19.6115625,14.5208672 L14.1134063,12.7566562 L14.1134063,11.7592031 C14.1134063,11.4519375 13.8640781,11.2026797 13.5568828,11.2026797 C13.2496172,11.2026797 13.0002891,11.4519375 13.0002891,11.7592031 L13.0002891,14.0343047 L8.90057813,15.9268359 C8.43546094,16.1413594 8.23239844,16.6925391 8.44720313,17.1577266 C8.60378906,17.4970547 8.93939063,17.6971641 9.29017969,17.6971641 C9.42025781,17.6971641 9.55251563,17.6693906 9.678375,17.6111719 L10.6614141,17.1574453 C10.566,17.3880703 10.5609375,17.6555391 10.6737188,17.8999453 C10.8302344,18.2392734 11.1661172,18.4395937 11.5165547,18.4395937 C11.6467031,18.4395937 11.7788906,18.41175 11.90475,18.3537422 L15.1891172,16.8375937 L22.0261641,23.0232656 C22.2037734,23.1841406 22.4266641,23.2629609 22.6483594,23.2629609 C22.9011328,23.2629609 23.1536953,23.1600937 23.3364375,22.9573125 C23.6803359,22.577625 23.6505938,21.9908672 23.2709766,21.64725 L20.5777266,19.2110625 L20.7179297,19.0707187 L22.8758203,20.5095234 C23.0342344,20.6150625 23.2130391,20.6653359 23.3895938,20.6653359 C23.6896172,20.6653359 23.9840156,20.5205625 24.1623281,20.25225 C24.4469531,19.8264375 24.3314297,19.2500156 23.9049844,18.9660234" id="Fill-3" fill="#FFFFFF" sketch:type="MSShapeGroup"></path>
                <path d="M27.6579141,15.6561328 C28.5802031,15.6561328 29.3278359,16.4037656 29.3278359,17.3260547 C29.3278359,18.2483437 28.5802031,18.9961875 27.6579141,18.9961875 C26.735625,18.9961875 25.9879922,18.2483437 25.9879922,17.3260547 C25.9879922,16.4037656 26.735625,15.6561328 27.6579141,15.6561328" id="Fill-4" fill="#FFFFFF" sketch:type="MSShapeGroup"></path>
                <path d="M34.2682031,20.2191328 C34.2682031,20.2191328 26.1514687,21.2285391 17.5490156,30.2049844 C15.123375,32.7360937 14.2505156,33.9874453 14.2505156,33.9874453 C15.4548984,34.2688359 16.7099062,34.4180391 18,34.4180391 C26.3146641,34.4180391 33.1846875,28.2368672 34.2682031,20.2191328" id="Fill-5" fill="#FFFFFF" sketch:type="MSShapeGroup"></path>
                <path d="M22.0205391,24.5008125 C17.2710703,21.98925 8.65722656,18.9092109 1.58364844,18.1325391 C1.64053125,25.3091953 6.30098437,31.3891172 12.7580625,33.5631797 L16.7480859,29.1068437 C16.9097344,28.9364062 19.0430156,26.7112969 22.0205391,24.5008125" id="Fill-6" fill="#FFFFFF" sketch:type="MSShapeGroup"></path>
                <path d="M28.0290937,13.4298984 C28.3364297,13.4298984 28.5856172,13.6790859 28.5856172,13.9864922 C28.5856172,14.2938281 28.3364297,14.5430859 28.0290937,14.5430859 C27.7216875,14.5430859 27.4725,14.2938281 27.4725,13.9864922 C27.4725,13.6790859 27.7216875,13.4298984 28.0290937,13.4298984" id="Fill-7" fill="#FFFFFF" sketch:type="MSShapeGroup"></path>
                <path d="M28.0290937,11.2034531 C28.3364297,11.2034531 28.5856172,11.4526406 28.5856172,11.7599766 C28.5856172,12.0673828 28.3364297,12.3165703 28.0290937,12.3165703 C27.7216875,12.3165703 27.4725,12.0673828 27.4725,11.7599766 C27.4725,11.4526406 27.7216875,11.2034531 28.0290937,11.2034531" id="Fill-8" fill="#FFFFFF" sketch:type="MSShapeGroup"></path>
                <path d="M27.2870156,8.97700781 C27.5944219,8.97700781 27.8436094,9.22619531 27.8436094,9.53353125 C27.8436094,9.8409375 27.5944219,10.0900547 27.2870156,10.0900547 C26.9796797,10.0900547 26.7304922,9.8409375 26.7304922,9.53353125 C26.7304922,9.22619531 26.9796797,8.97700781 27.2870156,8.97700781" id="Fill-9" fill="#FFFFFF" sketch:type="MSShapeGroup"></path>
                <path d="M26.1736875,7.12139063 C26.4810234,7.12139063 26.7302813,7.37057813 26.7302813,7.67791406 C26.7302813,7.98532031 26.4810234,8.2344375 26.1736875,8.2344375 C25.8663516,8.2344375 25.6170938,7.98532031 25.6170938,7.67791406 C25.6170938,7.37057813 25.8663516,7.12139063 26.1736875,7.12139063" id="Fill-10" fill="#FFFFFF" sketch:type="MSShapeGroup"></path>
                <path d="M24.3180703,6.00799219 C24.6254766,6.00799219 24.8746641,6.25717969 24.8746641,6.56451562 C24.8746641,6.87192187 24.6254766,7.12110937 24.3180703,7.12110937 C24.0106641,7.12110937 23.7614766,6.87192187 23.7614766,6.56451562 C23.7614766,6.25717969 24.0106641,6.00799219 24.3180703,6.00799219" id="Fill-11" fill="#FFFFFF" sketch:type="MSShapeGroup"></path>
                <path d="M22.0915547,6.00799219 C22.3989609,6.00799219 22.6481484,6.25717969 22.6481484,6.56451562 C22.6481484,6.87192187 22.3989609,7.12110937 22.0915547,7.12110937 C21.7842187,7.12110937 21.5350312,6.87192187 21.5350312,6.56451562 C21.5350312,6.25717969 21.7842187,6.00799219 22.0915547,6.00799219" id="Fill-12" fill="#FFFFFF" sketch:type="MSShapeGroup"></path>
                <path d="M19.8651094,6.75021094 C20.1725156,6.75021094 20.4216328,6.99939844 20.4216328,7.30680469 C20.4216328,7.61414063 20.1725156,7.86339844 19.8651094,7.86339844 C19.5577031,7.86339844 19.3085156,7.61414063 19.3085156,7.30680469 C19.3085156,6.99939844 19.5577031,6.75021094 19.8651094,6.75021094" id="Fill-13" fill="#FFFFFF" sketch:type="MSShapeGroup"></path>
                <path d="M18.0095625,7.86360937 C18.3168984,7.86360937 18.5660859,8.11279687 18.5660859,8.42013281 C18.5660859,8.72753906 18.3168984,8.97672656 18.0095625,8.97672656 C17.7021562,8.97672656 17.4529687,8.72753906 17.4529687,8.42013281 C17.4529687,8.11279687 17.7021562,7.86360937 18.0095625,7.86360937" id="Fill-14" fill="#FFFFFF" sketch:type="MSShapeGroup"></path>
                <path d="M17.2674844,6.00799219 C17.5748906,6.00799219 17.8240781,6.25717969 17.8240781,6.56451562 C17.8240781,6.87192187 17.5748906,7.12110937 17.2674844,7.12110937 C16.9601484,7.12110937 16.7109609,6.87192187 16.7109609,6.56451562 C16.7109609,6.25717969 16.9601484,6.00799219 17.2674844,6.00799219" id="Fill-15" fill="#FFFFFF" sketch:type="MSShapeGroup"></path>
                <path d="M16.5252656,4.15265625 C16.8326016,4.15265625 17.0817891,4.40177344 17.0817891,4.70917969 C17.0817891,5.01658594 16.8326016,5.26577344 16.5252656,5.26577344 C16.2178594,5.26577344 15.9686719,5.01658594 15.9686719,4.70917969 C15.9686719,4.40177344 16.2178594,4.15265625 16.5252656,4.15265625" id="Fill-16" fill="#FFFFFF" sketch:type="MSShapeGroup"></path>
                <path d="M14.6699297,3.41036719 C14.9773359,3.41036719 15.2265234,3.65955469 15.2265234,3.96696094 C15.2265234,4.27436719 14.9773359,4.52355469 14.6699297,4.52355469 C14.3625938,4.52355469 14.1134063,4.27436719 14.1134063,3.96696094 C14.1134063,3.65955469 14.3625938,3.41036719 14.6699297,3.41036719" id="Fill-17" fill="#FFFFFF" sketch:type="MSShapeGroup"></path>
                <path d="M12.8143125,4.15265625 C13.1216484,4.15265625 13.3709063,4.40177344 13.3709063,4.70917969 C13.3709063,5.01658594 13.1216484,5.26577344 12.8143125,5.26577344 C12.5069063,5.26577344 12.2577188,5.01658594 12.2577188,4.70917969 C12.2577188,4.40177344 12.5069063,4.15265625 12.8143125,4.15265625" id="Fill-18" fill="#FFFFFF" sketch:type="MSShapeGroup"></path>
            </g>
        </g>
    </g>
</svg>