<?xml version="1.0" encoding="UTF-8" standalone="no"?>
<svg width="60px" height="37px" viewBox="0 0 60 37" version="1.1" xmlns="http://www.w3.org/2000/svg" xmlns:xlink="http://www.w3.org/1999/xlink" xmlns:sketch="http://www.bohemiancoding.com/sketch/ns">
    <!-- Generator: Sketch 3.3.3 (12081) - http://www.bohemiancoding.com/sketch -->
    <title>Imported Layers Copy 10</title>
    <desc>Created with Sketch.</desc>
    <defs></defs>
    <g id="INTERNAS" stroke="none" stroke-width="1" fill="none" fill-rule="evenodd" sketch:type="MSPage">
        <g id="perfil-del-cuidador" sketch:type="MSArtboardGroup" transform="translate(-735.000000, -1582.000000)" fill="#62D1B7">
            <g id="Imported-Layers-Copy-10" sketch:type="MSLayerGroup" transform="translate(735.401432, 1582.857272)">
                <path d="M35.120463,14.1657366 L39.7473963,14.1657366 L32.1267021,8.74466341 L32.1267021,1.94066341 L27.5904508,1.94066341 L27.5904508,5.51678049 L19.8788953,0.0316097561 L0.0116488753,14.1657366 L4.63822373,14.1657366 L4.63822373,32.4010537 L1.64392513,32.4010537 L1.64392513,35.9344976 L38.1140448,35.9344976 L38.1140448,32.4010537 L35.120463,32.4010537 L35.120463,14.1657366 L35.120463,14.1657366 Z M11.714109,18.5217366 L17.1573596,18.5217366 L17.1573596,23.8553561 L11.714109,23.8553561 L11.714109,18.5217366 Z M22.6004311,21.8997659 L28.0436817,21.8997659 L28.0436817,32.5671805 L22.6004311,32.5671805 L22.6004311,21.8997659 Z" id="Fill-1" sketch:type="MSShapeGroup"></path>
                <path d="M59.2282586,31.7890537 L54.9794657,12.0642146 L51.1770936,31.7890537 L54.4142264,31.7890537 L54.4142264,35.9344976 L55.9920218,35.9344976 L55.9920218,31.7890537 L59.2282586,31.7890537" id="Fill-2" sketch:type="MSShapeGroup"></path>
                <path d="M49.5122005,26.7321951 C49.5122005,23.7889756 47.0770479,21.4027902 44.0727133,21.4027902 C41.0683788,21.4027902 38.6332262,23.7889756 38.6332262,26.7321951 C38.6332262,29.4123512 40.6542165,31.6239805 43.2836364,31.9983805 L43.2836364,35.9344976 L44.8610734,35.9344976 L44.8610734,31.9983805 C47.4913894,31.6231024 49.5122005,29.4116488 49.5122005,26.7321951" id="Fill-3" sketch:type="MSShapeGroup"></path>
            </g>
        </g>
    </g>
</svg>