<?xml version="1.0" encoding="UTF-8" standalone="no"?>
<svg width="34px" height="28px" viewBox="0 0 34 28" version="1.1" xmlns="http://www.w3.org/2000/svg" xmlns:xlink="http://www.w3.org/1999/xlink" xmlns:sketch="http://www.bohemiancoding.com/sketch/ns">
    <!-- Generator: Sketch 3.3.3 (12081) - http://www.bohemiancoding.com/sketch -->
    <title>Fill 1 + Fill 2 + Fill 3 Copy 2</title>
    <desc>Created with Sketch.</desc>
    <defs></defs>
    <g id="INTERNAS" stroke="none" stroke-width="1" fill="none" fill-rule="evenodd" sketch:type="MSPage">
        <g id="perfil-del-cuidador" sketch:type="MSArtboardGroup" transform="translate(-402.000000, -1591.000000)" fill="#62D1B7">
            <g id="Fill-1-+-Fill-2-+-Fill-3-Copy-+-Fill-1-+-Fill-2-+-Fill-3-Copy-2" sketch:type="MSLayerGroup" transform="translate(401.000000, 1589.857272)">
                <g id="Fill-1-+-Fill-2-+-Fill-3-Copy-2" transform="translate(0.719804, 0.848412)" sketch:type="MSShapeGroup">
                    <path d="M28.6401855,1.05050029 C28.6602422,0.879752229 28.6911405,0.783639327 28.6775886,0.693432806 C28.6613264,0.577452992 28.629344,0.388448851 28.5686317,0.373414431 C28.4520857,0.344419478 28.2607335,0.3718036 28.1864693,0.453419025 C27.8948333,0.772900456 27.6568627,1.14124375 27.3608901,1.45589269 C26.9792698,1.86021121 26.5640409,2.23285005 26.1601955,2.61569083 C25.9276456,2.8358377 25.6555243,3.02269406 25.4576672,3.26968811 C24.7334559,4.17282722 23.9761781,5.05556246 23.3381566,6.01561759 C21.9889336,8.04687516 20.0613174,9.10626485 17.695705,9.43272654 C15.5675213,9.72589774 13.4312064,9.9594682 11.2943494,10.1796151 C10.7723319,10.2333094 10.2340521,10.1269946 9.70281924,10.0985366 C9.0219739,10.0636353 8.76828312,10.3224421 8.88699739,10.9925476 C8.97481343,11.4865357 8.90271755,11.9182384 8.54982717,12.2812122 C7.79851217,13.054411 7.37244175,13.9940623 7.10845156,15.0158659 C6.65690366,16.7646912 5.97931076,18.4238468 4.98243609,19.9331952 C4.60189992,20.5098726 4.13300564,21.1069539 3.55840686,21.4667061 C2.45745392,22.1534569 1.89803323,23.1757975 1.39715656,24.2765319 C1.31042467,24.4660729 1.23290804,24.6593726 1.14292371,24.8467659 C0.799248591,25.5576792 0.884896333,25.9877711 1.47304697,26.5096802 C1.7001761,26.7126449 1.92459487,26.9188312 2.14467704,27.1298501 C2.66940498,27.6329662 3.98014068,27.8225073 4.602442,27.4197996 C4.78783141,27.3005981 4.87618953,26.9907817 4.93907015,26.7502309 C4.97430498,26.6170689 4.82631869,26.4457839 4.83011321,26.2938289 C4.8344498,26.083884 4.84258092,25.8202447 4.96617386,25.6860088 C5.06483139,25.579157 5.36134604,25.5689551 5.53209945,25.626408 C6.09043599,25.8127274 6.63522068,25.8599785 7.18867856,25.6414424 C7.67437715,25.4492166 7.86410316,25.1598041 7.73888399,24.6679637 C7.60011297,24.122966 7.76924015,23.7122042 8.2072362,23.4136635 C8.50862952,23.2074772 8.83550033,23.0023647 9.18188582,22.904641 C9.93645327,22.6936222 10.5007526,22.2603087 10.9685628,21.6589319 C11.7187936,20.6945812 12.5422045,19.7801663 13.2208816,18.7701754 C13.9646075,17.6629978 14.9717816,17.4568114 16.1350731,17.7515935 C17.6816111,18.1424884 19.2059241,18.6187573 20.7383682,19.0644205 C21.1774484,19.1916761 21.2641803,19.5508914 21.2674327,19.9391016 C21.27719,21.1552788 21.2565912,22.3725299 21.2929102,23.5881702 C21.3102566,24.161089 21.3828945,24.7404511 21.5113662,25.2977986 C21.7937869,26.5247146 22.4274717,27.0718601 23.6921311,27.1690469 C24.2174011,27.2098546 24.7638121,27.1808597 25.2798668,27.0793774 C26.3916612,26.8603044 26.7521406,25.7042648 26.0561172,24.8290468 C25.8777748,24.6046044 25.799174,24.2496847 25.7964636,23.9527549 C25.7850801,23.0463941 25.8951211,22.1362747 25.8414558,21.2342095 C25.7644812,19.9380277 25.9346926,18.6783581 26.2236182,17.4283534 C26.7011857,15.367027 27.0177571,13.2890553 27.228624,11.1810148 C27.3343285,10.1178666 27.9024223,9.09821069 28.2829585,8.06727901 C28.3078939,8.00069801 28.6044086,7.94217116 28.6428959,7.98834831 C28.8055182,8.18433272 29.023432,8.41629234 29.0315631,8.64180865 C29.0825181,10.0797436 29.825702,11.2250442 30.591111,12.3536996 C30.7109094,12.5276693 31.1299328,12.654925 31.3386314,12.5872701 C31.8199934,12.4304826 32.2829249,12.1765082 32.7003221,11.8870957 C32.8764963,11.7641356 32.9567233,11.4602255 33.0120149,11.2234334 C33.0868211,10.8985825 33.0293612,10.5329239 33.1469914,10.2295508 C33.5437898,9.20076692 33.5784825,8.1188256 33.7156273,7.04923398 C33.7687506,6.63900909 33.5952868,6.34530095 33.2624532,6.17079428 C32.5957018,5.82124401 32.2341382,5.26067491 31.889921,4.61795344 C31.6546608,4.17819665 31.2101598,3.82166611 30.7970992,3.508628 C30.3130268,3.14243248 29.767158,2.85248295 29.2370093,2.54910982 C28.862978,2.33486934 28.8055182,2.04062425 28.9990387,1.70073897 C29.2191209,1.31360264 29.2413459,1.05157417 28.6401855,1.05050029" id="Fill-2"></path>
                </g>
            </g>
        </g>
    </g>
</svg>