<?xml version="1.0" encoding="UTF-8" standalone="no"?>
<svg width="48px" height="48px" viewBox="0 0 48 48" version="1.1" xmlns="http://www.w3.org/2000/svg" xmlns:xlink="http://www.w3.org/1999/xlink" xmlns:sketch="http://www.bohemiancoding.com/sketch/ns">
    <!-- Generator: Sketch 3.3.3 (12081) - http://www.bohemiancoding.com/sketch -->
    <title>Oval 12 Copy + Group Copy 8 Copy Copy Copy</title>
    <desc>Created with Sketch.</desc>
    <defs></defs>
    <g id="INTERNAS" stroke="none" stroke-width="1" fill="none" fill-rule="evenodd" sketch:type="MSPage">
        <g id="se-parte-de-kmimos-Paso-1" sketch:type="MSArtboardGroup" transform="translate(-696.000000, -329.000000)">
            <g id="Group" sketch:type="MSLayerGroup" transform="translate(472.000000, 322.000000)">
                <g id="Oval-12-Copy-+-Group-Copy-8-Copy-Copy-Copy" transform="translate(224.000000, 7.000000)" sketch:type="MSShapeGroup">
                    <circle id="Oval-12-Copy" fill="#B4B4B4" cx="24" cy="24" r="24"></circle>
                    <g id="Group-Copy-8" transform="translate(13.448276, 11.586207)" fill="#FFFFFF">
                        <path d="M18.6837227,13.2987273 C19.9791284,17.6917273 17.5220293,21.9958636 13.0560352,23.2535455 C8.53227733,24.5300455 4.13688335,22.1568636 2.84040792,17.7638636 C1.5428628,13.3719091 3.98926486,9.13886364 8.51516214,7.86340909 C12.9790169,6.60572727 17.3883169,8.90677273 18.6837227,13.2987273 L18.6837227,13.2987273 Z M15.7174468,14.1350909 C14.891639,11.3301364 12.1574879,9.671 9.28962436,10.4801818 C6.35757887,11.3071364 4.94557594,14.1340455 5.77459281,16.9379545 C6.61002788,19.7732273 9.35487601,21.4637273 12.2869215,20.6378182 C15.154785,19.8286364 16.5550213,16.9693182 15.7174468,14.1350909 L15.7174468,14.1350909 Z" id="Shape"></path>
                        <path d="M13.376945,2.88390909 C14.3728349,1.46209091 16.1282113,1.10768182 17.302741,2.09145455 C18.4772707,3.07731818 18.6216801,5.02918182 17.6268599,6.451 C16.6320396,7.87281818 14.8755935,8.22827273 13.7010638,7.24345455 C12.5297432,6.25863636 12.3842641,4.30677273 13.376945,2.88390909 L13.376945,2.88390909 Z" id="Shape"></path>
                        <path d="M12.2545686,2.65909424 C11.7240017,1.05227124 9.88987436,0.102522555 8.15793061,0.537771185 C6.42598686,0.973019815 5.45207854,2.62844596 5.98264549,4.23526896 C6.51321244,5.84209196 8.34733975,6.79184065 10.0792835,6.35659202 C11.8112273,5.92134339 12.7851356,4.26591724 12.2545686,2.65909424 L12.2545686,2.65909424 Z" id="Oval"></path>
                        <path d="M0.893739843,4.49255936 C-0.208708836,5.52734121 -0.238875118,7.35040576 0.826361568,8.56448802 C1.89159825,9.77857028 3.64885444,9.92392198 4.75130312,8.88914014 C5.8537518,7.85435829 5.88391808,6.03129374 4.8186814,4.81721148 C3.75344471,3.60312922 1.99618852,3.45777752 0.893739843,4.49255936 L0.893739843,4.49255936 Z" id="Oval"></path>
                        <path d="M18.9553275,10.8672543 C20.1532203,11.3620085 21.5529415,10.7351844 22.0816922,9.46720332 C22.6104429,8.19922226 22.067996,6.77024293 20.8701032,6.27548866 C19.6722104,5.78073439 18.2724893,6.40755855 17.7437386,7.67553961 C17.2149879,8.94352067 17.7574347,10.3725 18.9553275,10.8672543 L18.9553275,10.8672543 Z" id="Oval"></path>
                    </g>
                </g>
            </g>
        </g>
    </g>
</svg>