<?xml version="1.0" encoding="UTF-8" standalone="no"?>
<svg width="39px" height="39px" viewBox="0 0 39 39" version="1.1" xmlns="http://www.w3.org/2000/svg" xmlns:xlink="http://www.w3.org/1999/xlink" xmlns:sketch="http://www.bohemiancoding.com/sketch/ns">
    <!-- Generator: Sketch 3.3.3 (12081) - http://www.bohemiancoding.com/sketch -->
    <title>Imported Layers</title>
    <desc>Created with Sketch.</desc>
    <defs></defs>
    <g id="HOME" stroke="none" stroke-width="1" fill="none" fill-rule="evenodd" sketch:type="MSPage">
        <g id="Homepage-2" sketch:type="MSArtboardGroup" transform="translate(-959.000000, -1701.000000)">
            <g id="Imported-Layers" sketch:type="MSLayerGroup" transform="translate(959.000000, 1701.000000)">
                <path d="M38.673,19.795 C38.673,30.246 30.201,38.719 19.75,38.719 C9.299,38.719 0.827,30.246 0.827,19.795 C0.827,9.344 9.299,0.871 19.75,0.871 C30.201,0.871 38.673,9.344 38.673,19.795" id="Fill-1" fill="#FFFFFF" sketch:type="MSShapeGroup"></path>
                <path d="M2.181,26.764 C6.758,24.546 10.434,21.057 12.516,16.451 C14.598,11.846 14.79,6.781 13.433,1.879 C13.721,1.772 14.013,1.681 14.307,1.591 C9.247,3.114 4.846,6.729 2.498,11.922 C0.15,17.114 0.343,22.807 2.542,27.612 C2.415,27.331 2.292,27.051 2.181,26.764" id="Fill-2" fill="#F67E56" sketch:type="MSShapeGroup"></path>
                <path d="M36.365,10.619 C34.463,7.143 31.452,4.229 27.557,2.467 C23.342,0.562 18.797,0.328 14.666,1.484 C14.984,1.395 15.303,1.312 15.625,1.243 C17.137,6.659 16.918,12.283 14.606,17.396 C12.294,22.51 8.216,26.389 3.151,28.831 C2.991,28.544 2.842,28.249 2.699,27.951 C4.561,31.817 7.737,35.075 11.953,36.981 C15.846,38.741 20.024,39.077 23.892,38.208 C22.38,32.792 22.598,27.168 24.91,22.055 C27.222,16.941 31.3,13.063 36.365,10.619" id="Fill-3" fill="#FBBC96" sketch:type="MSShapeGroup"></path>
                <path d="M37.335,12.687 C32.758,14.905 29.082,18.395 27,23 C24.919,27.605 24.726,32.669 26.084,37.572 C30.776,35.917 34.807,32.42 37.018,27.529 C39.23,22.639 39.192,17.302 37.335,12.687" id="Fill-4" fill="#F67E56" sketch:type="MSShapeGroup"></path>
            </g>
        </g>
    </g>
</svg>