<?xml version="1.0" encoding="UTF-8" standalone="no"?>
<svg width="42px" height="36px" viewBox="0 0 42 36" version="1.1" xmlns="http://www.w3.org/2000/svg" xmlns:xlink="http://www.w3.org/1999/xlink" xmlns:sketch="http://www.bohemiancoding.com/sketch/ns">
    <!-- Generator: Sketch 3.4 (15588) - http://www.bohemiancoding.com/sketch -->
    <title>Imported Layers</title>
    <desc>Created with Sketch.</desc>
    <defs></defs>
    <g id="INTERNAS" stroke="none" stroke-width="1" fill="none" fill-rule="evenodd" sketch:type="MSPage">
        <g id="perfil-del-cuidador" sketch:type="MSArtboardGroup" transform="translate(-563.000000, -1573.000000)">
            <g id="Imported-Layers" sketch:type="MSLayerGroup" transform="translate(563.000000, 1573.000000)">
                <path d="M31.0527,17.1815294 C31.09365,16.3577647 30.77025,15.9797647 30.0615,15.6557647 C27.61395,14.5344706 25.19685,13.3475294 22.6968,12.1510588 C23.1357,11.5697647 12.7785,12.0578824 8.2425,12.0991765 C6.44805,12.114 4.7208,12.1235294 3.1626,10.9694118 C2.38875,10.3955294 1.50675,10.5511765 0.9912,11.4744706 C0.49455,12.3607059 0.903,13.0457647 1.66425,13.5317647 C2.41605,14.0114118 3.17625,14.4931765 3.98265,14.8627059 C4.83,15.2491765 5.10195,15.7902353 5.0925,16.74 C5.04,21.9144706 5.05575,27.0910588 5.07465,32.2676471 C5.08095,34.1004706 6.1341,35.2175294 7.73115,35.1857647 C9.27465,35.1561176 10.19235,34.074 10.19865,32.2485882 C10.20705,30.3077647 10.20075,28.368 10.20075,26.4271765 C10.6386,26.676 10.84755,26.9756471 11.03235,27.2890588 C12.33855,29.4903529 13.6038,31.7149412 14.95515,33.8855294 C15.74685,35.1571765 17.21055,35.4991765 18.3918,34.8321176 C19.6245,34.1354118 20.0361,32.6498824 19.36305,31.2691765 C19.17615,30.8869412 18.94725,30.5248235 18.732,30.1563529 C17.53395,28.1138824 16.33485,26.0703529 15.0906,23.9505882 L24.7947,23.9505882 C24.7947,26.8284706 24.78105,29.6057647 24.801,32.3841176 C24.8115,33.9638824 25.6998,35.0364706 27.04065,35.1741176 C28.73955,35.3477647 29.93235,34.2 29.9628,32.2623529 C30.0006,29.8238824 29.9649,27.3854118 29.98065,24.948 C29.9838,24.5816471 29.9796,23.9865882 30.1728,23.8891765 C31.23435,23.3534118 31.02645,22.4216471 31.03065,21.5449412 C31.03695,20.0901176 30.98025,18.6331765 31.0527,17.1815294" id="Fill-1" fill="#62D1B7" sketch:type="MSShapeGroup"></path>
                <path d="M27.25905,11.5168235 C27.51945,11.3664706 27.70215,11.268 27.8796,11.1589412 C31.857,8.71517647 31.9221,8.57223529 31.2963,3.62541176 L29.80215,3.62541176 C29.80215,4.41635294 29.7003,5.22952941 29.82315,6.00776471 C30.0888,7.68282353 29.28135,8.52988235 27.70845,9.00741176 C26.3781,7.038 25.02675,5.04105882 23.5683,2.88317647 C27.45855,2.11341176 31.1724,1.35529412 34.90095,0.684 C35.2191,0.626823529 35.79555,1.06835294 35.9835,1.42305882 C36.46755,2.33258824 37.1154,2.64811765 38.12025,2.56341176 C39.16815,2.47447059 40.23075,2.54329412 41.4624,2.54329412 C41.4624,4.38670588 41.4855,6.20788235 41.4351,8.02694118 C41.4288,8.27576471 41.09805,8.58705882 40.8429,8.74694118 C37.9617,10.5427059 35.07105,12.3257647 32.16255,14.0749412 C31.89375,14.2358824 31.41285,14.2782353 31.13775,14.1469412 C28.7742,13.0192941 26.4369,11.8397647 23.96625,10.6115294 C24.4566,10.0005882 24.8724,9.48388235 25.37745,8.85388235 C26.0421,9.79411765 26.6469,10.6507059 27.25905,11.5168235 L27.25905,11.5168235 Z M33.3858,6.99035294 C33.5664,6.99141176 33.747,6.99458824 33.9276,6.99564706 C34.23525,6.52658824 34.8243,6.02152941 34.77285,5.59588235 C34.71825,5.15752941 34.0851,4.58152941 33.6189,4.48305882 C33.3396,4.42588235 32.62245,5.15435294 32.5983,5.55882353 C32.5731,6.01941176 33.09915,6.51070588 33.3858,6.99035294 L33.3858,6.99035294 Z" id="Fill-2" fill="#62D1B7" sketch:type="MSShapeGroup"></path>
                <path d="M33.3858,6.99035294 C33.09915,6.51070588 32.5731,6.01941176 32.5983,5.55882353 C32.62245,5.15435294 33.3396,4.42588235 33.6189,4.48305882 C34.0851,4.58152941 34.71825,5.15752941 34.77285,5.59588235 C34.8243,6.02152941 34.23525,6.52658824 33.9276,6.99564706 C33.747,6.99458824 33.5664,6.99141176 33.3858,6.99035294" id="Fill-3" fill="#62D1B7" sketch:type="MSShapeGroup"></path>
                <path d="M10.1178,21.7852941 L12.71025,21.7852941 L12.7092,19.1742353 L15.30165,19.1742353 L15.30165,16.56 L12.7092,16.56 L12.71025,13.9478824 L10.1178,13.9478824 L10.11885,16.56 L7.5264,16.56 L7.5264,19.1742353 L10.11885,19.1742353 L10.1178,21.7852941" id="Fill-4" fill="#FFFFFF" sketch:type="MSShapeGroup"></path>
            </g>
        </g>
    </g>
</svg>