<?xml version="1.0" encoding="UTF-8" standalone="no"?>
<svg width="261px" height="270px" viewBox="0 0 261 270" version="1.1" xmlns="http://www.w3.org/2000/svg" xmlns:xlink="http://www.w3.org/1999/xlink" xmlns:sketch="http://www.bohemiancoding.com/sketch/ns">
    <!-- Generator: Sketch 3.4 (15588) - http://www.bohemiancoding.com/sketch -->
    <title>Imported Layers + Imported Layers</title>
    <desc>Created with Sketch.</desc>
    <defs></defs>
    <g id="INTERNAS" stroke="none" stroke-width="1" fill="none" fill-rule="evenodd" sketch:type="MSPage">
        <g id="mensaje-GRACIAS-POR-RESERVAR" sketch:type="MSArtboardGroup" transform="translate(-108.000000, -353.000000)">
            <g id="Imported-Layers-+-Imported-Layers" sketch:type="MSLayerGroup" transform="translate(108.875000, 352.371057)">
                <g id="Imported-Layers" transform="translate(0.064910, 116.470242)" sketch:type="MSShapeGroup">
                    <path d="M153.246679,141.164232 L18.9485294,141.164232 L16.1077556,153.725474 L156.655608,153.725474 L153.246679,141.164232" id="Fill-2" fill="#D3D3D3"></path>
                    <path d="M220.609948,68.4367929 C220.283828,65.8395073 220.609948,63.0045505 220.609948,60.3867466 L220.602562,52.9060854 L207.974755,52.9060854 C207.974755,55.5238894 208.29633,65.8395073 207.974755,68.4367929 C207.433303,77.429545 195.307744,78.686866 195.662273,87.5832958 L214.292068,87.5832958 L232.921294,87.5832958 C233.275254,78.686866 221.148559,77.429545 220.609948,68.4367929" id="Fill-3" fill="#684E61"></path>
                    <path d="M243.559424,49.7838712 C243.994062,51.4994361 242.904909,52.9060854 241.138516,52.9060854 L188.521136,52.9060854 C186.754743,52.9060854 185.586616,51.4829074 185.928646,49.7445443 L190.578992,26.0509394 C190.919317,24.3125762 192.643667,22.8893982 194.412332,22.8893982 L233.505925,22.8893982 C235.272887,22.8893982 237.077346,24.2949076 237.512553,26.0121824 L243.559424,49.7838712" id="Fill-4" fill="#F03C3D"></path>
                    <path d="M243.559424,49.7838712 C243.994062,51.4994361 242.904909,52.9060854 241.138516,52.9060854 L188.521136,52.9060854 C186.754743,52.9060854 185.586616,51.4829074 185.928646,49.7445443 L190.578992,26.0509394 C190.919317,24.3125762 192.643667,22.8893982 194.412332,22.8893982 L233.505925,22.8893982 C235.272887,22.8893982 237.077346,24.2949076 237.512553,26.0121824 L243.559424,49.7838712" id="Fill-5" fill="#F03C3D"></path>
                    <path d="M208.039524,57.1345826 L208.039524,60.4483017 L208.092363,60.4483017 C208.077591,59.3095314 208.058273,58.1776005 208.039524,57.1345826 M220.633243,52.9060854 L208.039524,52.9060854 L220.602562,52.9060854 L220.609948,60.3867466 L220.609948,60.4483017 L220.633243,60.4483017 L220.633243,52.9060854" id="Fill-6" fill="#D3D3D3"></path>
                    <path d="M220.602562,52.9060854 L208.039524,52.9060854 L208.039524,57.1345826 C208.058273,58.1776005 208.077591,59.3095314 208.092363,60.4483017 L220.609948,60.4483017 L220.609948,60.3867466 L220.602562,52.9060854" id="Fill-7" fill="#564150"></path>
                    <path d="M208.039524,52.8998159 L220.633811,52.8998159 L220.633811,52.9060854 L208.039524,52.9060854 L208.039524,52.8998159 Z" id="Fill-8" fill="#C73232"></path>
                    <path d="M142.204023,111.708357 C141.836995,116.721682 137.436637,120.843028 132.425512,120.867536 L38.183977,121.348008 C33.172852,121.371946 28.8310133,117.288787 28.5372773,112.270332 L22.4915425,9.41565883 C22.1949657,4.39720387 26.054441,0.291247074 31.0661342,0.291247074 L141.251228,0.291247074 C146.262921,0.291247074 150.062172,4.39321418 149.695712,9.40767946 L142.204023,111.708357" id="Fill-9" fill="#3A9B8D"></path>
                    <path d="M40.2571737,139.680615 C40.2571737,141.247991 38.9788255,142.530391 37.4163999,142.530391 L28.1037753,142.530391 C26.5413497,142.530391 25.2630014,141.247991 25.2630014,139.680615 L25.2630014,129.003645 C25.2630014,127.436269 26.5413497,126.15387 28.1037753,126.15387 L37.4163999,126.15387 C38.9788255,126.15387 40.2571737,127.436269 40.2571737,129.003645 L40.2571737,139.680615" id="Fill-10" fill="#6D4D2E"></path>
                    <path d="M146.932207,139.680615 C146.932207,141.247991 145.653859,142.530391 144.091433,142.530391 L134.777104,142.530391 C133.214679,142.530391 131.93633,141.247991 131.93633,139.680615 L131.93633,129.003645 C131.93633,127.436269 133.214679,126.15387 134.777104,126.15387 L144.091433,126.15387 C145.653859,126.15387 146.932207,127.436269 146.932207,129.003645 L146.932207,139.680615" id="Fill-11" fill="#6D4D2E"></path>
                    <path d="M172.159415,70.88703 C172.159415,59.6344058 163.066098,50.5117039 151.84845,50.5117039 C140.631371,50.5117039 131.538622,59.6344058 131.538622,70.88703 C131.538622,74.0291927 132.268133,76.9895397 133.533413,79.6466705 L38.6623633,79.6466705 C39.9282121,76.9895397 40.6554502,74.0291927 40.6554502,70.88703 C40.6554502,59.6344058 31.5627014,50.5117039 20.3450538,50.5117039 C9.12740623,50.5117039 0.0340892857,59.6344058 0.0340892857,70.88703 C0.0340892857,79.2254736 5.03441934,86.3835402 12.1829425,89.536532 L12.1829425,123.440313 C12.1829425,128.467318 16.2827473,132.580114 21.2944404,132.580114 L147.519679,132.580114 C152.529668,132.580114 156.631177,128.467318 156.631177,123.440313 L156.631177,90.6701728 C165.537003,88.5106128 172.159415,80.4862144 172.159415,70.88703" id="Fill-12" fill="#4DC1B4"></path>
                    <path d="M20.5245907,64.231094 C16.854311,64.231094 13.8811571,67.215379 13.8811571,70.8944394 C13.8811571,74.5763496 16.854311,77.5600647 20.5245907,77.5600647 C24.193166,77.5600647 27.1663199,74.5763496 27.1663199,70.8944394 C27.1663199,67.215379 24.193166,64.231094 20.5245907,64.231094" id="Fill-13" fill="#1F4D48"></path>
                    <path d="M152.477966,63.5095308 C148.809959,63.5095308 145.836237,66.4932459 145.836237,70.1723063 C145.836237,73.8542165 148.809959,76.8379316 152.477966,76.8379316 C156.148246,76.8379316 159.121968,73.8542165 159.121968,70.1723063 C159.121968,66.4932459 156.148246,63.5095308 152.477966,63.5095308" id="Fill-14" fill="#1F4D48"></path>
                    <path d="M34.3807491,104.828998 L34.3807491,114.397405 L34.3807491,104.828998" id="Fill-15" fill="#9B9B9B"></path>
                    <path d="M138.302505,104.828998 L138.302505,114.397405 L138.302505,104.828998" id="Fill-16" fill="#9B9B9B"></path>
                    <path d="M72.7578987,41.325167 C72.7578987,43.2174181 71.2267216,44.7523073 69.3404478,44.7523073 C67.4524695,44.7523073 65.9235651,43.2174181 65.9235651,41.325167 C65.9235651,39.432916 67.4524695,37.8980268 69.3404478,37.8980268 C71.2267216,37.8980268 72.7578987,39.432916 72.7578987,41.325167" id="Fill-17" fill="#35887F"></path>
                    <path d="M54.3087773,58.6204556 C54.3087773,60.5155564 52.780441,62.0481658 50.8918946,62.0481658 C49.0056208,62.0481658 47.47558,60.5155564 47.47558,58.6204556 C47.47558,56.7282046 49.0056208,55.1938853 50.8918946,55.1938853 C52.780441,55.1938853 54.3087773,56.7282046 54.3087773,58.6204556" id="Fill-18" fill="#35887F"></path>
                    <path d="M54.3087773,24.0293085 C54.3087773,25.9226995 52.780441,27.4575886 50.8918946,27.4575886 C49.0056208,27.4575886 47.47558,25.9226995 47.47558,24.0293085 C47.47558,22.1370574 49.0056208,20.6015983 50.8918946,20.6015983 C52.780441,20.6015983 54.3087773,22.1370574 54.3087773,24.0293085" id="Fill-19" fill="#35887F"></path>
                    <path d="M124.718492,58.6204556 C124.718492,60.5155564 123.187315,62.0481658 121.302178,62.0481658 C119.413631,62.0481658 117.885295,60.5155564 117.885295,58.6204556 C117.885295,56.7282046 119.413631,55.1938853 121.302178,55.1938853 C123.187315,55.1938853 124.718492,56.7282046 124.718492,58.6204556" id="Fill-20" fill="#35887F"></path>
                    <path d="M124.718492,24.0293085 C124.718492,25.9226995 123.187315,27.4575886 121.302178,27.4575886 C119.413631,27.4575886 117.885295,25.9226995 117.885295,24.0293085 C117.885295,22.1370574 119.413631,20.6015983 121.302178,20.6015983 C123.187315,20.6015983 124.718492,22.1370574 124.718492,24.0293085" id="Fill-21" fill="#35887F"></path>
                    <path d="M107.903952,41.325167 C107.903952,43.2174181 106.376184,44.7523073 104.487638,44.7523073 C102.601364,44.7523073 101.071323,43.2174181 101.071323,41.325167 C101.071323,39.432916 102.601364,37.8980268 104.487638,37.8980268 C106.376184,37.8980268 107.903952,39.432916 107.903952,41.325167" id="Fill-22" fill="#35887F"></path>
                    <path d="M89.4576716,58.6204556 C89.4576716,60.5155564 87.9270627,62.0481658 86.041357,62.0481658 C84.1528106,62.0481658 82.6250424,60.5155564 82.6250424,58.6204556 C82.6250424,56.7282046 84.1528106,55.1938853 86.041357,55.1938853 C87.9270627,55.1938853 89.4576716,56.7282046 89.4576716,58.6204556" id="Fill-23" fill="#35887F"></path>
                    <path d="M89.4576716,24.0293085 C89.4576716,25.9226995 87.9270627,27.4575886 86.041357,27.4575886 C84.1528106,27.4575886 82.6250424,25.9226995 82.6250424,24.0293085 C82.6250424,22.1370574 84.1528106,20.6015983 86.041357,20.6015983 C87.9270627,20.6015983 89.4576716,22.1370574 89.4576716,24.0293085" id="Fill-24" fill="#35887F"></path>
                    <path d="M147.453205,84.0421645 C147.453205,80.8652346 144.862988,78.2662392 141.696093,78.2662392 L30.4985476,78.2662392 C27.3310848,78.2662392 24.7402991,80.8652346 24.7402991,84.0421645 L24.7402991,99.0530729 L24.7459806,99.1579446 L24.7402991,99.1579446 L24.7402991,104.828998 L147.453205,104.828998 L147.453205,99.1579446 L147.448092,99.1579446 L147.453205,99.0530729 L147.453205,84.0421645" id="Fill-25" fill="#5BD3C2"></path>
                    <path d="M24.7402991,99.0530729 L24.7402991,99.1579446 L24.7459806,99.1579446 L24.7402991,99.0530729 M147.453205,97.2810824 L147.453205,99.0530729 L147.448092,99.1579446 L147.453205,99.1579446 L147.453205,104.828998 L147.453205,97.2810824" id="Fill-26" fill="#40A095"></path>
                    <path d="M147.453205,97.2810824 L24.7402991,97.2810824 L24.7402991,99.0530729 L24.7459806,99.1579446 L24.7402991,99.1579446 L24.7402991,104.828998 L147.453205,104.828998 L147.453205,99.1579446 L147.448092,99.1579446 L147.453205,99.0530729 L147.453205,97.2810824" id="Fill-27" fill="#4BAFA1"></path>
                    <path d="M171.633304,91.5479037 L257.891696,91.5479037 L257.891696,139.639008 L171.633304,139.639008 L171.633304,91.5479037 Z" id="Fill-28" fill="#6D4D2E"></path>
                    <path d="M174.82747,139.639008 L254.69753,139.639008 L254.69753,145.71872 L174.82747,145.71872 L174.82747,139.639008 Z" id="Fill-29" fill="#6D4D2E"></path>
                    <path d="M176.222858,95.7524627 L253.303278,95.7524627 L253.303278,115.593741 L176.222858,115.593741 L176.222858,95.7524627 Z" id="Fill-30" fill="#563B24"></path>
                    <path d="M217.697587,105.673102 C217.697587,107.299184 216.384013,108.61749 214.7625,108.61749 C213.141554,108.61749 211.826844,107.299184 211.826844,105.673102 C211.826844,104.04702 213.141554,102.728144 214.7625,102.728144 C216.384013,102.728144 217.697587,104.04702 217.697587,105.673102" id="Fill-31" fill="#F2F2F2"></path>
                    <path d="M176.222858,117.600553 L253.303278,117.600553 L253.303278,115.593741 L176.222858,115.593741 L176.222858,117.600553 Z" id="Fill-32" fill="#412E1C"></path>
                    <path d="M174.82747,139.639008 L254.69753,139.639008 L254.69753,141.64582 L174.82747,141.64582 L174.82747,139.639008 Z" id="Fill-33" fill="#412E1C"></path>
                    <path d="M170.229961,87.5832958 L259.295038,87.5832958 L259.295038,91.5479037 L170.229961,91.5479037 L170.229961,87.5832958 Z" id="Fill-34" fill="#563B24"></path>
                </g>
                <g id="Imported-Layers" transform="translate(34.863599, 0.133674)" sketch:type="MSShapeGroup">
                    <path d="M96.2302448,107.42207 C98.351376,110.480675 104.906936,123.973092 105.755388,128.881831 C105.755388,128.881831 111.193912,134.599968 110.952862,135.936771 C110.712373,137.271322 108.845778,138.052578 108.495159,137.92537 C108.495159,137.92537 113.459449,145.710345 112.999262,146.308107 C112.540199,146.904743 110.984328,147.410758 110.069011,145.642238 C109.151446,143.874845 105.873385,139.734416 105.49411,139.499701 C105.114835,139.26555 108.042277,148.298957 107.500054,148.958071 C106.956707,149.61606 105.239574,149.727507 104.958068,148.64737 C104.677123,147.56836 102.539135,140.653573 101.92499,139.819971 C101.310846,138.987495 100.241571,138.23382 99.7251948,138.229317 C99.2082568,138.224814 98.0176139,139.748487 97.4832574,139.371368 C96.9489009,138.993686 96.7544873,137.336051 98.386775,134.842 C100.019063,132.348512 101.302417,130.628399 101.302417,130.628399 C101.302417,130.628399 92.6195457,115.398982 90.379294,110.799819 C88.4098728,106.760142 90.7720544,104.209242 96.2302448,107.42207" id="Fill-1" fill="#FFE2C9"></path>
                    <path d="M80.1894358,121.939464 C80.1894358,121.939464 93.1044559,157.032358 96.3145281,173.930668 C99.5246004,190.828414 101.931733,239.831934 103.00157,242.793726 C103.00157,242.793726 99.5246004,249.508133 92.1683487,245.220796 C92.1683487,245.220796 87.7558339,201.736159 84.812659,191.191461 C81.8706079,180.6462 66.6816227,150.016819 64.27449,146.59967 C64.27449,146.59967 54.8561055,178.770737 50.8430938,188.95295 C46.8317678,199.135164 23.5611322,239.831934 17.676468,242.793726 C17.676468,242.793726 10.9894263,245.078392 8.04681328,238.718589 C8.04681328,238.718589 31.0505515,201.278551 34.2600619,189.75672 C37.4701341,178.235453 40.1357358,132.648518 45.6057258,123.106844 C51.0757159,113.564607 72.1785834,116.001247 80.4703803,122.220896" id="Fill-2" fill="#2F5F7C"></path>
                    <path d="M51.3544128,78.7627138 C51.3544128,78.7621509 47.2116048,85.1686713 47.0301146,87.2028625 C47.0301146,87.2022996 50.8194945,81.4413845 51.3544128,78.7627138" id="Fill-3" fill="#FFFFFF"></path>
                    <path d="M15.8728042,241.693326 C15.8728042,241.693326 11.5872763,248.627813 10.8972765,250.662567 C10.2067148,252.697321 12.3137988,258.088998 13.3847594,258.372681 C14.4562818,258.656365 22.1052776,260.075345 22.6716618,261.494326 C23.2386079,262.913307 22.6716618,265.317863 22.6716618,265.317863 C22.6716618,265.317863 13.4173489,266.302875 8.41260306,265.317863 C3.40785717,264.332287 -0.464682255,249.290867 0.338257216,243.61607 C0.338257216,243.61607 7.18487545,238.507515 8.41260306,237.372781 C9.64033066,236.237483 15.8728042,241.693326 15.8728042,241.693326" id="Fill-4" fill="#192E3A"></path>
                    <path d="M104.152881,245.712177 C104.152881,245.712177 106.557204,252.306131 108.084418,253.286077 C109.612757,254.266024 121.429284,250.162181 122.735114,251.736512 C124.03982,253.310843 124.587662,259.245121 124.587662,259.245121 C124.587662,259.245121 102.676236,264.131908 99.3093968,261.919289 C99.3093968,261.919289 93.7129818,263.938282 91.6176975,262.447818 C91.6176975,262.447818 91.2243751,247.380506 92.7060766,245.217982 C94.187778,243.05602 104.152881,245.712177 104.152881,245.712177" id="Fill-5" fill="#192E3A"></path>
                    <path d="M59.1556806,38.9727175 C59.1556806,38.9727175 53.9846155,32.8999756 53.0928976,29.5053416 C52.2011797,26.1118333 52.2011797,14.5010705 52.2011797,14.5010705 C52.2011797,14.5005076 50.0615061,14.5055734 49.5271496,13.4316285 C48.9916693,12.3576836 51.1313429,9.90415853 52.2011797,10.3268695 C52.2011797,10.3268695 49.8833873,7.7393828 51.3094617,5.94046881 C52.736098,4.14042908 56.3024079,8.24933777 56.3024079,8.24933777 C56.3024079,8.24933777 64.6835452,0.388939165 78.593109,3.42559154 C78.593109,3.42559154 83.0505749,-2.79236931 85.5476099,2.72876566 C85.5476099,2.72876566 91.0749126,-2.11186649 93.7495046,4.49728499 C96.4240965,11.1069993 92.0216957,15.215908 92.0216957,15.215908 C92.0216957,15.215908 95.3390887,28.3171352 90.799587,32.127163 C86.2606471,35.936628 65.7539439,40.4018297 59.1556806,38.9727175" id="Fill-6" fill="#4F4003"></path>
                    <path d="M63.6137084,25.793815 C63.6137084,25.793815 68.0717363,51.8341645 68.7847735,53.0854116 C69.4989345,54.3349702 77.878948,59.3365815 84.4772112,58.2648881 C91.0749126,57.1931946 92.3228682,54.870254 91.9666306,47.0109812 C91.609831,39.1517083 89.4701575,17.5377229 88.9346772,16.6438945 C88.9346772,16.6438945 86.0819664,18.3668218 84.6553301,18.1309817 C83.2286937,17.8951416 72.5297641,17.8309751 71.2812466,18.1309817 C70.033291,18.4304255 63.6137084,25.793815 63.6137084,25.793815" id="Fill-7" fill="#FFE2C9"></path>
                    <path d="M68.6240732,39.865983 C68.6240732,39.865983 64.7009638,34.5075157 61.3127727,35.2217904 C57.9251435,35.936628 58.2813812,41.8309419 59.3517799,43.7964637 C60.4216167,45.7614226 68.4453925,50.4050523 68.6240732,39.865983" id="Fill-8" fill="#FFE2C9"></path>
                    <path d="M83.2292556,35.1559353 C83.2292556,35.1559353 83.1393534,38.8837849 83.7636121,38.7948524 C84.3884328,38.705357 87.4198243,38.6254303 87.9541808,39.2457066 C88.4890992,39.8665458 88.3997588,42.7236445 87.9541808,42.9921307 C87.5086027,43.2600541 84.7356802,43.7964637 83.2241986,43.5285403 C83.2241986,43.5285403 87.4198243,42.7236445 87.5086027,42.2772932 C87.5973812,41.8309419 87.5973812,39.3380163 87.1523651,39.3785426 C86.7062252,39.4190688 83.8439623,39.8738631 83.2241986,39.3785426 C82.604435,38.8837849 83.0505749,35.8054806 83.2292556,35.1559353" id="Fill-9" fill="#D2A580"></path>
                    <path d="M75.0262372,47.189972 C75.0262372,47.189972 82.3375377,49.8697685 87.9541808,47.8153141 C87.9541808,47.8153141 80.2866426,51.745232 75.0262372,47.189972" id="Fill-10" fill="#7F4516"></path>
                    <path d="M76.4820918,35.4328645 C76.5832318,36.3807278 76.2017091,37.1991324 75.629706,37.2599217 C75.0571411,37.3218368 74.510423,36.6024963 74.409283,35.6551959 C74.308143,34.7073325 74.6896656,33.888928 75.2622306,33.8275758 C75.8347956,33.7662236 76.3815136,34.4850012 76.4820918,35.4328645" id="Fill-11" fill="#131316"></path>
                    <path d="M88.3064852,33.7127515 C88.4076252,34.6606148 88.0261026,35.4790194 87.4535376,35.5403716 C86.8809727,35.6017238 86.3348165,34.8829462 86.2336765,33.9350828 C86.1319745,32.9872195 86.5140591,32.168815 87.086624,32.1074628 C87.659189,32.0461106 88.2053452,32.7648882 88.3064852,33.7127515" id="Fill-12" fill="#131316"></path>
                    <path d="M77.0771323,24.3253023 C77.3929139,24.2701416 72.4168244,22.9806197 70.5687713,27.2724593 C70.5687713,27.2724593 75.5611556,24.5932257 77.0771323,24.3253023" id="Fill-13" fill="#4F4003"></path>
                    <path d="M83.4073745,23.0751809 C83.1399153,23.0751809 86.7449955,21.093336 88.32278,24.8617119 C88.32278,24.8617119 86.5281063,23.0751809 83.4073745,23.0751809" id="Fill-14" fill="#4F4003"></path>
                    <path d="M85.8403541,80.1327252 C85.8403541,80.1327252 94.1248465,101.178781 95.4076392,106.319982 C96.5314173,110.822896 90.0696931,109.275019 90.0696931,109.275019 C90.0696931,109.275019 79.9686134,88.0060697 79.5039311,83.7187331 C79.038687,79.4325222 83.8153059,74.2659916 85.8403541,80.1327252" id="Fill-15" fill="#FFE2C9"></path>
                    <path d="M56.9716178,61.8818534 C58.4426434,64.6950487 64.9953936,70.7238872 69.141573,70.1880405 C73.2877524,69.6521938 78.8999004,67.0027919 73.7423207,59.7384665 C71.8526878,59.2549662 69.8293252,58.7962319 67.8486663,58.4140471 C64.3188792,57.7335442 60.4334163,57.7628132 56.9025055,58.0774543 C56.631113,58.331306 55.6961296,59.4429628 56.9716178,61.8818534" id="Fill-16" fill="#506A91"></path>
                    <path d="M82.5156565,62.9090806 C81.8897121,62.157094 78.1891107,60.8777037 73.7423207,59.7395923 C78.8999004,67.0022291 73.2877524,69.6521938 69.141573,70.1880405 C64.9953936,70.7238872 58.4426434,64.6950487 56.9716178,61.8818534 C55.6961296,59.4435257 56.6305511,58.331306 56.9025055,58.07858 C50.6233952,58.638067 45.4708725,60.1020768 45.4708725,60.1020768 C43.6879985,61.3865329 35.0326593,81.0997259 35.7962666,82.0222604 C37.3116814,83.8538205 47.0301146,87.2022996 47.0301146,87.2022996 C47.0301146,87.2017368 43.5531451,98.4269376 44.5336415,104.813195 C44.941573,107.4671 44.0414267,126.630374 44.0414267,126.630374 C54.7414801,117.519854 80.6563656,122.438162 80.6563656,122.438162 C80.6563656,122.438162 76.0685414,112.383156 75.4718152,108.632228 C74.8756509,104.880739 80.7322206,82.5581071 80.7322206,82.5581071 C80.7322206,82.5581071 87.5086027,83.2723818 87.5086027,81.3079857 C87.5086027,79.3430268 83.4073745,63.980774 82.5156565,62.9090806" id="Fill-17" fill="#40567A"></path>
                    <path d="M76.4528735,55.0498077 C76.4528735,55.0492449 73.1292997,58.8007348 72.0268734,61.1231125 C72.0268734,61.1231125 76.096074,65.9462958 70.2119717,67.1964172 C64.3273075,68.4465386 58.4426434,60.5287279 59.3343613,58.4146099 C59.3343613,58.4146099 64.3273075,58.0858972 65.7539439,57.3721854 C67.1805802,56.656785 67.8486663,49.1538052 67.8486663,49.1538052 C67.8486663,49.1538052 73.7782816,46.2967065 76.4528735,55.0498077" id="Fill-18" fill="#FFE2C9"></path>
                    <path d="M53.7913257,144.002052 C53.7913257,144.002052 55.0701852,150.23521 56.7743947,152.958347 C58.4786043,155.679233 55.2572943,177.770527 52.5225802,179.723103 C49.788428,181.676242 48.4117998,181.166287 46.9312221,181.591812 C45.4506445,182.017338 45.1404817,184.781001 45.1404817,184.781001 L56.9255429,187.709583 L70.3563772,155.205301 L75.548794,161.007868 C75.548794,161.007868 77.7182477,166.226182 81.8031812,166.572344 C75.0515222,178.679553 85.2245237,186.095852 85.2245237,186.095852 L84.6980336,188.220664 C84.6980336,188.220664 78.5397295,186.814629 75.5650888,186.20167 C72.5898862,185.588148 69.6135598,190.863874 70.8721913,191.175701 C72.130261,191.488091 80.0253642,193.451361 80.0253642,193.451361 L100.255056,192.58849 L79.5921477,148.72786 L53.7913257,144.002052" id="Fill-19" fill="#B1591D"></path>
                    <path d="M88.3137898,195.940347 C88.3143517,195.940347 88.5924867,195.930778 89.1139198,195.913329 C89.6291721,195.911078 90.3950269,195.862671 91.3519239,195.864923 C93.2707751,195.826085 95.9925657,195.799631 99.2200565,195.794565 C100.827059,195.791188 102.567792,195.788936 104.409102,195.786685 C106.234118,195.773176 108.160273,195.763607 110.151046,195.751224 C114.119107,195.702818 118.319228,195.605442 122.47833,195.347088 C124.554511,195.22382 126.6217,195.044267 128.644501,194.830378 C130.661121,194.588347 132.650208,194.36095 134.537032,194.009159 C135.494491,193.875761 136.408122,193.656244 137.316135,193.478941 C138.235385,193.325279 139.090019,193.062422 139.950833,192.865419 C141.656728,192.433703 143.247998,191.943448 144.69711,191.412104 C145.449479,191.18921 146.098461,190.85712 146.763738,190.598765 C147.091881,190.462552 147.425643,190.342662 147.728501,190.197443 C148.029112,190.04941 148.321294,189.905317 148.604486,189.761223 C149.776025,189.22988 150.732922,188.648441 151.558337,188.180138 C152.366895,187.698889 152.966431,187.254789 153.407514,186.974483 C153.848597,186.689673 154.08459,186.5377 154.08459,186.5377 C154.08459,186.5377 153.950299,186.783109 153.698011,187.236777 C153.564843,187.464737 153.400771,187.743918 153.207481,188.074882 C153.012506,188.405283 152.792807,188.798163 152.478711,189.171905 C151.874119,189.943591 151.159396,190.947178 150.142377,191.896167 C149.65859,192.403871 149.113558,192.913826 148.501661,193.397889 C147.892011,193.889269 147.257638,194.440876 146.537296,194.904114 C145.121336,195.893066 143.4986,196.838678 141.715164,197.680723 C140.821761,198.091614 139.89352,198.520516 138.927071,198.868366 C137.966803,199.247174 136.964392,199.586018 135.941754,199.884899 C135.431559,200.036872 134.917992,200.206857 134.391502,200.343633 C133.868384,200.468589 133.337399,200.594108 132.806413,200.721878 C131.741072,200.998807 130.65775,201.183427 129.561504,201.3748 C127.369575,201.764865 125.129885,201.975939 122.893567,202.141984 C120.660057,202.245551 118.423739,202.315347 116.235181,202.224163 C115.140621,202.206714 114.056175,202.144236 112.988024,202.055866 C111.919873,201.992262 110.869141,201.885881 109.83695,201.765991 C105.709313,201.308382 101.916562,200.532193 98.7137944,199.691274 C97.1129725,199.269125 95.6599274,198.826151 94.3816298,198.401752 C93.1033321,197.978478 92.0054009,197.545635 91.1046927,197.189342 C90.2022989,196.845432 89.507804,196.504336 89.0341315,196.293262 C88.5615828,196.07262 88.3137898,195.940347 88.3137898,195.940347" id="Fill-20" fill="#D66C27"></path>
                    <path d="M66.6619566,87.9486576 C66.7625347,90.2299462 51.3909356,123.004403 51.1083054,129.867969 C50.8256752,136.733224 50.0733058,143.815181 65.0173073,156.552235 C61.6746293,175.439144 55.9613413,185.715355 55.9613413,185.715355 C55.9613413,185.715355 51.7983052,185.684961 50.9341198,186.472971 C50.072182,187.260981 50.9414244,189.815821 50.9414244,189.815821 L58.7977573,191.768397 C58.7977573,191.768397 72.2668,174.937632 78.6054705,157.588468 C76.7742741,165.656001 85.572333,167.006875 85.572333,167.006875 C85.572333,167.006875 78.3863338,182.893717 92.3346679,192.415691 C89.7971769,192.102738 87.3068846,191.836504 83.1432866,191.135175 C78.9791268,190.433846 74.1513759,192.409499 77.3378488,195.039201 C80.5237598,197.668903 112.728993,201.66355 119.286239,200.785482 C121.483787,199.993532 129.801431,174.489029 122.710953,162.033407 C115.619351,149.577785 91.928984,119.961559 91.1193019,107.060712 C90.3113054,94.1609898 101.98736,77.3752535 100.603427,74.1596103 C99.2200565,70.9439671 96.8112381,61.8553988 85.5391816,60.2230926 C61.3886277,60.0694307 47.2059859,33.8191328 47.2059859,33.8191328 C47.2059859,33.8191328 38.0966404,67.8999975 66.6619566,87.9486576" id="Fill-21" fill="#D66C27"></path>
                    <path d="M60.3272193,107.190733 C56.363092,103.304156 60.9773249,99.6697417 62.0241243,100.861325 C63.0675523,102.052909 70.2513039,112.117484 90.5534796,107.978743 C90.5534796,107.978743 90.7231701,106.484902 91.0647986,104.915073 C95.4126962,106.312102 93.6337554,112.847518 90.7557596,114.026156 C72.0173213,119.510705 62.283717,108.387383 60.3272193,107.190733" id="Fill-22" fill="#FEFE80"></path>
                    <path d="M95.7290397,67.9050633 C95.2935757,69.6651396 95.1171425,69.8722737 94.7092111,72.026355 C94.456361,79.1077495 85.0452811,86.2932739 86.5230493,89.4171703 C88.0019413,92.5416295 99.531343,100.544996 102.881326,97.1171526 C106.232432,93.6893096 108.152969,80.3809483 108.086104,76.1031804 C108.019801,71.8254124 96.1650656,66.1472384 95.7290397,67.9050633" id="Fill-23" fill="#3B2210"></path>
                    <path d="M63.935109,79.8124555 C60.136177,78.8668436 56.2164389,76.4285159 55.6129701,76.0446425 L56.6558362,74.4016419 C58.7977573,75.7643361 64.9998887,79.0790434 67.9475588,78.0501277 C68.6184543,77.8159762 69.0466138,77.3696249 69.2977782,76.6497215 L71.1329079,77.2874467 C70.6907012,78.5600826 69.8113448,79.4606654 68.5864266,79.8884422 C67.2536258,80.3522423 65.606167,80.2267236 63.935109,79.8124555" id="Fill-24" fill="#3B2210"></path>
                    <path d="M53.2524741,36.5811075 C52.3843555,40.0900029 48.8393974,42.2288869 45.3377047,41.3586988 C41.8348883,40.4879479 39.6997099,36.9379634 40.5683904,33.4290679 C41.4376328,29.9207353 44.9814671,27.7818514 48.4837216,28.6520394 C51.986538,29.5227904 54.1211546,33.0733377 53.2524741,36.5811075" id="Fill-25" fill="#3B2210"></path>
                    <path d="M88.8807358,61.622373 C87.654132,59.7767413 89.517918,57.046287 90.9855723,56.0832264 C91.2698881,55.8963555 91.3536096,54.8437994 90.9451162,55.1111599 C89.4313871,56.1063038 88.5082034,57.5376675 88.1547752,59.3084383 C87.973285,60.2140868 87.8440505,61.6386961 88.3918923,62.4627293 C88.6689037,62.8792488 89.0678449,61.9049309 88.8807358,61.622373" id="Fill-26" fill="#3B2210"></path>
                    <path d="M87.9300195,62.1683513 C87.5198405,61.7962981 87.3816158,61.1377469 87.2608097,60.6238519 C86.8776013,58.9937972 87.4299383,57.4819439 88.5312408,56.2768517 C88.7604916,56.0241257 88.7548727,54.9935213 88.3441318,55.4421241 C87.2478862,56.6460906 86.5393441,58.1663868 86.5640672,59.8217704 C86.5792382,60.855752 86.711844,62.3923713 87.5400685,63.1454836 C87.8361841,63.4122812 88.2002882,62.4137601 87.9300195,62.1683513" id="Fill-27" fill="#3B2210"></path>
                    <path d="M86.9180573,62.5584162 C86.3887578,62.2966843 86.0544338,61.560458 85.8111359,61.062886 C85.116641,59.6360253 85.1981149,58.0555026 85.9516081,56.6736709 C86.1381553,56.3320124 85.9684648,55.413418 85.6307695,56.0325686 C84.812659,57.5331646 84.5401428,59.1339504 84.9312176,60.8067828 C85.15204,61.7484546 85.7274144,63.1460464 86.6579027,63.6070322 C86.9590752,63.7556284 87.2787901,62.7362813 86.9180573,62.5584162" id="Fill-28" fill="#3B2210"></path>
                    <path d="M90.8861179,63.6509356 C90.4158168,63.2850739 90.0882354,62.7554187 89.8325759,62.2252006 C89.0655973,60.6345463 90.2135367,59.4626631 91.5041959,58.6622702 C91.792445,58.4815908 91.8812234,57.4307233 91.4637399,57.6902037 C89.9696768,58.6194925 88.8739932,59.9467263 88.9970469,61.7839151 C89.0661592,62.8145194 89.6758089,63.9897799 90.4972907,64.6269421 C90.8243101,64.880231 91.1698719,63.8698898 90.8861179,63.6509356" id="Fill-29" fill="#3B2210"></path>
                    <path d="M81.0390121,54.7486754 C80.5091507,54.4481059 80.2091019,53.7743574 79.9641183,53.2480794 C79.2550143,51.7142744 79.4179621,50.0617051 80.3023755,48.6421616 C80.5113982,48.3061317 80.3546312,47.4010461 79.9815368,48.0004964 C79.0898189,49.4329858 78.7678565,50.9786109 79.0296968,52.6452518 C79.1830925,53.6240727 79.7180109,55.197841 80.6501848,55.7246819 C81.0277743,55.9385703 81.3356895,54.9164089 81.0390121,54.7486754" id="Fill-30" fill="#3B2210"></path>
                    <path d="M80.0231166,54.522404 C79.3421071,54.3518561 78.7442571,53.5368287 78.3717247,52.9992934 C77.4996728,51.7441063 77.2260329,50.1939782 77.6952102,48.731657 C77.8469203,48.2577254 77.4828162,47.6323832 77.2603081,48.3269577 C76.7231422,50.0003529 76.7529223,51.654048 77.5328243,53.2463908 C77.9413177,54.0777412 78.7942653,55.3284255 79.7640858,55.5698942 C80.1293137,55.662204 80.3894683,54.6141508 80.0231166,54.522404" id="Fill-31" fill="#3B2210"></path>
                    <path d="M79.4612276,54.88714 C78.8527017,54.9338577 78.1188746,54.3569219 77.6834106,54.0096347 C76.6315542,53.1698413 76.0814649,51.948426 76.0825886,50.6127492 C76.0825886,49.9080432 75.4993478,50.642581 75.4999097,51.0292687 C75.498224,52.4628838 76.0039242,53.7422742 77.0271241,54.7492382 C77.5693471,55.2828335 78.5352344,55.9942939 79.3505354,55.9329417 C79.697221,55.9070499 79.8888251,54.8556196 79.4612276,54.88714" id="Fill-32" fill="#3B2210"></path>
                    <path d="M89.1139198,69.145616 C86.8000606,71.8484899 83.3146628,72.6567629 81.3289468,70.9512843 C79.3443546,69.2452429 79.6112519,65.6716181 81.9251111,62.9693071 C84.2389703,60.266996 87.7254919,59.4592859 89.7100841,61.1642016 C91.6941144,62.870243 91.427779,66.4444307 89.1139198,69.145616" id="Fill-33" fill="#FFFFFF"></path>
                    <path d="M87.2748569,65.7042642 C86.2819989,66.8648902 84.5373334,66.998289 83.37928,66.0031451 C82.2217885,65.0085641 82.0874971,63.2608707 83.0814788,62.1008076 C84.0748987,60.9413073 85.8178785,60.8079085 86.9759319,61.8030524 C88.1339853,62.7981963 88.2688386,64.544764 87.2748569,65.7042642" id="Fill-34" fill="#642304"></path>
                    <path d="M82.7376027,60.5433623 C80.4226198,63.2451105 76.9377838,64.0533835 74.9531916,62.347905 C72.9691613,60.6418636 73.234373,57.0682388 75.5482321,54.3659277 C77.8626532,51.6641795 81.348051,50.8559065 83.3332051,52.5613851 C85.3172354,54.2668636 85.0514619,57.8404884 82.7376027,60.5433623" id="Fill-35" fill="#FFFFFF"></path>
                    <path d="M80.8979779,57.1020106 C79.904558,58.2620737 78.1604544,58.3954725 77.0029629,57.4008915 C75.8449096,56.4063104 75.7100562,54.6580542 76.7045998,53.498554 C77.6985816,52.337928 79.4415615,52.2045292 80.5996148,53.1996731 C81.7582301,54.194817 81.8925215,55.9425103 80.8979779,57.1020106" id="Fill-36" fill="#642304"></path>
                    <path d="M98.092907,102.975443 C95.2694145,102.992892 89.7696443,107.87011 86.8601828,110.653474 C83.9136365,107.909511 78.3509348,103.105465 75.528566,103.124039 C71.5773621,103.150494 73.0500734,107.014557 73.0815391,111.947499 C73.1141287,116.879878 71.6936732,121.011301 75.6448771,120.984846 C78.4672458,120.967397 83.9715111,116.653606 86.8826583,114.192201 C89.8275189,116.615331 95.3862874,120.856513 98.2080943,120.837939 C102.15986,120.811484 101.264771,116.942918 101.233867,112.009977 C101.200715,107.077035 102.042987,102.948989 98.092907,102.975443" id="Fill-37" fill="#FCF975"></path>
                    <path d="M73.1613274,111.615409 C73.1944788,116.547788 71.6936732,121.011301 75.6448771,120.984846 C78.2998029,120.968523 83.323653,117.153993 86.3353784,114.650373 L86.306722,110.142393 C83.2590357,107.352275 78.1834918,103.106591 75.528566,103.124039 C71.5773621,103.150494 73.1298616,106.683593 73.1613274,111.615409" id="Fill-38" fill="#FCF975"></path>
                    <path d="M81.0345169,112.033054 C81.0564306,115.241943 79.9466997,118.156454 78.1340456,120.283517 C80.7889714,119.062102 84.1114215,116.498819 86.3353784,114.650373 L86.306722,110.142393 C84.0805176,108.106513 80.7743623,105.293881 78.1183127,103.931187 C79.904558,106.023916 81.0148508,108.879326 81.0345169,112.033054" id="Fill-39" fill="#EBE465"></path>
                    <path d="M95.4739421,103.761765 C92.8358729,105.158793 89.5656786,108.013641 87.3692542,110.080478 L87.3979106,114.587895 C89.6460287,116.407635 93.0021921,118.927015 95.6722889,120.11297 C93.8326641,118.008983 92.6847248,115.111358 92.6628111,111.901344 C92.6425831,108.747053 93.7152293,105.878697 95.4739421,103.761765" id="Fill-40" fill="#EBE465"></path>
                    <path d="M87.5130978,107.014557 L85.8853052,107.024688 C83.9709492,107.03876 82.4162022,108.617594 82.4291256,110.532458 L82.4459823,113.156531 C82.4589057,115.072521 84.0350045,116.630529 85.947113,116.61702 L87.5754675,116.606326 C89.487576,116.595631 91.0434468,115.016797 91.0310853,113.099682 L91.0142286,110.476172 C91.0024289,108.560182 89.4246444,107.002737 87.5130978,107.014557" id="Fill-41" fill="#FFFCC5"></path>
                    <path d="M87.8389935,107.012305 L86.6708261,107.021311 L86.7337577,116.61308 L87.902487,116.6052 C89.6342291,116.59338 91.0445706,115.164268 91.0327709,113.427269 L91.0125429,110.147459 C91.0007433,108.411586 89.5729832,107.001611 87.8389935,107.012305" id="Fill-42" fill="#D8C72B"></path>
                    <path d="M61.6993524,105.640605 C62.0280575,105.091813 62.0533425,104.469848 61.8162253,104.035317 L61.9600689,103.794411 L61.0795887,103.265881 L60.9357451,103.50735 C60.4407209,103.502284 59.9058025,103.817488 59.5782212,104.366281 C59.2495161,104.915073 59.2231073,105.537038 59.4607864,105.971007 L58.3780261,107.781741 C57.8835638,107.777238 57.3486454,108.09413 57.021064,108.641797 C56.5715528,109.392658 56.6828068,110.284798 57.269419,110.637151 C57.8554693,110.988941 58.6938078,110.665294 59.1421953,109.915559 C59.4697766,109.367329 59.4956235,108.744801 59.2579444,108.310833 L60.3423903,106.500099 C60.835167,106.504602 61.3712092,106.187709 61.6993524,105.640605" id="Fill-43" fill="#65B09D"></path>
                    <path d="M61.6993524,105.640605 C62.0280575,105.091813 62.0533425,104.469848 61.8162253,104.035317 L61.9600689,103.794411 L61.5302238,103.537182 L57.2817806,110.642217 C57.8667071,110.983312 58.6971791,110.660228 59.1421953,109.915559 C59.4697766,109.367329 59.4956235,108.744801 59.2579444,108.310833 L60.3423903,106.500099 C60.835167,106.504602 61.3712092,106.187709 61.6993524,105.640605" id="Fill-44" fill="#509B86"></path>
                    <path d="M58.1234904,109.107849 C55.2415614,107.378167 51.1195432,108.964881 48.9152524,112.651079 C46.7109616,116.336714 47.2582416,120.72424 50.1401706,122.455048 C53.0220996,124.184166 57.142994,122.596889 59.3478467,118.910692 C61.5521375,115.226745 61.0031718,110.835842 58.1234904,109.107849" id="Fill-45" fill="#FEFE80"></path>
                    <path d="M58.1498992,109.126423 L50.1705126,122.469119 C53.050194,124.171221 57.1514223,122.585632 59.3478467,118.910692 C61.5453948,115.238566 61.0065432,110.867925 58.1498992,109.126423" id="Fill-46" fill="#D8D14C"></path>
                    <path d="M57.796471,110.830213 C55.6584831,109.242936 52.2865868,110.172788 50.2615386,112.906056 C48.2376142,115.641014 48.329764,119.143717 50.46719,120.730995 C52.604616,122.318272 54.6324736,120.706791 56.6569599,117.974086 C58.6814462,115.238566 59.9338969,112.418053 57.796471,110.830213" id="Fill-47" fill="#FFAD4A"></path>
                    <path d="M57.8161371,110.848225 C57.8161371,110.848225 58.3370082,114.451681 55.876496,117.307654 C53.3075392,120.290272 50.4902275,120.745629 50.4902275,120.745629 C52.6270916,122.310954 55.2325712,120.830059 57.2508767,118.105796 C59.2663727,115.381533 59.9322113,112.441693 57.8161371,110.848225" id="Fill-48" fill="#EB902F"></path>
                    <path d="M45.7034945,86.7294937 C45.7034945,86.7294937 42.2152872,97.3845131 42.7507675,98.8136253 C43.2856859,100.242738 63.7918273,101.849715 67.0018995,101.67185 C70.2114098,101.492296 69.6764914,106.851889 66.2883004,107.566164 C62.9006712,108.281001 35.0832293,108.995276 32.7648751,107.029754 C30.4465208,105.065358 35.869874,84.4679053 36.5829113,82.6819372 C40.0441479,84.3131177 41.0448723,84.6964282 45.7034945,86.7294937" id="Fill-49" fill="#FFE2C9"></path>
                    <path d="M73.786148,99.3764895 C73.786148,99.3764895 76.678191,95.5794076 77.8177021,94.6191612 C78.9572131,93.6600406 80.740649,93.5705452 80.740649,93.5705452 C80.740649,93.5705452 82.8803225,94.8212295 83.2371221,95.8929229 C83.5939216,96.9646164 85.1093364,100.211217 83.2371221,100.909732 C81.3649077,101.609372 78.9701365,97.9473773 78.9701365,97.9473773 C78.9706984,97.9468144 77.2097381,98.9126894 76.6568393,99.8149607 C76.1045023,100.716106 73.786148,99.3764895 73.786148,99.3764895" id="Fill-50" fill="#FFE2C9"></path>
                    <path d="M66.1669323,103.32667 C66.1669323,103.32667 74.8329474,99.5971323 77.1664726,100.436363 C79.4988741,101.274468 82.2481973,101.700556 83.7192229,101.820446 C85.1902485,101.93921 86.2162579,103.536056 86.4882122,103.32667 C86.7607284,103.117285 69.0775177,106.187709 66.1669323,103.32667" id="Fill-51" fill="#FFE2C9"></path>
                    <path d="M67.0018995,101.671287 C67.5244563,101.696053 71.5492677,100.689652 72.7972233,99.9742513 C74.0457408,99.2605395 76.9776779,96.5677971 77.7901695,96.8481035 C78.6026611,97.1289727 79.3061462,98.4562065 79.484265,100.689652 C79.6623839,102.921971 78.5925471,104.261588 77.0771323,103.725741 C75.5611556,103.189894 75.8286148,101.403363 75.8286148,101.403363 C75.8286148,101.403363 70.5682094,104.140572 68.7853354,103.84338 C67.0018995,103.54675 67.0018995,101.671287 67.0018995,101.671287" id="Fill-52" fill="#FFE2C9"></path>
                </g>
            </g>
        </g>
    </g>
</svg>