<?xml version="1.0" encoding="UTF-8" standalone="no"?>
<svg width="38px" height="28px" viewBox="0 0 38 28" version="1.1" xmlns="http://www.w3.org/2000/svg" xmlns:xlink="http://www.w3.org/1999/xlink" xmlns:sketch="http://www.bohemiancoding.com/sketch/ns">
    <!-- Generator: Sketch 3.3.3 (12081) - http://www.bohemiancoding.com/sketch -->
    <title>Imported Layers</title>
    <desc>Created with Sketch.</desc>
    <defs></defs>
    <g id="HOME" stroke="none" stroke-width="1" fill="none" fill-rule="evenodd" sketch:type="MSPage">
        <g id="Homepage-2" sketch:type="MSArtboardGroup" transform="translate(-354.000000, -1609.000000)" fill="#48CFC2">
            <path d="M371.21819,1611.85057 C368.229762,1611.85057 365.756143,1612.42781 363.795524,1613.57686 C361.834905,1614.72862 360.579095,1616.73086 360.026286,1619.5881 C359.933095,1620.23319 359.956619,1620.97057 360.095952,1621.79933 C360.233476,1622.6299 360.485905,1623.08862 360.855048,1623.1809 L361.976048,1622.35757 C362.814762,1622.08524 363.609143,1621.94771 364.357381,1621.94771 C366.12981,1621.94771 367.715857,1622.53943 369.116429,1623.7301 C370.516095,1624.91805 371.21819,1626.46971 371.21819,1628.3869 C371.21819,1630.8551 370.544143,1632.8881 369.196048,1634.48681 C367.848857,1636.08643 365.831238,1636.88352 363.136857,1636.88352 C360.627952,1636.88352 358.562381,1635.89371 356.936524,1633.91048 C355.310667,1631.92814 354.5,1629.32514 354.5,1626.09514 C354.5,1615.03081 360.071524,1609.5 371.21819,1609.5 L371.21819,1611.85057 L371.21819,1611.85057 Z M391.249619,1611.85057 C388.263,1611.85057 385.789381,1612.42781 383.828762,1613.57686 C381.868143,1614.72862 380.612333,1616.73086 380.059524,1619.5881 C379.966333,1620.23319 379.990762,1620.97057 380.128286,1621.79933 C380.266714,1622.6299 380.520048,1623.08862 380.888286,1623.1809 L382.008381,1622.35757 C382.848,1622.08524 383.642381,1621.94771 384.390619,1621.94771 C386.162143,1621.94771 387.749095,1622.53943 389.150571,1623.7301 C390.549333,1624.91805 391.249619,1626.46971 391.249619,1628.3869 C391.249619,1630.8551 390.576476,1632.8881 389.23019,1634.48681 C387.882095,1636.08643 385.864476,1636.88352 383.171,1636.88352 C380.66119,1636.88352 378.596524,1635.89371 376.969762,1633.91048 C375.34481,1631.92814 374.533238,1629.32514 374.533238,1626.09514 C374.533238,1615.03081 380.105667,1609.5 391.249619,1609.5 L391.249619,1611.85057 L391.249619,1611.85057 Z" id="Imported-Layers" sketch:type="MSShapeGroup"></path>
        </g>
    </g>
</svg>