<?xml version="1.0" encoding="UTF-8" standalone="no"?>
<svg width="181px" height="275px" viewBox="0 0 181 275" version="1.1" xmlns="http://www.w3.org/2000/svg" xmlns:xlink="http://www.w3.org/1999/xlink" xmlns:sketch="http://www.bohemiancoding.com/sketch/ns">
    <!-- Generator: Sketch 3.3.3 (12081) - http://www.bohemiancoding.com/sketch -->
    <title>Imported Layers Copy 8 + Imported Layers</title>
    <desc>Created with Sketch.</desc>
    <defs></defs>
    <g id="HOME" stroke="none" stroke-width="1" fill="none" fill-rule="evenodd" sketch:type="MSPage">
        <g id="Homepage-2" sketch:type="MSArtboardGroup" transform="translate(-915.000000, -2294.000000)">
            <g id="Imported-Layers-Copy-8-+-Imported-Layers" sketch:type="MSLayerGroup" transform="translate(915.000000, 2294.000000)">
                <path d="M125.382927,265.20265 C125.382927,270.28705 103.135122,274.40815 75.6917073,274.40815 C48.2482927,274.40815 26,270.28705 26,265.20265 C26,260.1192 48.2482927,256 75.6917073,256 C103.135122,256 125.382927,260.1192 125.382927,265.20265" id="Imported-Layers-Copy-8" fill="#3BADB9" sketch:type="MSShapeGroup" transform="translate(76.000000, 265.500000) scale(-1, 1) translate(-76.000000, -265.500000) "></path>
                <g id="Imported-Layers" transform="translate(90.500000, 116.500000) scale(-1, 1) translate(-90.500000, -116.500000) " sketch:type="MSShapeGroup">
                    <path d="M93.381,171.133 C93.381,171.133 83.406,194.461 78.689,191.466 C73.879,188.414 72.722,190.556 71.817,191.347 C67.248,195.349 80.182,204.459 84.494,204.002 C93.526,203.048 104.444,183.993 104.444,183.993 L93.381,171.133" id="Fill-1" fill="#D1C699"></path>
                    <path d="M148.444,145.441 C148.939,145.889 167.279,147.086 166.826,143.271 C166.371,139.457 166.189,136.007 155.927,141.105 C145.715,135.519 165.706,111.625 177.46,134.765 C189.214,157.905 158.658,168.965 147.453,157.339 C144.384,151.949 148.444,145.441 148.444,145.441" id="Fill-2" fill="#A3825A"></path>
                    <path d="M143.9,168.148 C145.555,167.127 147.096,165.871 148.459,164.354 C156.256,155.684 155.469,142.264 146.7,134.378 C144.326,132.243 141.607,130.757 138.752,129.86 C139.492,125.038 137.71,119.746 133.564,116.019 C131.135,113.836 128.257,112.518 125.342,112.048 C126.467,107.299 125.089,102.163 121.279,98.738 C119.796,97.405 118.092,96.475 116.297,95.92 C116.506,95.308 116.746,94.707 117.06,94.136 C124.472,80.574 57.643,57.228 45.594,67.304 C33.546,77.381 20.265,103.077 19.517,108.081 C18.769,113.086 7.711,107.507 2.639,112.42 C-3.145,118.022 6.979,130.782 13.673,122.569 C16.604,118.975 20.628,130.285 33.451,120.011 C32.214,123.38 43.521,135.638 43.521,135.638 C43.521,135.638 28.13,139.806 21.88,143.407 C20.451,144.228 15.507,147.375 16.733,151.004 C19.039,157.837 23.05,159.605 27.817,159.85 C32.158,160.074 34.226,155.979 35.684,153.894 C40.08,147.612 44.995,148.589 55.44,149.041 C61.879,148.86 103.517,177.633 99.127,183.844 C88.269,200.771 114.041,218.197 108.78,220.78 C94.466,227.806 113.237,234.762 117.779,230.965 C119.298,229.696 122.274,227.687 124.044,221.775 C126.708,212.879 121.26,210.719 127.692,200.493 C129.763,197.201 146.251,179.592 143.9,168.148" id="Fill-3" fill="#E9E1B8"></path>
                    <path d="M119.008,120.049 L118.307,118.914 C124.998,114.758 124.691,112.199 124.688,112.175 L125.991,111.891 C126.071,112.231 126.568,115.351 119.008,120.049" id="Fill-4" fill="#A3825A"></path>
                    <path d="M132.177,137.082 L131.473,135.949 C138.167,131.794 137.862,129.233 137.857,129.209 L139.16,128.926 C139.24,129.268 139.736,132.386 132.177,137.082" id="Fill-5" fill="#A3825A"></path>
                    <path d="M94.212,36.737 C109.139,48.481 119.238,48.373 122.181,58.746 C118.711,86.965 86.381,101.381 68.595,97.986 C50.811,94.592 30.872,80.596 29.502,59.167 C28.133,37.739 55.477,8.377 60.942,8.437 C66.406,8.497 79.287,24.992 94.212,36.737" id="Fill-6" fill="#E9E1B8"></path>
                    <path d="M117.383,39.425 L107.515,45.085 L114.882,50.882 L117.383,39.425" id="Fill-7" fill="#AA9883"></path>
                    <path d="M29.502,59.167 C30.872,80.596 50.811,94.592 68.595,97.986 C72.016,98.641 75.977,98.633 80.165,97.996 C80.165,97.996 91.746,74.977 68.874,61.527 C63.994,58.658 62.63,56.217 59.056,53.805 C40.515,41.277 29.502,59.167 29.502,59.167" id="Fill-8" fill="#A3825A"></path>
                    <path d="M117.383,39.425 C114.877,39.574 106.216,67.102 110.311,71.597 C114.408,76.088 132.994,70.788 134.436,68.957 C135.878,67.122 119.888,39.277 117.383,39.425" id="Fill-9" fill="#A3825A"></path>
                    <path d="M80.325,10.266 L77.145,21.188 L69.778,15.391 L80.325,10.266" id="Fill-10" fill="#AA9883"></path>
                    <path d="M80.325,10.266 C80.771,12.736 56.052,27.629 50.72,24.705 C45.391,21.779 46.171,2.47 47.612,0.636 C49.057,-1.197 79.879,7.797 80.325,10.266" id="Fill-11" fill="#A3825A"></path>
                    <path d="M60.038,51.826 C63.455,53.174 72.357,61.35 71.261,62.812 C70.164,64.275 60.191,63.575 58.731,62.117 C57.271,60.657 57.962,50.626 60.038,51.826" id="Fill-12" fill="#53341F"></path>
                    <path d="M51.562,91.445 L52.94,91.273 C53.98,92.011 63.327,87.04 51.299,73.441 C54.702,69.533 60.269,62.001 60.269,62.001 L58.49,61.572 C58.49,61.572 52.634,67.577 49.634,71.862 C39.308,61.054 35.939,75.569 35.851,76.409 C35.682,78.02 37.527,80.437 41.27,83.982 C45.877,88.348 47.389,89.215 49.586,90.443 C50.478,90.984 51.562,91.445 51.562,91.445" id="Fill-13" fill="#53341F"></path>
                    <path d="M71.899,32.75 C74.968,46.47 97.22,52.673 97.22,52.673 L71.899,32.75" id="Fill-14" fill="#A3825A"></path>
                    <path d="M75.105,60.599 C74.812,55.227 66.806,51.477 66.806,51.477 L75.105,60.599" id="Fill-15" fill="#A3825A"></path>
                    <path d="M63.771,45.335 C60.293,49.756 52.623,49.516 46.633,44.804 C40.645,40.092 38.609,32.691 42.086,28.272 C45.561,23.855 53.233,24.095 59.222,28.806 C65.21,33.518 67.247,40.92 63.771,45.335" id="Fill-16" fill="#A3825A"></path>
                    <path d="M105.657,76.272 C102.181,80.691 94.507,80.451 88.519,75.739 C82.531,71.027 80.496,63.627 83.971,59.209 C87.447,54.791 95.119,55.03 101.106,59.742 C107.094,64.454 109.132,71.855 105.657,76.272" id="Fill-17" fill="#A3825A"></path>
                    <path d="M52.689,34.334 C51.194,36.234 48.194,36.368 45.988,34.633 C43.783,32.898 43.206,29.948 44.701,28.049 C46.196,26.15 49.197,26.016 51.403,27.752 C53.608,29.486 54.183,32.437 52.689,34.334" id="Fill-18" fill="#2D1306"></path>
                    <path d="M51.433,34.718 C50.808,35.513 49.552,35.568 48.629,34.842 C47.704,34.115 47.462,32.881 48.088,32.087 C48.716,31.289 49.972,31.235 50.896,31.961 C51.818,32.688 52.059,33.922 51.433,34.718" id="Fill-19" fill="#FFFFFF"></path>
                    <path d="M86.709,58.409 C84.979,60.099 85.164,63.097 87.123,65.105 C89.083,67.111 92.076,67.371 93.806,65.684 C95.536,63.994 95.35,60.997 93.39,58.989 C91.429,56.982 88.439,56.723 86.709,58.409" id="Fill-20" fill="#2D1306"></path>
                    <path d="M90.645,62.703 C89.92,63.41 89.999,64.664 90.819,65.506 C91.64,66.347 92.893,66.455 93.617,65.748 C94.343,65.041 94.263,63.786 93.442,62.943 C92.623,62.103 91.37,61.996 90.645,62.703" id="Fill-21" fill="#FFFFFF"></path>
                    <path d="M114.29,47.764 C117.484,48.644 123.201,50.638 124.662,53.839 C124.85,54.253 124.97,54.68 125.017,55.111 C125.21,56.9 124.456,57.992 123.79,58.596 C121.97,60.238 118.738,60.103 116.998,59.888 C116.025,61.343 114.009,63.87 111.576,64.176 C110.682,64.282 109.365,64.139 108.14,62.817 C107.845,62.502 107.6,62.129 107.409,61.716 C105.945,58.506 108.202,52.862 109.622,49.874 C110.493,50.029 111.428,49.936 112.297,49.539 C113.162,49.145 113.838,48.513 114.29,47.764" id="Fill-22" fill="#FF5C7F"></path>
                    <path d="M111.346,41.274 C110.479,41.121 109.55,41.218 108.68,41.613 C107.802,42.014 107.113,42.661 106.665,43.43 C106.683,43.435 106.7,43.442 106.717,43.445 C106.012,44.627 105.869,46.1 106.473,47.424 C107.077,48.742 108.285,49.602 109.637,49.843 C109.637,49.854 109.627,49.864 109.622,49.874 C110.493,50.029 111.425,49.934 112.297,49.539 C113.162,49.145 113.838,48.513 114.29,47.764 C114.27,47.757 114.249,47.752 114.231,47.747 C114.935,46.564 115.081,45.091 114.477,43.772 C113.873,42.448 112.663,41.587 111.31,41.348 C111.323,41.324 111.336,41.298 111.346,41.274 M109.137,46.208 C108.81,45.485 109.139,44.625 109.877,44.289 C110.618,43.952 111.484,44.264 111.814,44.985 C112.143,45.709 111.811,46.566 111.073,46.905 C110.334,47.24 109.467,46.929 109.137,46.208" id="Fill-23" fill="#FFC289"></path>
                    <path d="M103.949,31.31 C104.924,29.848 106.941,27.324 109.374,27.02 C110.267,26.908 111.586,27.054 112.813,28.377 C113.107,28.69 113.352,29.065 113.54,29.476 C114.997,32.67 112.769,38.275 111.346,41.274 C110.479,41.121 109.55,41.218 108.68,41.613 C107.802,42.014 107.113,42.661 106.665,43.43 C103.471,42.547 97.751,40.557 96.289,37.353 C96.099,36.94 95.98,36.511 95.932,36.081 C95.738,34.289 96.493,33.198 97.159,32.598 C98.979,30.955 102.214,31.09 103.949,31.31" id="Fill-24" fill="#FF305E"></path>
                    <path d="M109.601,46.769 C109.406,46.629 109.243,46.438 109.137,46.208 C108.81,45.485 109.139,44.625 109.877,44.289 C110.105,44.184 110.343,44.142 110.576,44.156 L109.601,46.769" id="Fill-25" fill="#FF305E"></path>
                    <path d="M111.31,41.348 C111.408,41.367 111.503,41.389 111.601,41.411 L110.576,44.156 C110.343,44.142 110.104,44.183 109.877,44.289 C109.139,44.625 108.81,45.485 109.137,46.208 C109.243,46.438 109.406,46.629 109.601,46.769 L108.578,49.509 C107.672,49.1 106.912,48.385 106.473,47.424 C105.869,46.1 106.012,44.627 106.718,43.444 C106.7,43.442 106.683,43.435 106.665,43.43 C107.113,42.661 107.802,42.014 108.68,41.613 C109.55,41.218 110.479,41.121 111.346,41.274 C111.336,41.298 111.323,41.324 111.31,41.348" id="Fill-26" fill="#FFB36B"></path>
                    <path d="M108.827,46.349 C109.232,47.236 110.303,47.623 111.212,47.207 C112.12,46.793 112.53,45.735 112.123,44.847 C111.717,43.954 110.65,43.57 109.74,43.985 C108.829,44.4 108.422,45.46 108.827,46.349" id="Fill-27" fill="#EBAA75"></path>
                </g>
            </g>
        </g>
    </g>
</svg>