<?xml version="1.0" encoding="UTF-8" standalone="no"?>
<svg width="34px" height="34px" viewBox="0 0 34 34" version="1.1" xmlns="http://www.w3.org/2000/svg" xmlns:xlink="http://www.w3.org/1999/xlink" xmlns:sketch="http://www.bohemiancoding.com/sketch/ns">
    <!-- Generator: Sketch 3.4 (15588) - http://www.bohemiancoding.com/sketch -->
    <title>Oval 50 Copy + Imported Layers Copy</title>
    <desc>Created with Sketch.</desc>
    <defs></defs>
    <g id="HOME" stroke="none" stroke-width="1" fill="none" fill-rule="evenodd" sketch:type="MSPage">
        <g id="Homepage-2-scrolldown" sketch:type="MSArtboardGroup" transform="translate(-563.000000, -3370.000000)">
            <g id="footer" sketch:type="MSLayerGroup" transform="translate(0.000000, 3314.000000)">
                <g id="Oval-50-Copy-+-Imported-Layers-Copy" transform="translate(563.000000, 56.000000)" sketch:type="MSShapeGroup">
                    <ellipse id="Oval-50-Copy" fill="#637988" cx="17" cy="16.8425926" rx="17" ry="16.8425926"></ellipse>
                    <path d="M24.6968604,12.8264288 C25.5021707,12.3403139 26.1200381,11.5703079 26.4112302,10.6521341 C25.6579874,11.102471 24.8241365,11.4299179 23.9359039,11.606086 C23.2250865,10.8423023 22.2115063,10.364743 21.0907057,10.364743 C18.9378121,10.364743 17.1925874,12.1248678 17.1925874,14.2952736 C17.1925874,14.6032759 17.2269134,14.9031116 17.2936369,15.1908916 C14.0538829,15.0271681 11.1813011,13.462656 9.25866138,11.084193 C8.92311543,11.6648087 8.7310443,12.339925 8.7310443,13.0601528 C8.7310443,14.4239968 9.41910633,15.6268395 10.465084,16.3319005 C9.82638969,16.3112892 9.22510678,16.1347323 8.69941813,15.8399522 C8.69903244,15.8562857 8.69903244,15.873008 8.69903244,15.8897304 C8.69903244,17.7937452 10.042759,19.3823687 11.8261664,19.7436492 C11.4991055,19.8334833 11.1546888,19.8817059 10.7990873,19.8817059 C10.5476206,19.8817059 10.3038677,19.8572057 10.0655144,19.8109275 C10.561891,21.3723286 12.0012674,22.5090596 13.7067664,22.5405599 C12.372682,23.5948458 10.6922525,24.2232952 8.86564836,24.2232952 C8.55131509,24.2232952 8.24083867,24.2046284 7.93576184,24.1684614 C9.66131651,25.2838034 11.7100752,25.9344196 13.9115652,25.9344196 C21.0814493,25.9344196 25.0019373,19.9450953 25.0019373,14.7510549 C25.0019373,14.5811091 24.9988518,14.4111633 24.9911381,14.2423843 C25.7524803,13.6886022 26.41393,12.9963746 26.9357618,12.2077018 C26.2372863,12.5207598 25.4859719,12.7319281 24.6968604,12.8264288 Z" id="Imported-Layers-Copy" fill="#FFFFFF"></path>
                </g>
            </g>
        </g>
    </g>
</svg>