<?xml version="1.0" encoding="UTF-8" standalone="no"?>
<svg width="578px" height="358px" viewBox="0 0 578 358" version="1.1" xmlns="http://www.w3.org/2000/svg" xmlns:xlink="http://www.w3.org/1999/xlink" xmlns:sketch="http://www.bohemiancoding.com/sketch/ns">
    <!-- Generator: Sketch 3.3.3 (12081) - http://www.bohemiancoding.com/sketch -->
    <title>Group</title>
    <desc>Created with Sketch.</desc>
    <defs></defs>
    <g id="HOME" stroke="none" stroke-width="1" fill="none" fill-rule="evenodd" sketch:type="MSPage">
        <g id="Group" sketch:type="MSLayerGroup">
            <path d="M569.042414,358 L9.9004894,358 C4.69283197,358 0,353.31236 0,347.584907 L0,13.6663953 C0,7.93894186 4.69283197,3.76744186 9.9004894,3.76744186 L569.042414,3.76744186 C574.250072,3.76744186 578,7.93894186 578,13.6663953 L578,347.584907 C578,353.31236 574.250072,358 569.042414,358 Z" id="Fill-1" fill="#1E679E" sketch:type="MSShapeGroup"></path>
            <path d="M560.819351,348.581395 L18.0962088,348.581395 C13.0413018,348.581395 8.48613377,343.792035 8.48613377,338.233174 L8.48613377,15.4992558 C8.48613377,9.94039535 13.0413018,5.65116279 18.0962088,5.65116279 L560.819351,5.65116279 C565.874258,5.65116279 569.513866,9.94039535 569.513866,15.4992558 L569.513866,338.233174 C569.513866,343.792035 565.874258,348.581395 560.819351,348.581395 Z" id="Fill-2" fill="#FFFFFF" sketch:type="MSShapeGroup"></path>
            <path d="M11.9173605,8.00581395 L9.9004894,8.00581395 C4.69283197,8.00581395 0,12.177314 0,17.9047674 L0,60.75 L8.48613377,60.75 L8.48613377,15.4992558 C8.48613377,12.4551628 9.8514584,9.79252326 11.9173605,8.00581395 M569.042414,8.00581395 L566.605951,8.00581395 C568.422927,9.79252326 569.513866,12.4551628 569.513866,15.4992558 L569.513866,60.75 L578,60.75 L578,17.9047674 C578,12.177314 574.250072,8.00581395 569.042414,8.00581395" id="Fill-3" fill="#1B5C8E" sketch:type="MSShapeGroup"></path>
            <g id="Fill-4-+-Fill-5-+-Group" sketch:type="MSShapeGroup">
                <g>
                    <path d="M578,32.5867534 L578,6.11583532 C578,2.57726305 574.250072,0 569.042414,0 L9.9004894,0 C4.69283197,0 0,2.57726305 0,6.11583532 L0,32.5867534 L578,32.5867534" id="Fill-5" fill="#3088BF"></path>
                    <g id="Group" transform="translate(16.029364, 9.418605)" fill="#2971B2">
                        <path d="M12.838092,13.1233119 C12.1287857,13.8327346 10.9788725,13.8327346 10.2700703,13.1233119 L0.752157124,3.59656146 C0.0428507745,2.8871387 0.0428507745,1.73571429 0.752157124,1.02629153 L0.902891025,0.874921096 C1.61219737,0.164993771 2.76211051,0.164993771 3.47141686,0.874921096 L12.9893301,10.4011669 C13.6986364,11.1110943 13.6986364,12.2620141 12.9893301,12.9714369 L12.838092,13.1233119" id="Fill-6"></path>
                        <path d="M0.751652997,12.9714369 C0.0428507745,12.2615096 0.0428507745,11.1110943 0.751652997,10.4011669 L10.2700703,0.874921096 C10.9788725,0.164993771 12.1292898,0.164993771 12.838092,0.874921096 L12.9893301,1.02578696 C13.6986364,1.73571429 13.6986364,2.88663414 12.9893301,3.59656146 L3.47141686,13.1228073 C2.76261464,13.8327346 1.61219737,13.8327346 0.903395151,13.1228073 L0.751652997,12.9714369" id="Fill-7"></path>
                        <path d="M32.2641125,9.77550249 C32.2641125,11.6217172 30.7683685,13.1187708 28.9237686,13.1187708 L23.5054142,13.1187708 C21.6608144,13.1187708 20.1650703,11.6217172 20.1650703,9.77550249 L20.1650703,4.35240449 C20.1650703,2.50618978 21.6608144,1.00913621 23.5054142,1.00913621 L28.9237686,1.00913621 C30.7683685,1.00913621 32.2641125,2.50618978 32.2641125,4.35240449 L32.2641125,9.77550249" id="Fill-8"></path>
                        <path d="M50.9168026,10.4380004 C50.9168026,11.36136 50.1691826,12.1096346 49.2466307,12.1096346 L40.4879324,12.1096346 C39.5653804,12.1096346 38.8177604,11.36136 38.8177604,10.4380004 L38.8177604,10.2492919 C38.8177604,9.32593231 39.5653804,8.57765781 40.4879324,8.57765781 L49.2466307,8.57765781 C50.1691826,8.57765781 50.9168026,9.32593231 50.9168026,10.2492919 L50.9168026,10.4380004" id="Fill-9"></path>
                    </g>
                </g>
            </g>
        </g>
    </g>
</svg>